/* XPM */
static char *result[] = {
/* columns rows colors chars-per-pixel */
"64 64 7 1 ",
"  c #754C60",
". c #90625D",
"X c #D99A9A",
"o c #DCB98A",
"O c #E8B5AC",
"+ c #F3E5C2",
"@ c None",
/* pixels */
"@@@@@@@@@@@@@@@@@@@@@@@@@@@@@@@@@@@@@@@@@@@@@@@@@@@@@@@@@@@@@@@@",
"@@@@@@@@@@@@@@@@@@@@@@@@@@@@@@@@@@@@@@@@@@@@@@@@@@@@@@@@@@@@@@@@",
"@@@@@@@@@@@@@@@@@@@@@@@@@@@@@@@@@@@@@@@@@@@@@@@@@@@@@@@@@@@@@@@@",
"@@@@@@@@@@@@@@@@@@@@@@@@@@@@@@@@@@@@@@@@@@@@@@@@@@@@@@@@@@@@@@@@",
"@@@@@@@@@@@@@@@@@@@@@@@@@@@@@@@@@@@@@@@@@@@@@@@@@@@@@@@@@@@@@@@@",
"@@@@@@@@@@@@@@@@@@@@@@@@@@@@@@@@@@@@@@@@@@@@@@@@@@@@@@@@@@@@@@@@",
"@@@@@@@@@@@@@@@@@@@@@@@@@@@@@@@@@@@@@@@@@@@@@@@@@@@@@@@@@@@@@@@@",
"@@@@@@@@@@@@@@@@@@@@@@@@@@@@@@@@@@@@@@@@@@@@@@@@@@@@@@@@@@@@@@@@",
"@@@@@@@@@@@@@@@@@@@@@@@@@@@@@@@@@@@@@@@@@@@@@@@@@@@@@@@@@@@@@@@@",
"@@@@@@@@@@@@@@@@@@@@@@@@@@@@@@@@@@@@@@@@@@@@@@@@@@@@@@@@@@@@@@@@",
"@@@@@@@@@@@@@@@@@@@@@@@@@@@@@@@@@@@@@@@@@@@@@@@@@@@@@@@@@@@@@@@@",
"@@@@@@@@@@@@@@@@@@@@@@@@@@@@@@@@@@@@@@@@@@@@@@@@@@@@@@@@@@@@@@@@",
"@@@@@@@@@@@@@@@@@@@@@@@@@@@@@@@@@@@@@@@@@@@@@@@@@@@@@@@@@@@@@@@@",
"@@@@@@@@@@@@@@@@@@@@@@@@@@@@@@@@@@@@@@@@@@@@@@@@@@@@@@@@@@@@@@@@",
"@@@@@@@@@@@@@@@@@@@@@@@@@@@@@@@@@@@@@@@@@@@@@@@@@@@@@@@@@@@@@@@@",
"@@@@@@@@@@@@@@@@@@@@@@@@@@@@@@@@@@@@@@@@@@@@@@@@@@@@@@@@@@@@@@@@",
"@@@@@@@@@@@@@@@@@@@@@@@@@@@@@@@@@@@@@@@@@@@@@@@@@@@@@@@@@@@@@@@@",
"@@@@@@@@@@@@@@@@@@@@@@@@@@@@@@@@@@@@@@@@@@@@@@@@@@@@@@@@@@@@@@@@",
"@@@@@@@@@@@@@@@@@@@@@@@@@@@@@@@@@@@@@@@@@@@@@@@@@@@@@@@@@@@@@@@@",
"@@@@@@@@@@@@@@@@@@@@@@@@@@@@@@@@@@@@@@@@@@@@@@@@@@@@@@@@@@@@@@@@",
"@@@@@@@@@@@@@@@@@@@@@@@@@@@@@@@@@@@@@@@@@@@@@@@@@@@@@@@@@@@@@@@@",
"@@@@@@@@@@@@@@@@@@@@@@@@@@@@@@@@@@@@@@@@@@@@@@@@@@@@@@@@@@@@@@@@",
"@@@@@@@@@@@@@@@@@@@@@@@@@@@@@@@@@@@@@@@@@@@@@@@@@@@@@@@@@@@@@@@@",
"@@@@@@@@@@@@@@@@@@@@@@@@@@@@@@@@@@@@@@@@@@@@@@@@@@@@@@@@@@@@@@@@",
"@@@@@@@@@@@@@@@....@@@@....@@@@@@@@@@@@@@@@@@@@@@@@@@@@@@@@@@@@@",
"@@@@@@@@@@@@@@@....@@@@....@@@@@@@@@@@@@@@@@@@@@@@@@@@@@@@@@@@@@",
"@@@@@@@@@@@@@..++..@@@@..++..@@@@@@@@@@@@@@@@@@@@@@@@@@@@@@@@@@@",
"@@@@@@@@@@@@@..++..@@@@..++..@@@@@@@@@@@@@@@@@@@@@@@@@@@@@@@@@@@",
"@@@@@....@@@@..++........++..@@....@@@@@@@@@@@@@@@@@@@@@@@@@@@@@",
"@@@@@....@@@@..++........++..@@....@@@@@@@@@@@@@@@@@@@@@@@@@@@@@",
"@@@..++++....++++oooooooooo....++++..@@@@@@@@@@@@@@@@@@@@@@@@@@@",
"@@@..++++....++++oooooooooo....++++..@@@@@@@@@@@@@@@@@@@@@@@@@@@",
"@@@..++++..++++++oooooooooo++++++++..........@@@@@@@@@@@@@@@@@@@",
"@@@..++++..++++++oooooooooo++++++++..........@@@@@@@@@@@@@@@@@@@",
"@@@..OOOO..++  ++++oo  oooooo++OOOO..++oooooo....@@@@@@@@@@@@@@@",
"@@@..OOOO..++  ++++oo  oooooo++OOOO..++oooooo....@@@@@@@@@@@@@@@",
"@@@@@....++++  ++++++  oooooo......++++oooooooooo..@@@@@@@@@@@@@",
"@@@@@....++++  ++++++  oooooo......++++oooooooooo..@@@@@@@@@@@@@",
"@@@@@@@..++++++++++++++++++++++++++++++++oooooooo..@@....@@@@@@@",
"@@@@@@@..++++++++++++++++++++++++++++++++oooooooo..@@....@@@@@@@",
"@@@@@@@..OOOOOOOOOOOO++++++++++++++++++++++++oooo....oo..@@@@@@@",
"@@@@@@@..OOOOOOOOOOOO++++++++++++++++++++++++oooo....oo..@@@@@@@",
"@@@@@@@..OOXXOOOOXXOOOO++++..++++oooo++++++++++++..oo..@@@@@@@@@",
"@@@@@@@..OOXXOOOOXXOOOO++++..++++oooo++++++++++++..oo..@@@@@@@@@",
"@@@@@@@..OOOOOOOOOOOOOO++..++++oooooooo++++++++++....@@@@@@@@@@@",
"@@@@@@@..OOOOOOOOOOOOOO++..++++oooooooo++++++++++....@@@@@@@@@@@",
"@@@@@@@@@................++++++++oooo++++++++++++..@@@@@@@@@@@@@",
"@@@@@@@@@................++++++++oooo++++++++++++..@@@@@@@@@@@@@",
"@@@@@@@@@@@@@@@@@@@..oooooo++++++++++++++oooooooo..@@@@@@@@@@@@@",
"@@@@@@@@@@@@@@@@@@@..oooooo++++++++++++++oooooooo..@@@@@@@@@@@@@",
"@@@@@@@@@@@@@@@@@@@..oooooooooooooooooooooooooooo..@@@@@@@@@@@@@",
"@@@@@@@@@@@@@@@@@@@..oooooooooooooooooooooooooooo..@@@@@@@@@@@@@",
"@@@@@@@@@@@@@@@@@@@..oooo......oooo........oooo..@@@@@@@@@@@@@@@",
"@@@@@@@@@@@@@@@@@@@..oooo......oooo........oooo..@@@@@@@@@@@@@@@",
"@@@@@@@@@@@@@@@@@@@..oooo..@@..oooo..@@@@..oooo..@@@@@@@@@@@@@@@",
"@@@@@@@@@@@@@@@@@@@..oooo..@@..oooo..@@@@..oooo..@@@@@@@@@@@@@@@",
"@@@@@@@@@@@@@@@@@@@@@....@@@@@@....@@@@@@@@....@@@@@@@@@@@@@@@@@",
"@@@@@@@@@@@@@@@@@@@@@....@@@@@@....@@@@@@@@....@@@@@@@@@@@@@@@@@",
"@@@@@@@@@@@@@@@@@@@@@@@@@@@@@@@@@@@@@@@@@@@@@@@@@@@@@@@@@@@@@@@@",
"@@@@@@@@@@@@@@@@@@@@@@@@@@@@@@@@@@@@@@@@@@@@@@@@@@@@@@@@@@@@@@@@",
"@@@@@@@@@@@@@@@@@@@@@@@@@@@@@@@@@@@@@@@@@@@@@@@@@@@@@@@@@@@@@@@@",
"@@@@@@@@@@@@@@@@@@@@@@@@@@@@@@@@@@@@@@@@@@@@@@@@@@@@@@@@@@@@@@@@",
"@@@@@@@@@@@@@@@@@@@@@@@@@@@@@@@@@@@@@@@@@@@@@@@@@@@@@@@@@@@@@@@@",
"@@@@@@@@@@@@@@@@@@@@@@@@@@@@@@@@@@@@@@@@@@@@@@@@@@@@@@@@@@@@@@@@"
};
