/* XPM */
static char *result[] = {
/* columns rows colors chars-per-pixel */
"64 64 7 1 ",
"  c #754C60",
". c #90625D",
"X c #D99A9A",
"o c #DCB98A",
"O c #E8B5AC",
"+ c #F3E5C2",
"@ c None",
/* pixels */
"@@@@@@@@@@@@@@@@@@@@@@@@@@@@@@@@@@@@@@@@@@@@@@@@@@@@@@@@@@@@@@@@",
"@@@@@@@@@@@@@@@@@@@@@@@@@@@@@@@@@@@@@@@@@@@@@@@@@@@@@@@@@@@@@@@@",
"@@@@@@@@@@@@@@@@@@@@@@@@@@@@@@@@@@@@@@@@@@@@@@@@@@@@@@@@@@@@@@@@",
"@@@@@@@@@@@@@@@@@@@@@@@@@@@@@@@@@@@@@@@@@@@@@@@@@@@@@@@@@@@@@@@@",
"@@@@@@@@@@@@@@@@@@@@@@@@@@@@@@@@@@@@@@@@@@@@@@@@@@@@@@@@@@@@@@@@",
"@@@@@@@@@@@@@@@@@@@@@@@@@@@@@@@@@@@@@@@@@@@@@@@@@@@@@@@@@@@@@@@@",
"@@@@@@@@@@@@@@@@@@@@@@@@@@@@@@@@@@@@@@@@@@@@@@@@@@@@@@@@@@@@@@@@",
"@@@@@@@@@@@@@@@@@@@@@@@@@@@@@@@@@@@@@@@@@@@@@@@@@@@@@@@@@@@@@@@@",
"@@@@@@@@@@@@@@@@@@@@@@@@@@@@@@@@@@@@@@@@@@@@@@@@@@@@@@@@@@@@@@@@",
"@@@@@@@@@@@@@@@@@@@@@@@@@@@@@@@@@@@@@@@@@@@@@@@@@@@@@@@@@@@@@@@@",
"@@@@@@@@@@@@@@@@@@@@@@@@@@@@@@@@@@@@@@@@@@@@@@@@@@@@@@@@@@@@@@@@",
"@@@@@@@@@@@@@@@@@@@@@@@@@@@@@@@@@@@@@@@@@@@@@@@@@@@@@@@@@@@@@@@@",
"@@@@@@@@@@@@@@@@@@@@@@@@@@@@@@@@@@@@@@@@@@@@@@@@@@@@@@@@@@@@@@@@",
"@@@@@@@@@@@@@@@@@@@@@@@@@@@@@@@@@@@@@@@@@@@@@@@@@@@@@@@@@@@@@@@@",
"@@@@@@@@@@@@@@@@@@@@@@@@@@@@@@@@@@@@@@@@@@@@@@@@@@@@@@@@@@@@@@@@",
"@@@@@@@@@@@@@@@@@@@@@@@@@@@@@@@@@@@@@@@@@@@@@@@@@@@@@@@@@@@@@@@@",
"@@@@@@@@@@@@@@@@@@@@@@@@@@@@@@@@@@@@@@@@@@@@@@@@@@@@@@@@@@@@@@@@",
"@@@@@@@@@@@@@@@@@@@@@@@@@@@@@@@@@@@@@@@@@@@@@@@@@@@@@@@@@@@@@@@@",
"@@@@@@@@@@@@@@@@@@@@@@@@@@@@@@@@@@@@@@@@@@@@@@@@@@@@@@@@@@@@@@@@",
"@@@@@@@@@@@@@@@@@@@@@@@@@@@@@@@@@@@@@@@@@@@@@@@@@@@@@@@@@@@@@@@@",
"@@@@@@@@@@@@@@@@@@@@@@@@@@@@@@@@@@@@@@@@@@@@@@@@@@@@@@@@@@@@@@@@",
"@@@@@@@@@@@@@@@@@@@@@@@@@@@@@@@@@@@@@@@@@@@@@@@@@@@@@@@@@@@@@@@@",
"@@@@@@@@@@@@@@@@@@@@@@@@@@@@@@@@@@@@@@@@@@@@@@@@@@@@@@@@@@@@@@@@",
"@@@@@@@@@@@@@@@@@@@@@@@@@@@@@@@@@@@@@@@@@@@@@@@@@@@@@@@@@@@@@@@@",
"@@@@@@@@@@@@@@@@@@@@@@@@@@@@@@@@@@@....@@@@....@@@@@@@@@@@@@@@@@",
"@@@@@@@@@@@@@@@@@@@@@@@@@@@@@@@@@@@....@@@@....@@@@@@@@@@@@@@@@@",
"@@@@@@@@@@@@@@@@@@@@@@@@@@@@@@@@@..++..@@@@..++..@@@@@@@@@@@@@@@",
"@@@@@@@@@@@@@@@@@@@@@@@@@@@@@@@@@..++..@@@@..++..@@@@@@@@@@@@@@@",
"@@@@@@@@@@@@@@@@@@@@@@@@@@@....@@..++........++..@@@@....@@@@@@@",
"@@@@@@@@@@@@@@@@@@@@@@@@@@@....@@..++........++..@@@@....@@@@@@@",
"@@@@@@@@@@@@@@@@@@@@@@@@@..++++....oooooooooo++++....++++..@@@@@",
"@@@@@@@@@@@@@@@@@@@@@@@@@..++++....oooooooooo++++....++++..@@@@@",
"@@@@@@@@@@@@@@@@@..........++++++++oooooooooo++++++..++++..@@@@@",
"@@@@@@@@@@@@@@@@@..........++++++++oooooooooo++++++..++++..@@@@@",
"@@@@@@@@@@@@@....oooooo++..OOOO++oooooo  oo++++  ++..OOOO..@@@@@",
"@@@@@@@@@@@@@....oooooo++..OOOO++oooooo  oo++++  ++..OOOO..@@@@@",
"@@@@@@@@@@@..oooooooooo++++......oooooo  ++++++  ++++....@@@@@@@",
"@@@@@@@@@@@..oooooooooo++++......oooooo  ++++++  ++++....@@@@@@@",
"@@@@@....@@..oooooooo++++++++++++++++++++++++++++++++..@@@@@@@@@",
"@@@@@....@@..oooooooo++++++++++++++++++++++++++++++++..@@@@@@@@@",
"@@@@@..oo....oooo++++++++++++++++++++++++OOOOOOOOOOOO..@@@@@@@@@",
"@@@@@..oo....oooo++++++++++++++++++++++++OOOOOOOOOOOO..@@@@@@@@@",
"@@@@@@@..oo..++++++++++++oooo++++..++++OOOOXXOOOOXXOO..@@@@@@@@@",
"@@@@@@@..oo..++++++++++++oooo++++..++++OOOOXXOOOOXXOO..@@@@@@@@@",
"@@@@@@@@@....++++++++++oooooooo++++..++OOOOOOOOOOOOOO..@@@@@@@@@",
"@@@@@@@@@....++++++++++oooooooo++++..++OOOOOOOOOOOOOO..@@@@@@@@@",
"@@@@@@@@@@@..++++++++++++oooo++++++++................@@@@@@@@@@@",
"@@@@@@@@@@@..++++++++++++oooo++++++++................@@@@@@@@@@@",
"@@@@@@@@@@@..oooooooo++++++++++++++oooooo..@@@@@@@@@@@@@@@@@@@@@",
"@@@@@@@@@@@..oooooooo++++++++++++++oooooo..@@@@@@@@@@@@@@@@@@@@@",
"@@@@@@@@@@@..oooooooooooooooooooooooooooo..@@@@@@@@@@@@@@@@@@@@@",
"@@@@@@@@@@@..oooooooooooooooooooooooooooo..@@@@@@@@@@@@@@@@@@@@@",
"@@@@@@@@@@@@@..oooo........oooo......oooo..@@@@@@@@@@@@@@@@@@@@@",
"@@@@@@@@@@@@@..oooo........oooo......oooo..@@@@@@@@@@@@@@@@@@@@@",
"@@@@@@@@@@@@@..oooo..@@@@..oooo..@@..oooo..@@@@@@@@@@@@@@@@@@@@@",
"@@@@@@@@@@@@@..oooo..@@@@..oooo..@@..oooo..@@@@@@@@@@@@@@@@@@@@@",
"@@@@@@@@@@@@@@@....@@@@@@@@....@@@@@@....@@@@@@@@@@@@@@@@@@@@@@@",
"@@@@@@@@@@@@@@@....@@@@@@@@....@@@@@@....@@@@@@@@@@@@@@@@@@@@@@@",
"@@@@@@@@@@@@@@@@@@@@@@@@@@@@@@@@@@@@@@@@@@@@@@@@@@@@@@@@@@@@@@@@",
"@@@@@@@@@@@@@@@@@@@@@@@@@@@@@@@@@@@@@@@@@@@@@@@@@@@@@@@@@@@@@@@@",
"@@@@@@@@@@@@@@@@@@@@@@@@@@@@@@@@@@@@@@@@@@@@@@@@@@@@@@@@@@@@@@@@",
"@@@@@@@@@@@@@@@@@@@@@@@@@@@@@@@@@@@@@@@@@@@@@@@@@@@@@@@@@@@@@@@@",
"@@@@@@@@@@@@@@@@@@@@@@@@@@@@@@@@@@@@@@@@@@@@@@@@@@@@@@@@@@@@@@@@",
"@@@@@@@@@@@@@@@@@@@@@@@@@@@@@@@@@@@@@@@@@@@@@@@@@@@@@@@@@@@@@@@@"
};
