/* XPM */
static char *result[] = {
/* columns rows colors chars-per-pixel */
"64 64 10 1 ",
"  c #A05E57",
". c #BE7B51",
"X c #C5A439",
"o c #D3B84D",
"O c #D7A167",
"+ c #E5CF66",
"@ c #F7EC7B",
"# c #EBC28A",
"$ c #FEFEA8",
"% c None",
/* pixels */
"%%%%%%%%%%%%%%%%%%%%%%%%%%%%%%%%%%%%%%%%%%%%%%%%%%%%%%%%%%%%%%%%",
"%%%%%%%%%%%%%%%%%%%%%%%%%%%%%%%%%%%%%%%%%%%%%%%%%%%%%%%%%%%%%%%%",
"%%%%%%%%%%%%%%%%%%%%%%%%%%%%%%%%%%%%%%%%%%%%%%%%%%%%%%%%%%%%%%%%",
"%%%%%%%%%%%%%%%%%%%%%%%%%%%%%%%%%%%%%%%%%%%%%%%%%%%%%%%%%%%%%%%%",
"%%%%%%%%%%%%%%%%%%%%%%%%%%%%%%%%%%%%%%%%%%%%%%%%%%%%%%%%%%%%%%%%",
"%%%%%%%%%%%%%%%%%%%%%%%%%%%%%%%%%%%%%%%%%%%%%%%%%%%%%%%%%%%%%%%%",
"%%%%%%%%%%%%%%%%%%%%%%%%%%%%%%%%%%%%%%%%%%%%%%%%%%%%%%%%%%%%%%%%",
"%%%%%%%%%%%%%%%%%%%%%%%%%%%%%%%%%%%%%%%%%%%%%%%%%%%%%%%%%%%%%%%%",
"%%%%%%%%%%%%%%%%%%%%%%%%%%%%%%%%%%%%%%%%%%%%%%%%%%%%%%%%%%%%%%%%",
"%%%%%%%%%%%%%%%%%%%%%%%%%%%%%%%%%%%%%%%%%%%%%%%%%%%%%%%%%%%%%%%%",
"%%%%%%%%%%%%%%%%%%%%%%%%%%%%%%%%%%%%%%%%%%%%%%%%%%%%%%%%%%%%%%%%",
"%%%%%%%%%%%%%%%%%%%%%%%%%%%%%%%%%%%%%%%%%%%%%%%%%%%%%%%%%%%%%%%%",
"%%%%%%%%%%%%%%%%%%%%%%%%%%%%%%%%%%%%%%%%%%%%%%%%%%%%%%%%%%%%%%%%",
"%%%%%%%%%%%%%%%%%%%%%%%%%%%%%%%%%%%%%%%%%%%%%%%%%%%%%%%%%%%%%%%%",
"%%%%%%%%%%%%%%%%%%%%%%%%%%%%%%%%%%%%%%%%%%%%%%%%%%%%%%%%%%%%%%%%",
"%%%%%%%%%%%%%%%%%%%%%%%%%%%%%%%%%%%%%%%%%%%%%%%%%%%%%%%%%%%%%%%%",
"%%%%%%%%%%%%%%%      %%%%%%%%%%%%%%%%%%%%%%    %%%%%%%%%%%%%%%%%",
"%%%%%%%%%%%%%%%      %%%%%%%%%%%%%%%%%%%%%%    %%%%%%%%%%%%%%%%%",
"%%%%%%%%%%%%%%%      %%%%%%%%%%%%%%%%%%%%%%    %%%%%%%%%%%%%%%%%",
"%%%%%%%%%%%%%%%      %%%%%%%%%%%%%%%%%%%%%%    %%%%%%%%%%%%%%%%%",
"%%%%%%%%%%%%%  ++++++                      ++++    %%%%%%%%%%%%%",
"%%%%%%%%%%%%%  ++++++                      ++++    %%%%%%%%%%%%%",
"%%%%%%%%%%%  @@@@@@@@OO################OOOO@@@@@@@@  %%%%%%%%%%%",
"%%%%%%%%%%%  @@@@@@@@OO################OOOO@@@@@@@@  %%%%%%%%%%%",
"%%%%%%%%%%%  @@@@@@OOOOOOOO##########OOOOOOOO@@@@@@  %%%%%%%%%%%",
"%%%%%%%%%%%  @@@@@@OOOOOOOO##########OOOOOOOO@@@@@@  %%%%%%%%%%%",
"%%%%%%%%%%%  @@@@@@OOOOOOOO##########OOOOOOOO@@@@@@  %%%%%%%%%%%",
"%%%%%%%%%%%  @@@@@@OOOOOOOO##########OOOOOOOO@@@@@@  %%%%%%%%%%%",
"%%%%%%%%%%%  @@@@@@OOOOOOOOOOOOOOOOOOOOOOOOOO@@@@@@  %%%%%%%%%%%",
"%%%%%%%%%%%  @@@@@@OOOOOOOOOOOOOOOOOOOOOOOOOO@@@@@@  %%%%%%%%%%%",
"%%%%%%%%%%%  @@@@@@OOOOOOOOOOOOOOOOOOOOOOOOOO@@@@@@  %%%%%%%%%%%",
"%%%%%%%%%%%  @@@@@@OOOOOOOOOOOOOOOOOOOOOOOOOO@@@@@@  %%%%%%%%%%%",
"%%%%%%%%%%%  $$@@@@@@@@@@@@@@@@@@@@@@@@@@@@@@@@$$$$  %%%%%%%%%%%",
"%%%%%%%%%%%  $$@@@@@@@@@@@@@@@@@@@@@@@@@@@@@@@@$$$$  %%%%%%%%%%%",
"%%%%%%%%%%%  $$@@@@@@@@@@@@@@@@@@@@@@@@@@@@@@@@$$$$  %%%%%%%%%%%",
"%%%%%%%%%%%  $$@@@@@@@@@@@@@@@@@@@@@@@@@@@@@@@@$$$$  %%%%%%%%%%%",
"%%%%%%%%%%%  XX$$$$$$$$$$$$$$$$$$$$$$$$$$$$$$$$XXXX  %%%%%%%%%%%",
"%%%%%%%%%%%  XX$$$$$$$$$$$$$$$$$$$$$$$$$$$$$$$$XXXX  %%%%%%%%%%%",
"%%%%%%%%%%%  ooXXXX          @@++++          XXoooo  %%%%%%%%%%%",
"%%%%%%%%%%%  ooXXXX          @@++++          XXoooo  %%%%%%%%%%%",
"%%%%%%%%%%%  oooooo..........++++++..........oooooo  %%%%%%%%%%%",
"%%%%%%%%%%%  oooooo..........++++++..........oooooo  %%%%%%%%%%%",
"%%%%%%%%%%%  oooooo..........++++++..........oooooo  %%%%%%%%%%%",
"%%%%%%%%%%%  oooooo..........++++++..........oooooo  %%%%%%%%%%%",
"%%%%%%%%%%%  ++oooo..........................oo++++  %%%%%%%%%%%",
"%%%%%%%%%%%  ++oooo..........................oo++++  %%%%%%%%%%%",
"%%%%%%%%%%%  ++++++..........................++++++  %%%%%%%%%%%",
"%%%%%%%%%%%  ++++++..........................++++++  %%%%%%%%%%%",
"%%%%%%%%%%%%%  ++++++++++++++++++++++++++++++++    %%%%%%%%%%%%%",
"%%%%%%%%%%%%%  ++++++++++++++++++++++++++++++++    %%%%%%%%%%%%%",
"%%%%%%%%%%%%%  ++++++++++++++++++++++++++++++++    %%%%%%%%%%%%%",
"%%%%%%%%%%%%%  ++++++++++++++++++++++++++++++++    %%%%%%%%%%%%%",
"%%%%%%%%%%%%%%%                                %%%%%%%%%%%%%%%%%",
"%%%%%%%%%%%%%%%                                %%%%%%%%%%%%%%%%%",
"%%%%%%%%%%%%%%%%%%%%%%%%%%%%%%%%%%%%%%%%%%%%%%%%%%%%%%%%%%%%%%%%",
"%%%%%%%%%%%%%%%%%%%%%%%%%%%%%%%%%%%%%%%%%%%%%%%%%%%%%%%%%%%%%%%%",
"%%%%%%%%%%%%%%%%%%%%%%%%%%%%%%%%%%%%%%%%%%%%%%%%%%%%%%%%%%%%%%%%",
"%%%%%%%%%%%%%%%%%%%%%%%%%%%%%%%%%%%%%%%%%%%%%%%%%%%%%%%%%%%%%%%%",
"%%%%%%%%%%%%%%%%%%%%%%%%%%%%%%%%%%%%%%%%%%%%%%%%%%%%%%%%%%%%%%%%",
"%%%%%%%%%%%%%%%%%%%%%%%%%%%%%%%%%%%%%%%%%%%%%%%%%%%%%%%%%%%%%%%%",
"%%%%%%%%%%%%%%%%%%%%%%%%%%%%%%%%%%%%%%%%%%%%%%%%%%%%%%%%%%%%%%%%",
"%%%%%%%%%%%%%%%%%%%%%%%%%%%%%%%%%%%%%%%%%%%%%%%%%%%%%%%%%%%%%%%%",
"%%%%%%%%%%%%%%%%%%%%%%%%%%%%%%%%%%%%%%%%%%%%%%%%%%%%%%%%%%%%%%%%",
"%%%%%%%%%%%%%%%%%%%%%%%%%%%%%%%%%%%%%%%%%%%%%%%%%%%%%%%%%%%%%%%%"
};
