/* XPM */
static char *result[] = {
/* columns rows colors chars-per-pixel */
"64 64 8 1 ",
"  c #EAE178",
". c #5C4E92",
"X c #766DAA",
"o c #E8B5AC",
"O c #DDD5DE",
"+ c #F3D8C5",
"@ c #F3F2C0",
"# c None",
/* pixels */
"################################################################",
"################################################################",
"################################################################",
"################################################################",
"################################################################",
"################################################################",
"################################################################",
"################################################################",
"################################################################",
"################################################################",
"################################################################",
"################################################################",
"################################################################",
"################################################################",
"################################################################",
"################################################################",
"################################################################",
"################################################################",
"################################################################",
"##############################.....#############################",
"############################..@@@@@.############################",
"##########################....@oooo@...#########################",
"##########################....@oooo@...#########################",
"##########################....@oooo@...#########################",
"########################..@@@@@oooo@...#########################",
"########################..@@@@@@@@@@...#########################",
"########################..@@@@@@@@@@...#########################",
"########################..@@@@@@@@@@...#########################",
"########################..@@@@@@@@@@...#########################",
"#######################...@@@@@@@@@@....########################",
"#######################...@@@@@@@@@@....########################",
"#######################.@@@@..@@@@@@...#########################",
"#######################.@@@@@@@@@@@@....########################",
"#######################.@@@@@@@@@@@@....########################",
"#######################.@@@@@@@@@@@@....########################",
"#######################.@@@@@@++++@@...#########################",
"########################..XXXXXXXXX.############################",
"########################  XXXXXXXX@O...#########################",
"########################  XXXXXXXX@O...#########################",
"########################  XXXXXXXX@O...#########################",
"########################  ..@@@@@@@O...#########################",
"########################..@@@@@@@@..############################",
"########################..@@@@@@@@..############################",
"########################..OOOO......############################",
"########################..OOOO......############################",
"##########################....#....#############################",
"##########################....#....#############################",
"################################################################",
"################################################################",
"################################################################",
"################################################################",
"################################################################",
"################################################################",
"################################################################",
"################################################################",
"################################################################",
"################################################################",
"################################################################",
"################################################################",
"################################################################",
"################################################################",
"################################################################",
"################################################################",
"################################################################"
};
