/* XPM */
static char *result[] = {
/* columns rows colors chars-per-pixel */
"64 64 10 1 ",
"  c #5F7A79",
". c #90625D",
"X c #AA7959",
"o c #6E967C",
"O c #B68962",
"+ c #C49A6C",
"@ c #97BB8E",
"# c #AED499",
"$ c #C2E09A",
"% c None",
/* pixels */
"%%%%%%%%%%%%%%%%%%%%%%%%%%%%%%%%%%%%%%%%%%%%%%%%%%%%%%%%%%%%%%%%",
"%%%%%%%%%%%%%%%%%%%%%%%%%%%%%%%%%%%%%%%%%%%%%%%%%%%%%%%%%%%%%%%%",
"%%%%%%%%%%%%%%%%%%%%%%%                  %%%%%%%%%%%%%%%%%%%%%%%",
"%%%%%%%%%%%%%%%%%%%%%%%                  %%%%%%%%%%%%%%%%%%%%%%%",
"%%%%%%%%%%%%%%%%%%%    @@############@@@@  %%%%%%%%%%%%%%%%%%%%%",
"%%%%%%%%%%%%%%%%%%%    @@############@@@@  %%%%%%%%%%%%%%%%%%%%%",
"%%%%%%%%%%%%%%%    @@######$$$$$$##$$$$##@@    %%%%%%%%%%%%%%%%%",
"%%%%%%%%%%%%%%%    @@######$$$$$$##$$$$##@@    %%%%%%%%%%%%%%%%%",
"%%%%%%%%%%%%%  @@##########$$$$$$##$$$$####@@@@  %%%%%%%%%%%%%%%",
"%%%%%%%%%%%%%  @@##########$$$$$$##$$$$####@@@@  %%%%%%%%%%%%%%%",
"%%%%%%%%%%%  @@##$$$$$$##$$$$$$################@@  %%%%%%%%%%%%%",
"%%%%%%%%%%%  @@##$$$$$$##$$$$$$################@@  %%%%%%%%%%%%%",
"%%%%%%%%%  @@@@##$$$$$$$$$$$$######$$$$$$######@@@@  %%%%%%%%%%%",
"%%%%%%%%%  @@@@##$$$$$$$$$$$$######$$$$$$######@@@@  %%%%%%%%%%%",
"%%%%%%%%%  ##########$$$$##########$$$$$$$$$$$$@@@@  %%%%%%%%%%%",
"%%%%%%%%%  ##########$$$$##########$$$$$$$$$$$$@@@@  %%%%%%%%%%%",
"%%%%%%%  @@##############################$$$$$$####@@  %%%%%%%%%",
"%%%%%%%  @@##############################$$$$$$####@@  %%%%%%%%%",
"%%%%%%%  @@########################################@@  %%%%%%%%%",
"%%%%%%%  @@########################################@@  %%%%%%%%%",
"%%%%%%%  @@@@@@######@@@@############@@@@@@####@@@@@@  %%%%%%%%%",
"%%%%%%%  @@@@@@######@@@@############@@@@@@####@@@@@@  %%%%%%%%%",
"%%%%%%%  @@@@@@######@@@@############@@@@@@####@@@@  %%%%%%%%%%%",
"%%%%%%%  @@@@@@######@@@@############@@@@@@####@@@@  %%%%%%%%%%%",
"%%%%%%%  @@@@@@@@@@@@@@@@@@@@@@####@@######@@@@@@@@  %%%%%%%%%%%",
"%%%%%%%  @@@@@@@@@@@@@@@@@@@@@@####@@######@@@@@@@@  %%%%%%%%%%%",
"%%%%%%%%%  @@@@@@######@@@@@@@@@@@@@@@@@@@@@@@@@@@@@@  %%%%%%%%%",
"%%%%%%%%%  @@@@@@######@@@@@@@@@@@@@@@@@@@@@@@@@@@@@@  %%%%%%%%%",
"%%%%%%%%%  @@@@@@@@@@@@@@@@@@@@@@@@@@@@@@@@@@@@@@@@@@  %%%%%%%%%",
"%%%%%%%%%  @@@@@@@@@@@@@@@@@@@@@@@@@@@@@@@@@@@@@@@@@@  %%%%%%%%%",
"%%%%%%%  oo@@@@@@@@@@@@@@@@@@@@@@@@@@@@@@@@@@@@@@@@oo  %%%%%%%%%",
"%%%%%%%  oo@@@@@@@@@@@@@@@@@@@@@@@@@@@@@@@@@@@@@@@@oo  %%%%%%%%%",
"%%%%%%%  oooooo@@oooo@@@@oooooo@@@@@@@@@@oooooooooooo  %%%%%%%%%",
"%%%%%%%  oooooo@@oooo@@@@oooooo@@@@@@@@@@oooooooooooo  %%%%%%%%%",
"%%%%%%%  oooooo@@oooo@@@@oooooo@@@@@@@@@@oooooooooooo  %%%%%%%%%",
"%%%%%%%  oooooo@@oooo@@@@oooooo@@@@@@@@@@oooooooooooo  %%%%%%%%%",
"%%%%%%%  oooooooooooooooo@@@@@@@@@@oooooo@@@@@@oooo  %%%%%%%%%%%",
"%%%%%%%  oooooooooooooooo@@@@@@@@@@oooooo@@@@@@oooo  %%%%%%%%%%%",
"%%%%%%%%%  oooo@@@@@@oooooooooooooooooooooooooooooo  %%%%%%%%%%%",
"%%%%%%%%%  oooo@@@@@@oooooooooooooooooooooooooooooo  %%%%%%%%%%%",
"%%%%%%%%%  oooooooooooooooooooooooooooooooooooooooo  %%%%%%%%%%%",
"%%%%%%%%%  oooooooooooooooooooooooooooooooooooooooo  %%%%%%%%%%%",
"%%%%%%%%%%%  oooooooooooooooooooooooooooooooooooo  %%%%%%%%%%%%%",
"%%%%%%%%%%%  oooooooooooooooooooooooooooooooooooo  %%%%%%%%%%%%%",
"%%%%%%%%%%%%%    oooooooooooooooooooooooooo      %%%%%%%%%%%%%%%",
"%%%%%%%%%%%%%    oooooooooooooooooooooooooo      %%%%%%%%%%%%%%%",
"%%%%%%%%%%%%%%%%%                          %%%%%%%%%%%%%%%%%%%%%",
"%%%%%%%%%%%%%%%%%                          %%%%%%%%%%%%%%%%%%%%%",
"%%%%%%%%%%%%%%%%%%%%%%%..XXXXXXXXXXXX..%%%%%%%%%%%%%%%%%%%%%%%%%",
"%%%%%%%%%%%%%%%%%%%%%%%..XXXXXXXXXXXX..%%%%%%%%%%%%%%%%%%%%%%%%%",
"%%%%%%%%%%%%%%%%%%%%%%%..OOXXXXXXXXOO..%%%%%%%%%%%%%%%%%%%%%%%%%",
"%%%%%%%%%%%%%%%%%%%%%%%..OOXXXXXXXXOO..%%%%%%%%%%%%%%%%%%%%%%%%%",
"%%%%%%%%%%%%%%%%%%%%%%%..OOOOOOOOOOOO..%%%%%%%%%%%%%%%%%%%%%%%%%",
"%%%%%%%%%%%%%%%%%%%%%%%..OOOOOOOOOOOO..%%%%%%%%%%%%%%%%%%%%%%%%%",
"%%%%%%%%%%%%%%%%%%%%%%%..OO++OO++++++..%%%%%%%%%%%%%%%%%%%%%%%%%",
"%%%%%%%%%%%%%%%%%%%%%%%..OO++OO++++++..%%%%%%%%%%%%%%%%%%%%%%%%%",
"%%%%%%%%%%%%%%%%%%%%%..++++++++++++++++..%%%%%%%%%%%%%%%%%%%%%%%",
"%%%%%%%%%%%%%%%%%%%%%..++++++++++++++++..%%%%%%%%%%%%%%%%%%%%%%%",
"%%%%%%%%%%%%%%%%%%%%%%%++++++++++++++++%%%%%%%%%%%%%%%%%%%%%%%%%",
"%%%%%%%%%%%%%%%%%%%%%%%++++++++++++++++%%%%%%%%%%%%%%%%%%%%%%%%%",
"%%%%%%%%%%%%%%%%%%%%%%%%%%%%%++++%%%%%%%%%%%%%%%%%%%%%%%%%%%%%%%",
"%%%%%%%%%%%%%%%%%%%%%%%%%%%%%++++%%%%%%%%%%%%%%%%%%%%%%%%%%%%%%%",
"%%%%%%%%%%%%%%%%%%%%%%%%%%%%%%%%%%%%%%%%%%%%%%%%%%%%%%%%%%%%%%%%",
"%%%%%%%%%%%%%%%%%%%%%%%%%%%%%%%%%%%%%%%%%%%%%%%%%%%%%%%%%%%%%%%%"
};
