/* XPM */
static char *result[] = {
/* columns rows colors chars-per-pixel */
"64 64 8 1 ",
"  c #EAE178",
". c #5C4E92",
"X c #766DAA",
"o c #E8B5AC",
"O c #DDD5DE",
"+ c #F3D8C5",
"@ c #F3F2C0",
"# c None",
/* pixels */
"################################################################",
"################################################################",
"################################################################",
"################################################################",
"################################################################",
"################################################################",
"################################################################",
"################################################################",
"################################################################",
"################################################################",
"################################################################",
"################################################################",
"################################################################",
"################################################################",
"################################################################",
"################################################################",
"################################################################",
"################################################################",
"################################################################",
"################################################################",
"################################################################",
"################################################################",
"#####################.......#########.......####################",
"#####################.......#########.......####################",
"#####################.......#########.......####################",
"###################..@@@@@@@..#####..@@@@@@@..##################",
"###################..@@@@@@@..#####..@@@@@@@..##################",
"###################..ooooo@@.........@@ooooo..##################",
"###################..ooooo@@.........@@ooooo..##################",
"###################..ooooo@@OOOOOOOOO@@ooooo..##################",
"###################..ooooo@@OOOOOOOOO@@ooooo..##################",
"###################..@@@@@@@OOOOOOOOO@@@@@@@..##################",
"###################..@@@@@@@OOOOOOOOO@@@@@@@..##################",
"###################..@@@@@@@OOOOOOOOO@@@@@@@..##################",
"###################..@@@@@@@OOOOOOOOO@@@@@@@..##################",
"###################..@@@@@@@OOOOOOOOO@@@@@@@..##################",
"#################....@@@@@@@@@@@@@@@@@@@@@@@....################",
"#################....@@@@@@@@@@@@@@@@@@@@@@@....################",
"###################..@@@..@@@@@@@@@@@@@...@@..##################",
"###################..@@@..@@@@@@@@@@@@@...@@..##################",
"#################....@@@@@@@@@@@@@@@@@@@@@@@....################",
"#################....@@@@@@@@@@@@@@@@@@@@@@@....################",
"#################....@@@@@@@@@@@@@@@@@@@@@@@....################",
"###################..+++++@@@@@@@@@@@@@+++++..##################",
"###################..+++++@@@@@@@@@@@@@+++++..##################",
"#####################.....XXXXXXXXXXXXX.....####################",
"#####################.....XXXXXXXXXXXXX.....####################",
"###################..OOO@@XXXX   @@XXXX@@@OO..##################",
"###################..OOO@@XXXX   @@XXXX@@@OO..##################",
"###################..OOO@@@@@@     @@@@@@@OO..##################",
"###################..OOO@@@@@@     @@@@@@@OO..##################",
"###################..OOO@@@@@@     @@@@@@@OO..##################",
"#####################.....@@@@@@@@@@@@@.....####################",
"#####################.....@@@@@@@@@@@@@.....####################",
"########################..OOOO.....OOOO...######################",
"########################..OOOO.....OOOO...######################",
"##########################....#####....#########################",
"##########################....#####....#########################",
"################################################################",
"################################################################",
"################################################################",
"################################################################",
"################################################################",
"################################################################"
};
