/* XPM */
static char *result[] = {
/* columns rows colors chars-per-pixel */
"64 64 13 1 ",
"  c #262446",
". c #393468",
"X c #424C64",
"o c #4C468B",
"O c #555793",
"+ c #5F699C",
"@ c #647295",
"# c #7180B1",
"$ c #8599C7",
"% c #B6CAD4",
"& c #CBE0DE",
"* c #F3F4E7",
"= c None",
/* pixels */
"================================================================",
"================================================================",
"================================================================",
"================================================================",
"================================================================",
"================================================================",
"================================================================",
"================================================================",
"================================================================",
"================================================================",
"================================================================",
"================================================================",
"================================================================",
"================================================================",
"================================================================",
"================================================================",
"================================================================",
"================================================================",
"================================================================",
"================================================================",
"================================================================",
"================================================================",
"================================================================",
"================================================================",
"================================================================",
"================================================================",
"================================================================",
"==========================OOOOOOOOOOoo==========================",
"==========================OOOOOOOOOOoo==========================",
"========================OO$$$$$$$$####oo========================",
"========================OO$$$$$$$$####. ========================",
"==========================oooooooooooo==========================",
"==========================oooooooooooo==========================",
"========================$$&&**&&&&&&%%@X========================",
"========================$$&&**&&&&&&%%$$========================",
"========================$$**&&&&&&&&%%$$========================",
"========================$$**&&&&&&&&%%$$========================",
"========================$$&&&&&&&&&&%%$$========================",
"========================$$&&&&&&&&&&%%$$========================",
"======================$$&&&&&&&&&&&&%%%%##======================",
"======================$$&&&&&&&&&&&&%%%%##======================",
"======================$$&&&&&&&&&&&&%%%%##======================",
"======================$$&&&&&&&&&&&&%%%%##======================",
"======================##&&&&&&&&&&&&%%%%++======================",
"======================##&&&&&&&&&&&&%%%%++======================",
"======================##&&&&&&&&&&&&%%%%++======================",
"======================##&&&&&&&&&&&&%%%%++======================",
"======================##&&&&&&&&&&%%%%%%++======================",
"======================##&&&&&&&&&&%%%%%%++======================",
"======================++&&&&%%%%%%%%%%%%++======================",
"======================++&&&&%%%%%%%%%%%%++======================",
"========================++++++++++++++++========================",
"========================++++++++++++++++========================",
"================================================================",
"================================================================",
"================================================================",
"================================================================",
"================================================================",
"================================================================",
"================================================================",
"================================================================",
"================================================================",
"================================================================",
"================================================================"
};
