/* XPM */
static char *result[] = {
/* columns rows colors chars-per-pixel */
"64 64 241 2 ",
"   c #000001",
".  c #000001",
"X  c #000102",
"o  c #000103",
"O  c #000204",
"+  c #000205",
"@  c #000206",
"#  c #000307",
"$  c #000308",
"%  c #000409",
"&  c #00040A",
"*  c #00040B",
"=  c #00050B",
"-  c #00050C",
";  c #00050D",
":  c #00060D",
">  c #00060E",
",  c #00070F",
"<  c #000710",
"1  c #000711",
"2  c #000712",
"3  c #000811",
"4  c #000812",
"5  c #000912",
"6  c #000913",
"7  c #000914",
"8  c #000A15",
"9  c #000B16",
"0  c #000B17",
"q  c #000C17",
"w  c #000C18",
"e  c #000D19",
"r  c #000D1A",
"t  c #000E1B",
"y  c #000F1C",
"u  c #000F1D",
"i  c #00101E",
"p  c #00111E",
"a  c #00101F",
"s  c #00111F",
"d  c #001120",
"f  c #001320",
"g  c #001221",
"h  c #001321",
"j  c #001222",
"k  c #001322",
"l  c #001323",
"z  c #001421",
"x  c #001423",
"c  c #001424",
"v  c #001524",
"b  c #001525",
"n  c #001526",
"m  c #001626",
"M  c #001727",
"N  c #001828",
"B  c #001829",
"V  c #00192A",
"C  c #001A2B",
"Z  c #001A2C",
"A  c #001B2D",
"S  c #001C2F",
"D  c #001C30",
"F  c #001D30",
"G  c #001D31",
"H  c #001E31",
"J  c #001F34",
"K  c #002034",
"L  c #002035",
"P  c #002135",
"I  c #002136",
"U  c #002137",
"Y  c #002237",
"T  c #002238",
"R  c #00243A",
"E  c #00253C",
"W  c #00273F",
"Q  c #002841",
"!  c #002C46",
"~  c #00314D",
"^  c #00324F",
"/  c #003350",
"(  c #003351",
")  c #003553",
"_  c #013654",
"`  c #013857",
"'  c #013858",
"]  c #003859",
"[  c #013959",
"{  c #013D5E",
"}  c #013E5F",
"|  c #013F62",
" . c #014164",
".. c #014469",
"X. c #01456A",
"o. c #01466B",
"O. c #01466C",
"+. c #01476D",
"@. c #01486D",
"#. c #01486F",
"$. c #014970",
"%. c #014971",
"&. c #014A72",
"*. c #014B72",
"=. c #014B73",
"-. c #014B74",
";. c #014C75",
":. c #014D75",
">. c #014D76",
",. c #014E77",
"<. c #014F78",
"1. c #014F79",
"2. c #01507A",
"3. c #02517C",
"4. c #01527C",
"5. c #01527D",
"6. c #015480",
"7. c #015682",
"8. c #015683",
"9. c #015784",
"0. c #015885",
"q. c #015886",
"w. c #015987",
"e. c #015988",
"r. c #015A88",
"t. c #025E8E",
"y. c #025F90",
"u. c #026193",
"i. c #016295",
"p. c #026294",
"a. c #026295",
"s. c #026396",
"d. c #026497",
"f. c #026498",
"g. c #026699",
"h. c #02689D",
"j. c #026AA0",
"k. c #026CA2",
"l. c #026CA3",
"z. c #026DA3",
"x. c #026EA5",
"c. c #026EA6",
"v. c #026FA7",
"b. c #0270A7",
"n. c #0270A8",
"m. c #0270A9",
"M. c #0271AA",
"N. c #0272AB",
"B. c #0273AC",
"V. c #0273AD",
"C. c #0275AF",
"Z. c #0275B0",
"A. c #0276B1",
"S. c #0277B4",
"D. c #0378B4",
"F. c #0378B5",
"G. c #0379B5",
"H. c #037AB6",
"J. c #037AB7",
"K. c #037CB9",
"L. c #037DBB",
"P. c #037EBC",
"I. c #037FBE",
"U. c #0383C3",
"Y. c #0383C4",
"T. c #0384C5",
"R. c #0384C6",
"E. c #0385C6",
"W. c #0385C7",
"Q. c #0386C7",
"!. c #0385C8",
"~. c #0386C8",
"^. c #0387C8",
"/. c #0386C9",
"(. c #0387CA",
"). c #0389CC",
"_. c #0389CD",
"`. c #038ACD",
"'. c #038ACE",
"]. c #038ACF",
"[. c #038BD0",
"{. c #048BD0",
"}. c #048CD1",
"|. c #048DD2",
" X c #048DD3",
".X c #048ED4",
"XX c #048FD5",
"oX c #0490D6",
"OX c #0491D7",
"+X c #0491D8",
"@X c #0493DB",
"#X c #0494DC",
"$X c #0494DD",
"%X c #0495DD",
"&X c #0495DE",
"*X c #0496E0",
"=X c #0497E1",
"-X c #0498E2",
";X c #0499E2",
":X c #0499E3",
">X c #049AE5",
",X c #049BE6",
"<X c #059BE7",
"1X c #059CE8",
"2X c #059DE9",
"3X c #059DEA",
"4X c #059EEA",
"5X c #059EEB",
"6X c #059FEC",
"7X c #059FED",
"8X c #05A0ED",
"9X c #05A0EE",
"0X c #05A1EE",
"qX c #05A1EF",
"wX c #05A1F0",
"eX c #05A2F0",
"rX c #05A2F1",
"tX c #05A3F1",
"yX c #05A3F2",
"uX c #05A3F3",
"iX c #05A4F3",
"pX c #05A4F4",
"aX c #05A5F4",
"sX c #05A5F5",
"dX c #05A5F6",
"fX c #05A6F6",
"gX c #05A6F7",
"hX c #05A7F7",
"jX c #05A7F8",
"kX c #05A8F9",
"lX c #05A8FA",
"zX c #05A9FA",
"xX c #05A9FB",
"cX c #05AAFC",
"vX c #06ABFD",
"bX c #06ABFE",
"nX c #06ACFE",
"mX c #06ACFF",
"MX c #06ADFF",
"NX c #06AEFF",
"BX c None",
/* pixels */
"BXBXBXBXBXBXBXBXBXBXBXBXBXBXBXBXBXBXBXBXBXBXBXBXBXBXBXBXBXBXBXBXBXBXBXBXBXBXBXBXBXBXBXBXBXBXBXBXBXBXBXBXBXBXBXBXBXBXBXBXBXBXBXBX",
"BXBXBXBXBXBXBXBXBXBXBXBXBXBXBXBXBXBXBXBXBXBXBXBXBXBXBXBXBXBXBXBXBXBXBXBXBXBXBXBXBXBXBXBXBXBXBXBXBXBXBXBXBXBXBXBXBXBXBXBXBXBXBXBX",
"BXBXBXBXBXBXBXBXBXBXBXBXBXBXBXBXBXBXBXBXBXBXBXBXBXBXBXBXBXBXBXBXBXBXBXBXBXBXBXBXBXBXBXBXBXBXBXBXBXBXBXBXBXBXBXBXBXBXBXBXBXBXBXBX",
"BXBXBXBXBXBXBXBXBXBXBXBXBXBXBXBXBXBXBXBXBXBXBXBXBXBXBXBXBXBXBXBXBXBXBXBXBXBXBXBXBXBXBXBXBXBXBXBXBXBXBXBXBXBXBXBXBXBXBXBXBXBXBXBX",
"BXBXBXBXBXBXBXBXBXBXBXBXBXBXBXBXBXBXBXBXBXBXBXBXBXBXBXBXBXBXBXBXBXBXBXBXBXBXBXBXBXBXBXBXBXBXBXBXBXBXBXBXBXBXBXBXBXBXBXBXBXBXBXBX",
"BXBXBXBXBXBXBXBXBXBXBXBXBXBXBXBXBXBXBXBXBXBXBXBXBXBXBXBXBXBXBXBXBXBXBXBXBXBXBXBXBXBXBXBXBXBXBXBXBXBXBXBXBXBXBXBXBXBXBXBXBXBXBXBX",
"BXBXBXBXBXBXBXBXBXBXBXBXBXBXBXBXBXBXBXBXBXBXBXBXBXBXBXBXBXBXBXBXBXBXBXBXBXBXBXBXBXBXBXBXBXBXBXBXBXBXBXBXBXBXBXBXBXBXBXBXBXBXBXBX",
"BXBXBXBXBXBXBXBXBXBXBXBXBXBXBXBXBXBXBXBXBXBXBXBXBXBXBXBXBXBXBXBXBXBXBXBXBXBXBXBXBXBXBXBXBXBXBXBXBXBXBXBXBXBXBXBXBXBXBXBXBXBXBXBX",
"BXBXBXBXBXBXBXBXBXBXBXBXBXBXBXBXBXBXBXBXBXBXBXBXBXBXBXBXBXBXBXBXBXBXBXBXBXBXBXBXBXBXBXBXBXBXBXBXBXBXBXBXBXBXBXBXBXBXBXBXBXBXBXBX",
"BXBXBXBXBXBXBXBXBXBXBXBXBXBXBXBXBXBXBXBXBXBXBXBXBXBXBXBXBXBXBXBXBXBXBXBXBXBXBXBXBXBXBXBXBXBXBXBXBXBXBXBXBXBXBXBXBXBXBXBXBXBXBXBX"
"BXBXBXBXBXBXBXBXBXBXBXBXBXBXBXBXBXBXBXBXBXBXBXBXBXBXBXBXBXBXBXBXBXBXBXBX          BXBXBXBXBXBXBXBXBXBXBXBXBXBXBXBXBXBXBXBXBXBXBX",
"BXBXBXBXBXBXBXBXBXBXBXBXBXBXBXBXBXBXBXBXBXBXBXBXBXBXBXBXBXBXBXBXBXBXBXBXa i i s y BXBXBXBXBXBXBXBXBXBXBXBXBXBXBXBXBXBXBXBXBXBXBX",
"BXBXBXBXBXBXBXBXBXBXBXBXBXBXBXBXBXBXBXBXBXBXBXBXBXBXBXBXBXBXBXBXBXBXBXBX          BXBXBXBXBXBXBXBXBXBXBXBXBXBXBXBXBXBXBXBXBXBXBX",
"BXBXBXBXBXBXBXBXBXBXBXBXBXBXBXBXBXBXBXBXBXBXBXBXBXBXBXBXBXBXBXBXBXBXBXBXe.0.q.r.9.BXBXBXBXBXBXBXBXBXBXBXBXBXBXBXBXBXBXBXBXBXBXBX",
"BXBXBXBXBXBXBXBXBXBXBXBXBXBXBXBXBXBXBXBXBXBXBXBXBXBXBXBXBXBXBXBXBXd   -.kXgXgXlX9XU   2 BXBXBXBXBXBXBXBXBXBXBXBXBXBXBXBXBXBXBXBX",
"BXBXBXBXBXBXBXBXBXBXBXBXBXBXBXBXBXBXBXBXBXBXBXBXBXBXBXBXBXBXBXBXBX0   #.uXrXeXiX<XP   4 BXBXBXBXBXBXBXBXBXBXBXBXBXBXBXBXBXBXBXBX",
"BXBXBXBXBXBXBXBXBXBXBXBXBXBXBXBXBXBXBXBXBXBXBXBXBXBXBXBXBXBXBXBXBXz   %.pXtXrXpX1XP   3 BXBXBXBXBXBXBXBXBXBXBXBXBXBXBXBXBXBXBXBX",
"BXBXBXBXBXBXBXBXBXBXBXBXBXBXBXBXBXBXBXBXBXBXBXBXBXBXBXBXBXBXBXr   !.2X>XyXyXtXaX1XL   *     BXBXBXBXBXBXBXBXBXBXBXBXBXBXBXBXBXBX",
"BXBXBXBXBXBXBXBXBXBXBXBXBXBXBXBXBXBXBXBXBXBXBXBXBXBXBXBXBXBXBXD   XXcXiXyXyXeXyX,XK   &     BXBXBXBXBXBXBXBXBXBXBXBXBXBXBXBXBXBX",
"BXBXBXBXBXBXBXBXBXBXBXBXBXBXBXBXBXBXBXBXBXBXBXBXBXBXBXBXBXBXBX    '.jXwXyXtXfXvXeXY   =     BXBXBXBXBXBXBXBXBXBXBXBXBXBXBXBXBXBX",
"BXBXBXBXBXBXBXBXBXBXBXBXBXBXBXBXBXBXBXBXBXBXBXBXBXBXBXBXBX  3.I.A.:XsXtXrXfX).m.n.x   O         BXBXBXBXBXBXBXBXBXBXBXBXBXBXBXBX",
"BXBXBXBXBXBXBXBXBXBXBXBXBXBXBXBXBXBXBXBXBXBXBXBXBXBXBXBXV   u.MXkXaXtXyXqXkXd.      . ; e q w r q BXBXBXBXBXBXBXBXBXBXBXBXBXBXBX",
"BXBXBXBXBXBXBXBXBXBXBXBXBXBXBXBXBXBXBXBXBXBXBXBXBXBXBXBX    7.fX0XtXyXuXsXbXx.  F   %             BXBXBXBXBXBXBXBXBXBXBXBXBXBXBX",
"BXBXBXBXBXBXBXBXBXBXBXBXBXBXBXBXBXBXBXBXBXBXBXBXBXBXBXBX$.| k.gXrXyXuXqX#X>Xu.  u $   ~ &.+.@.;...BXBXBXBXBXBXBXBXBXBXBXBXBXBXBX",
"BXBXBXBXBXBXBXBXBXBXBXBXBXBXBXBXBXBXBXBXBXBXBXBXBXBX-   *XjXyXyXyXrXfX%X      O   c   Z.cXyXyXxX/.  l BXBXBXBXBXBXBXBXBXBXBXBXBX",
"BXBXBXBXBXBXBXBXBXBXBXBXBXBXBXBXBXBXBXBXBXBXBXBXBXBX8   &XfXrXyXyXeXdX%X  % O   . M   C.lXeXeXkXW.  m BXBXBXBXBXBXBXBXBXBXBXBXBX",
"BXBXBXBXBXBXBXBXBXBXBXBXBXBXBXBXBXBXBXBXBXBXBXBXBXBX    $XfXrXyXyXpXzX=X  ; @ X       N.lXwXeXkXY.    BXBXBXBXBXBXBXBXBXBXBXBXBX",
"BXBXBXBXBXBXBXBXBXBXBXBXBXBXBXBXBXBXBXBXBXBXBXj   g.-XOX9XiXyXrXfXb.$.*.  . :   ! XX+X>XpXyXyXiX2XoX$X>.  s BXBXBXBXBXBXBXBXBXBX",
"BXBXBXBXBXBXBXBXBXBXBXBXBXBXBXBXBXBXBXBXBXBXBXG   n.MXdXiXyXtXqXfX6.    o   g   ' iXkXaXtXyXyXtXpXgXzX4.  i BXBXBXBXBXBXBXBXBXBX",
"BXBXBXBXBXBXBXBXBXBXBXBXBXBXBXBXBXBXBXBXBXBXBX    f.kXqXyXtXpXkXmXy.  N   ,     x 6XyXrXyXyXyXyXtXeXpX1.  i BXBXBXBXBXBXBXBXBXBX",
"BXBXBXBXBXBXBXBXBXBXBXBXBXBXBXBXBXBXBXBXBXBXBXz.j.^.fXrXtXsX>XK.U.X.  6 3   8.v.B.qXuXyXyXyXyXyXyXtXsX<.  a BXBXBXBXBXBXBXBXBXBX",
"BXBXBXBXBXBXBXBXBXBXBXBXBXBXBXBXBXBXBXBXt   E rXbXfXrXyXeXjX`.      ;   N   ~.NXhXyXyXyXyXyXyXyXyXrXsX<.  a BXBXBXBXBXBXBXBXBXBX",
"BXBXBXBXBXBXBXBXBXBXBXBXBXBXBXBXBXBXBXBXBX  s ,XyXeXyXyXuXxX.X  A >         I.jX0XyXyXyXyXyXyXyXiXpXjX2.  p BXBXBXBXBXBXBXBXBXBX",
"BXBXBXBXBXBXBXBXBXBXBXBXBXBXBXBXBXBXBXBX( ) } 2XpXtXyXyX1X7X~.  r O   g [ A E.kXeXyXyXyXyXyXyXuX9X,X5X,.  a BXBXBXBXBXBXBXBXBXBX",
"BXBXBXBXBXBXBXBXBXBXBXBXBXBXBXBXBXBXc   F.gX7XyXyXyXyXpX>.  S   . w   +.eX9XeXyXyXyXyXyXyXyXeXkX~.  R BXBXBXBXBXBXBXBXBXBXBXBXBX",
"BXBXBXBXBXBXBXBXBXBXBXBXBXBXBXBXBXBXA   J.xXrXyXyXrXeXyXo.  @ X   x   *.sXiXyXyXyXyXyXyXyXyXqXjXT.  ; BXBXBXBXBXBXBXBXBXBXBXBXBX",
"BXBXBXBXBXBXBXBXBXBXBXBXBXBXBXBXBXBX    Z.lXwXyXtXaXkXzX=.  y   &     { iXtXyXyXyXyXyXyXyXyXfXMX'.  n BXBXBXBXBXBXBXBXBXBXBXBXBX",
"BXBXBXBXBXBXBXBXBXBXBXBXBXBXBXBX  ] _.(.=XaXtXrXhX|.0.p.W   % 7   A.{. XuXyXyXyXyXyXyXyXyXrXj.a.w.BXBXBXBXBXBXBXBXBXBXBXBXBXBXBX",
"BXBXBXBXBXBXBXBXBXBXBXBXBXBXBXV    .gXzXsXtXyX0XjXP.      + - A   OXmXfXyXyXyXyXyXyXyXrXrX9XQ     BXBXBXBXBXBXBXBXBXBXBXBXBXBXBX",
"BXBXBXBXBXBXBXBXBXBXBXBXBXBXBX    Q 9XrXrXyXyXfXMXQ.  F @ &       _.gXqXyXyXyXyXyXyXtXsXzXgX .  V BXBXBXBXBXBXBXBXBXBXBXBXBXBXBX",
"BXBXBXBXBXBXBXBXBXBXBXBXBXBXBXw.a.j.rXyXyXyXrX].|.l.  e -   / s.r.#XfXrXyXyXyXyXyXtXaX=X(._.]   BXBXBXBXBXBXBXBXBXBXBXBXBXBXBXBX",
"BXBXBXBXBXBXBXBXBXBXBXBXBXk   '.MXfXyXyXtXiX8XS     :   h   t.bXjXpXyXyXyXyXyXyXyXqXlXZ.    BXBXBXBXBXBXBXBXBXBXBXBXBXBXBXBXBXBX",
"BXBXBXBXBXBXBXBXBXBXBXBXBXs   E.jXqXyXyXyXaXqX_   y   . ;   w.fXqXtXyXyXyXyXyXyXyXrXxXJ.  A BXBXBXBXBXBXBXBXBXBXBXBXBXBXBXBXBXBX",
"BXBXBXBXBXBXBXBXBXBXBXBXBXd   E.kXeXyXyXeXwX4X^   3     J   t.hXrXyXyXyXyXyXyXyXyX7XgXF.  c BXBXBXBXBXBXBXBXBXBXBXBXBXBXBXBXBXBX",
"BXBXBXBXBXBXBXBXBXBXBXBXBXd   E.kXeXeXkXH.C ` 8   + #   .X5X2XyXyXyXyXyXyXyXtXpX2X} ) ( BXBXBXBXBXBXBXBXBXBXBXBXBXBXBXBXBXBXBXBX",
"BXBXBXBXBXBXBXBXBXBXBXBXBXs   R.hX0X9XjXN.        7 v   =XkXiXyXyXyXyXyXyXyXeXyX,Xs   BXBXBXBXBXBXBXBXBXBXBXBXBXBXBXBXBXBXBXBXBX",
"BXBXBXBXBXBXBXBXBXBXBXBXBXk   [.NXjXjXNXG.  B   ,       @XfXeXyXyXyXyXyXyXrXfXbXrXE   t BXBXBXBXBXBXBXBXBXBXBXBXBXBXBXBXBXBXBXBX",
"BXBXBXBXBXBXBXBXBXBXBXBXBXBXBXi.V.z.l.M.:.  4 9   5.Y.L.3XpXyXyXyXyXyXyXrXfX^.j.z.BXBXBXBXBXBXBXBXBXBXBXBXBXBXBXBXBXBXBXBXBXBXBX",
"BXBXBXBXBXBXBXBXBXBXBXBXBXBXBX            <   Z   v.NXjXiXyXyXyXyXyXyXyXqXkXf.    BXBXBXBXBXBXBXBXBXBXBXBXBXBXBXBXBXBXBXBXBXBXBX",
"BXBXBXBXBXBXBXBXBXBXBXBXBXBXBXf b k k c 8         g.jX9XyXyXyXyXyXyXyXiXdXMXn.  G BXBXBXBXBXBXBXBXBXBXBXBXBXBXBXBXBXBXBXBXBXBXBX",
"BXBXBXBXBXBXBXBXBXBXBXBXBXBXBX          X   8 <.O.H.jXrXyXyXyXyXyXyXiX9XOX-Xg.  j BXBXBXBXBXBXBXBXBXBXBXBXBXBXBXBXBXBXBXBXBXBXBX",
"BXBXBXBXBXBXBXBXBXBXBXBXBXBXBXBXBXBX    *   I 6XjXpXyXyXyXyXyXyXyXrXfX$X    BXBXBXBXBXBXBXBXBXBXBXBXBXBXBXBXBXBXBXBXBXBXBXBXBXBX",
"BXBXBXBXBXBXBXBXBXBXBXBXBXBXBXBXBXBX    &   K 1XpXrXyXyXyXyXyXyXyXrXfX&X  8 BXBXBXBXBXBXBXBXBXBXBXBXBXBXBXBXBXBXBXBXBXBXBXBXBXBX",
"BXBXBXBXBXBXBXBXBXBXBXBXBXBXBXBXBXBX    &   L 1XpXrXyXyXyXyXyXyXyXyXjX*X  - BXBXBXBXBXBXBXBXBXBXBXBXBXBXBXBXBXBXBXBXBXBXBXBXBXBX",
"BXBXBXBXBXBXBXBXBXBXBXBXBXBXBXBXBXBXBXBX1   P 1XaXtXyXyXyXyXyXrXgXk.| $.BXBXBXBXBXBXBXBXBXBXBXBXBXBXBXBXBXBXBXBXBXBXBXBXBXBXBXBX",
"BXBXBXBXBXBXBXBXBXBXBXBXBXBXBXBXBXBXBXBXBX  L ,XyXeXyXyXyXyXtX0XfX7.    BXBXBXBXBXBXBXBXBXBXBXBXBXBXBXBXBXBXBXBXBXBXBXBXBXBXBXBX",
"BXBXBXBXBXBXBXBXBXBXBXBXBXBXBXBXBXBXBXBX5   T rXnXfXrXyXyXtXaXkXMXu.  V BXBXBXBXBXBXBXBXBXBXBXBXBXBXBXBXBXBXBXBXBXBXBXBXBXBXBXBX",
"BXBXBXBXBXBXBXBXBXBXBXBXBXBXBXBXBXBXBXBXBX  K S.D.}.dXrXtXsX:XA.I.3.  BXBXBXBXBXBXBXBXBXBXBXBXBXBXBXBXBXBXBXBXBXBXBXBXBXBXBXBXBX",
"BXBXBXBXBXBXBXBXBXBXBXBXBXBXBXBXBXBXBXBXBXBXBX    f.kXqXwXjX'.    BXBXBXBXBXBXBXBXBXBXBXBXBXBXBXBXBXBXBXBXBXBXBXBXBXBXBXBXBXBXBX",
"BXBXBXBXBXBXBXBXBXBXBXBXBXBXBXBXBXBXBXBXBXBXBXH   c.bXpXpXcXXX  D BXBXBXBXBXBXBXBXBXBXBXBXBXBXBXBXBXBXBXBXBXBXBXBXBXBXBXBXBXBXBX",
"BXBXBXBXBXBXBXBXBXBXBXBXBXBXBXBXBXBXBXBXBXBXBXk   h.5X-X;X3X!.  r BXBXBXBXBXBXBXBXBXBXBXBXBXBXBXBXBXBXBXBXBXBXBXBXBXBXBXBXBXBXBX",
"BXBXBXBXBXBXBXBXBXBXBXBXBXBXBXBXBXBXBXBXBXBXBXBXBXBX> ; ; > : BXBXBXBXBXBXBXBXBXBXBXBXBXBXBXBXBXBXBXBXBXBXBXBXBXBXBXBXBXBXBXBXBX",
"BXBXBXBXBXBXBXBXBXBXBXBXBXBXBXBXBXBXBXBXBXBXBXBXBXBX          BXBXBXBXBXBXBXBXBXBXBXBXBXBXBXBXBXBXBXBXBXBXBXBXBXBXBXBXBXBXBXBXBX",
"BXBXBXBXBXBXBXBXBXBXBXBXBXBXBXBXBXBXBXBXBXBXBXBXBXBX$ $ $ $ $ BXBXBXBXBXBXBXBXBXBXBXBXBXBXBXBXBXBXBXBXBXBXBXBXBXBXBXBXBXBXBXBXBX",
};
