/* XPM */
static char *result[] = {
/* columns rows colors chars-per-pixel */
"64 64 241 2 ",
"   c #000001",
".  c #000001",
"X  c #000102",
"o  c #000103",
"O  c #000204",
"+  c #000205",
"@  c #000206",
"#  c #000307",
"$  c #000308",
"%  c #000409",
"&  c #00040A",
"*  c #00040B",
"=  c #00050B",
"-  c #00050C",
";  c #00050D",
":  c #00060D",
">  c #00060E",
",  c #00070F",
"<  c #000710",
"1  c #000711",
"2  c #000712",
"3  c #000811",
"4  c #000812",
"5  c #000912",
"6  c #000913",
"7  c #000914",
"8  c #000A15",
"9  c #000B16",
"0  c #000B17",
"q  c #000C17",
"w  c #000C18",
"e  c #000D19",
"r  c #000D1A",
"t  c #000E1B",
"y  c #000F1C",
"u  c #000F1D",
"i  c #00101E",
"p  c #00111E",
"a  c #00101F",
"s  c #00111F",
"d  c #001120",
"f  c #001320",
"g  c #001221",
"h  c #001321",
"j  c #001222",
"k  c #001322",
"l  c #001323",
"z  c #001421",
"x  c #001423",
"c  c #001424",
"v  c #001524",
"b  c #001525",
"n  c #001526",
"m  c #001626",
"M  c #001727",
"N  c #001828",
"B  c #001829",
"V  c #00192A",
"C  c #001A2B",
"Z  c #001A2C",
"A  c #001B2D",
"S  c #001C2F",
"D  c #001C30",
"F  c #001D30",
"G  c #001D31",
"H  c #001E31",
"J  c #001F34",
"K  c #002034",
"L  c #002035",
"P  c #002135",
"I  c #002136",
"U  c #002137",
"Y  c #002237",
"T  c #002238",
"R  c #00243A",
"E  c #00253C",
"W  c #00273F",
"Q  c #002841",
"!  c #002C46",
"~  c #00314D",
"^  c #00324F",
"/  c #003350",
"(  c #003351",
")  c #003553",
"_  c #013654",
"`  c #013857",
"'  c #013858",
"]  c #003859",
"[  c #013959",
"{  c #013D5E",
"}  c #013E5F",
"|  c #013F62",
" . c #014164",
".. c #014469",
"X. c #01456A",
"o. c #01466B",
"O. c #01466C",
"+. c #01476D",
"@. c #01486D",
"#. c #01486F",
"$. c #014970",
"%. c #014971",
"&. c #014A72",
"*. c #014B72",
"=. c #014B73",
"-. c #014B74",
";. c #014C75",
":. c #014D75",
">. c #014D76",
",. c #014E77",
"<. c #014F78",
"1. c #014F79",
"2. c #01507A",
"3. c #02517C",
"4. c #01527C",
"5. c #01527D",
"6. c #015480",
"7. c #015682",
"8. c #015683",
"9. c #015784",
"0. c #015885",
"q. c #015886",
"w. c #015987",
"e. c #015988",
"r. c #015A88",
"t. c #025E8E",
"y. c #025F90",
"u. c #026193",
"i. c #016295",
"p. c #026294",
"a. c #026295",
"s. c #026396",
"d. c #026497",
"f. c #026498",
"g. c #026699",
"h. c #02689D",
"j. c #026AA0",
"k. c #026CA2",
"l. c #026CA3",
"z. c #026DA3",
"x. c #026EA5",
"c. c #026EA6",
"v. c #026FA7",
"b. c #0270A7",
"n. c #0270A8",
"m. c #0270A9",
"M. c #0271AA",
"N. c #0272AB",
"B. c #0273AC",
"V. c #0273AD",
"C. c #0275AF",
"Z. c #0275B0",
"A. c #0276B1",
"S. c #0277B4",
"D. c #0378B4",
"F. c #0378B5",
"G. c #0379B5",
"H. c #037AB6",
"J. c #037AB7",
"K. c #037CB9",
"L. c #037DBB",
"P. c #037EBC",
"I. c #037FBE",
"U. c #0383C3",
"Y. c #0383C4",
"T. c #0384C5",
"R. c #0384C6",
"E. c #0385C6",
"W. c #0385C7",
"Q. c #0386C7",
"!. c #0385C8",
"~. c #0386C8",
"^. c #0387C8",
"/. c #0386C9",
"(. c #0387CA",
"). c #0389CC",
"_. c #0389CD",
"`. c #038ACD",
"'. c #038ACE",
"]. c #038ACF",
"[. c #038BD0",
"{. c #048BD0",
"}. c #048CD1",
"|. c #048DD2",
" X c #048DD3",
".X c #048ED4",
"XX c #048FD5",
"oX c #0490D6",
"OX c #0491D7",
"+X c #0491D8",
"@X c #0493DB",
"#X c #0494DC",
"$X c #0494DD",
"%X c #0495DD",
"&X c #0495DE",
"*X c #0496E0",
"=X c #0497E1",
"-X c #0498E2",
";X c #0499E2",
":X c #0499E3",
">X c #049AE5",
",X c #049BE6",
"<X c #059BE7",
"1X c #059CE8",
"2X c #059DE9",
"3X c #059DEA",
"4X c #059EEA",
"5X c #059EEB",
"6X c #059FEC",
"7X c #059FED",
"8X c #05A0ED",
"9X c #05A0EE",
"0X c #05A1EE",
"qX c #05A1EF",
"wX c #05A1F0",
"eX c #05A2F0",
"rX c #05A2F1",
"tX c #05A3F1",
"yX c #05A3F2",
"uX c #05A3F3",
"iX c #05A4F3",
"pX c #05A4F4",
"aX c #05A5F4",
"sX c #05A5F5",
"dX c #05A5F6",
"fX c #05A6F6",
"gX c #05A6F7",
"hX c #05A7F7",
"jX c #05A7F8",
"kX c #05A8F9",
"lX c #05A8FA",
"zX c #05A9FA",
"xX c #05A9FB",
"cX c #05AAFC",
"vX c #06ABFD",
"bX c #06ABFE",
"nX c #06ACFE",
"mX c #06ACFF",
"MX c #06ADFF",
"NX c #06AEFF",
"BX c None",
/* pixels */
"BXBXBXBXBXBXBXBXBXBXBXBXBXBXBXBXBXBXBXBXBXBXBXBXBXBXBXBXBXBXBXBXBXBXBXBXBXBXBXBXBXBXBXBXBXBXBXBXBXBXBXBXBXBXBXBXBXBXBXBXBXBXBXBX",
"BXBXBXBXBXBXBXBXBXBXBXBXBXBXBXBXBXBXBXBXBXBXBXBXBXBXBXBXBXBXBXBXBXBXBXBXBXBXBXBXBXBXBXBXBXBXBXBXBXBXBXBXBXBXBXBXBXBXBXBXBXBXBXBX",
"BXBXBXBXBXBXBXBXBXBXBXBXBXBXBXBXBXBXBXBXBXBXBXBXBXBXBXBXBXBXBXBXBXBXBXBXBXBXBXBXBXBXBXBXBXBXBXBXBXBXBXBXBXBXBXBXBXBXBXBXBXBXBXBX",
"BXBXBXBXBXBXBXBXBXBXBXBXBXBXBXBXBXBXBXBXBXBXBXBXBXBXBXBXBXBXBXBXBXBXBXBXBXBXBXBXBXBXBXBXBXBXBXBXBXBXBXBXBXBXBXBXBXBXBXBXBXBXBXBX",
"BXBXBXBXBXBXBXBXBXBXBXBXBXBXBXBXBXBXBXBXBXBXBXBXBXBXBXBXBXBXBXBXBXBXBXBXBXBXBXBXBXBXBXBXBXBXBXBXBXBXBXBXBXBXBXBXBXBXBXBXBXBXBXBX",
"BXBXBXBXBXBXBXBXBXBXBXBXBXBXBXBXBXBXBXBXBXBXBXBXBXBXBXBXBXBXBXBXBXBXBXBXBXBXBXBXBXBXBXBXBXBXBXBXBXBXBXBXBXBXBXBXBXBXBXBXBXBXBXBX",
"BXBXBXBXBXBXBXBXBXBXBXBXBXBXBXBXBXBXBXBXBXBXBXBXBXBXBXBXBXBXBXBXBXBXBXBXBXBXBXBXBXBXBXBXBXBXBXBXBXBXBXBXBXBXBXBXBXBXBXBXBXBXBXBX",
"BXBXBXBXBXBXBXBXBXBXBXBXBXBXBXBXBXBXBXBXBXBXBXBXBXBXBXBXBXBXBXBXBXBXBXBXBXBXBXBXBXBXBXBXBXBXBXBXBXBXBXBXBXBXBXBXBXBXBXBXBXBXBXBX",
"BXBXBXBXBXBXBXBXBXBXBXBXBXBXBXBXBXBXBXBXBXBXBXBXBXBXBXBXBXBXBXBXBXBXBXBXBXBXBXBXBXBXBXBXBXBXBXBXBXBXBXBXBXBXBXBXBXBXBXBXBXBXBXBX",
"BXBXBXBXBXBXBXBXBXBXBXBXBXBXBXBXBXBXBXBXBXBXBXBXBXBXBXBXBXBXBXBXBXBXBXBXBXBXBXBXBXBXBXBXBXBXBXBXBXBXBXBXBXBXBXBXBXBXBXBXBXBXBXBX"
"BXBXBXBXBXBXBXBXBXBXBXBXBXBXBXBXBXBXBXBXBXBXBX          BXBXBXBXBXBXBXBXBXBXBXBXBXBXBXBXBXBXBXBXBXBXBXBXBXBXBXBXBXBXBXBXBXBXBXBX",
"BXBXBXBXBXBXBXBXBXBXBXBXBXBXBXBXBXBXBXBXBXBXBXy s i i a BXBXBXBXBXBXBXBXBXBXBXBXBXBXBXBXBXBXBXBXBXBXBXBXBXBXBXBXBXBXBXBXBXBXBXBX",
"BXBXBXBXBXBXBXBXBXBXBXBXBXBXBXBXBXBXBXBXBXBXBX          BXBXBXBXBXBXBXBXBXBXBXBXBXBXBXBXBXBXBXBXBXBXBXBXBXBXBXBXBXBXBXBXBXBXBXBX",
"BXBXBXBXBXBXBXBXBXBXBXBXBXBXBXBXBXBXBXBXBXBXBX9.r.q.0.e.BXBXBXBXBXBXBXBXBXBXBXBXBXBXBXBXBXBXBXBXBXBXBXBXBXBXBXBXBXBXBXBXBXBXBXBX",
"BXBXBXBXBXBXBXBXBXBXBXBXBXBXBXBXBXBXBXBX2   U 9XlXgXgXkX-.  d BXBXBXBXBXBXBXBXBXBXBXBXBXBXBXBXBXBXBXBXBXBXBXBXBXBXBXBXBXBXBXBXBX",
"BXBXBXBXBXBXBXBXBXBXBXBXBXBXBXBXBXBXBXBX4   P <XiXeXrXuX#.  0 BXBXBXBXBXBXBXBXBXBXBXBXBXBXBXBXBXBXBXBXBXBXBXBXBXBXBXBXBXBXBXBXBX",
"BXBXBXBXBXBXBXBXBXBXBXBXBXBXBXBXBXBXBXBX3   P 1XpXrXtXpX%.  z BXBXBXBXBXBXBXBXBXBXBXBXBXBXBXBXBXBXBXBXBXBXBXBXBXBXBXBXBXBXBXBXBX",
"BXBXBXBXBXBXBXBXBXBXBXBXBXBXBXBXBXBX    *   L 1XaXtXyXyX>X2X!.  r BXBXBXBXBXBXBXBXBXBXBXBXBXBXBXBXBXBXBXBXBXBXBXBXBXBXBXBXBXBXBX",
"BXBXBXBXBXBXBXBXBXBXBXBXBXBXBXBXBXBX    &   K ,XyXeXyXyXiXcXXX  D BXBXBXBXBXBXBXBXBXBXBXBXBXBXBXBXBXBXBXBXBXBXBXBXBXBXBXBXBXBXBX",
"BXBXBXBXBXBXBXBXBXBXBXBXBXBXBXBXBXBX    =   Y eXvXfXtXyXwXjX'.    BXBXBXBXBXBXBXBXBXBXBXBXBXBXBXBXBXBXBXBXBXBXBXBXBXBXBXBXBXBXBX",
"BXBXBXBXBXBXBXBXBXBXBXBXBXBXBXBX        O   x n.m.).fXrXtXsX:XA.I.3.  BXBXBXBXBXBXBXBXBXBXBXBXBXBXBXBXBXBXBXBXBXBXBXBXBXBXBXBXBX",
"BXBXBXBXBXBXBXBXBXBXBXBXBXBXBXq r w q e ; .       d.kXqXyXtXaXkXMXu.  V BXBXBXBXBXBXBXBXBXBXBXBXBXBXBXBXBXBXBXBXBXBXBXBXBXBXBXBX",
"BXBXBXBXBXBXBXBXBXBXBXBXBXBXBX            %   F   x.bXsXuXyXtX0XfX7.    BXBXBXBXBXBXBXBXBXBXBXBXBXBXBXBXBXBXBXBXBXBXBXBXBXBXBXBX",
"BXBXBXBXBXBXBXBXBXBXBXBXBXBXBX..;.@.+.&.~   $ u   u.>X#XqXuXyXrXgXk.| $.BXBXBXBXBXBXBXBXBXBXBXBXBXBXBXBXBXBXBXBXBXBXBXBXBXBXBXBX",
"BXBXBXBXBXBXBXBXBXBXBXBXBXl   /.xXyXyXcXZ.  c   O       %XfXrXyXyXyXjX*X  - BXBXBXBXBXBXBXBXBXBXBXBXBXBXBXBXBXBXBXBXBXBXBXBXBXBX",
"BXBXBXBXBXBXBXBXBXBXBXBXBXm   W.kXeXeXlXC.  M .   O %   %XdXeXyXyXrXfX&X  8 BXBXBXBXBXBXBXBXBXBXBXBXBXBXBXBXBXBXBXBXBXBXBXBXBXBX",
"BXBXBXBXBXBXBXBXBXBXBXBXBX    Y.kXeXwXlXN.      X @ ;   =XzXpXyXyXrXfX$X    BXBXBXBXBXBXBXBXBXBXBXBXBXBXBXBXBXBXBXBXBXBXBXBXBXBX",
"BXBXBXBXBXBXBXBXBXBXs   >.$XoX2XiXyXyXpX>X+XXX!   : .   *.$.b.fXrXyXiX9XOX-Xg.  j BXBXBXBXBXBXBXBXBXBXBXBXBXBXBXBXBXBXBXBXBXBXBX",
"BXBXBXBXBXBXBXBXBXBXi   4.zXgXpXtXyXyXtXaXkXiX'   g   o     6.fXqXtXyXiXdXMXn.  G BXBXBXBXBXBXBXBXBXBXBXBXBXBXBXBXBXBXBXBXBXBXBX",
"BXBXBXBXBXBXBXBXBXBXi   1.pXeXtXyXyXyXyXrXyX6Xx     ,   N   y.mXkXpXtXyXqXkXf.    BXBXBXBXBXBXBXBXBXBXBXBXBXBXBXBXBXBXBXBXBXBXBX",
"BXBXBXBXBXBXBXBXBXBXa   <.sXtXyXyXyXyXyXyXuXqXB.v.8.  3 6   X.U.K.>XsXtXrXfX^.j.z.BXBXBXBXBXBXBXBXBXBXBXBXBXBXBXBXBXBXBXBXBXBXBX",
"BXBXBXBXBXBXBXBXBXBXa   <.sXrXyXyXyXyXyXyXyXyXhXNX~.  N   ;       `.jXeXyXrXfXbXrXE   t BXBXBXBXBXBXBXBXBXBXBXBXBXBXBXBXBXBXBXBX",
"BXBXBXBXBXBXBXBXBXBXp   2.jXpXiXyXyXyXyXyXyXyX0XjXI.        > A   .XxXuXyXyXeXyX,Xs   BXBXBXBXBXBXBXBXBXBXBXBXBXBXBXBXBXBXBXBXBX",
"BXBXBXBXBXBXBXBXBXBXa   ,.5X,X9XuXyXyXyXyXyXyXeXkXE.A [ g   O r   ~.7X1XyXyXtXpX2X} ) ( BXBXBXBXBXBXBXBXBXBXBXBXBXBXBXBXBXBXBXBX",
"BXBXBXBXBXBXBXBXBXBXBXBXBXR   ~.kXeXyXyXyXyXyXyXyXeX9XeX+.  w .   S   >.pXyXyXyXyX7XgXF.  c BXBXBXBXBXBXBXBXBXBXBXBXBXBXBXBXBXBX",
"BXBXBXBXBXBXBXBXBXBXBXBXBX;   T.jXqXyXyXyXyXyXyXyXyXiXsX*.  x   X @   o.yXeXrXyXyXrXxXJ.  A BXBXBXBXBXBXBXBXBXBXBXBXBXBXBXBXBXBX",
"BXBXBXBXBXBXBXBXBXBXBXBXBXn   '.MXfXyXyXyXyXyXyXyXyXtXiX{     &   y   =.zXkXaXtXyXwXlXZ.    BXBXBXBXBXBXBXBXBXBXBXBXBXBXBXBXBXBX",
"BXBXBXBXBXBXBXBXBXBXBXBXBXBXBXw.a.j.rXyXyXyXyXyXyXyXyXuX X{.A.  7 %   W p.0.|.hXrXtXaX=X(._.]   BXBXBXBXBXBXBXBXBXBXBXBXBXBXBXBX",
"BXBXBXBXBXBXBXBXBXBXBXBXBXBXBX    Q 9XrXrXyXyXyXyXyXyXyXfXmXOX  A - +       P.jX0XyXtXsXzXgX .  V BXBXBXBXBXBXBXBXBXBXBXBXBXBXBX",
"BXBXBXBXBXBXBXBXBXBXBXBXBXBXBXV    .gXzXsXtXyXyXyXyXyXyXqXgX_.      & @ F   Q.MXfXyXyXrXrX9XQ     BXBXBXBXBXBXBXBXBXBXBXBXBXBXBX",
"BXBXBXBXBXBXBXBXBXBXBXBXBXBXBXBX  ] _.(.=XaXtXyXyXyXyXyXrXfX#Xr.s./   - e   l.|.].rXyXyXyXrXj.a.w.BXBXBXBXBXBXBXBXBXBXBXBXBXBXBX",
"BXBXBXBXBXBXBXBXBXBXBXBXBXBXBXBXBXBX    Z.lXqXyXyXyXyXyXyXyXpXjXbXt.  h   :     S 8XiXtXyXyXfXMX'.  k BXBXBXBXBXBXBXBXBXBXBXBXBX",
"BXBXBXBXBXBXBXBXBXBXBXBXBXBXBXBXBXBXA   J.xXrXyXyXyXyXyXyXyXtXqXfXw.  ; .   y   _ qXaXyXyXyXqXjXE.  s BXBXBXBXBXBXBXBXBXBXBXBXBX",
"BXBXBXBXBXBXBXBXBXBXBXBXBXBXBXBXBXBXc   F.gX7XyXyXyXyXyXyXyXyXrXhXt.  J     3   ^ 4XwXeXyXyXeXkXE.  d BXBXBXBXBXBXBXBXBXBXBXBXBX",
"BXBXBXBXBXBXBXBXBXBXBXBXBXBXBXBXBXBXBXBX( ) } 2XpXtXyXyXyXyXyXyXyX2X5X.X  # +   8 ` C H.kXeXeXkXE.  d BXBXBXBXBXBXBXBXBXBXBXBXBX",
"BXBXBXBXBXBXBXBXBXBXBXBXBXBXBXBXBXBXBXBXBX  s ,XyXeXyXyXyXyXyXyXyXiXkX=X  v 7         N.jX9X0XhXR.  s BXBXBXBXBXBXBXBXBXBXBXBXBX",
"BXBXBXBXBXBXBXBXBXBXBXBXBXBXBXBXBXBXBXBXt   E rXbXfXrXyXyXyXyXyXyXeXfX@X      ,   B   G.NXjXjXNX[.  k BXBXBXBXBXBXBXBXBXBXBXBXBX",
"BXBXBXBXBXBXBXBXBXBXBXBXBXBXBXBXBXBXBXBXBXBXBXz.j.^.fXrXyXyXyXyXyXyXpX3XL.Y.5.  9 4   :.M.l.z.V.i.BXBXBXBXBXBXBXBXBXBXBXBXBXBXBX",
"BXBXBXBXBXBXBXBXBXBXBXBXBXBXBXBXBXBXBXBXBXBXBX    f.kXqXyXyXyXyXyXyXyXiXjXNXv.  Z   <             BXBXBXBXBXBXBXBXBXBXBXBXBXBXBX",
"BXBXBXBXBXBXBXBXBXBXBXBXBXBXBXBXBXBXBXBXBXBXBXG   n.MXdXiXyXyXyXyXyXyXyX9XjXg.        8 c k k b f BXBXBXBXBXBXBXBXBXBXBXBXBXBXBX",
"BXBXBXBXBXBXBXBXBXBXBXBXBXBXBXBXBXBXBXBXBXBXBXj   g.-XOX9XiXyXyXyXyXyXyXrXjXH.O.<.8   X           BXBXBXBXBXBXBXBXBXBXBXBXBXBXBX",
"BXBXBXBXBXBXBXBXBXBXBXBXBXBXBXBXBXBXBXBXBXBXBXBXBXBX    $XfXrXyXyXyXyXyXyXyXpXjX6XI   *     BXBXBXBXBXBXBXBXBXBXBXBXBXBXBXBXBXBX",
"BXBXBXBXBXBXBXBXBXBXBXBXBXBXBXBXBXBXBXBXBXBXBXBXBXBX8   &XfXrXyXyXyXyXyXyXyXrXpX1XK   &     BXBXBXBXBXBXBXBXBXBXBXBXBXBXBXBXBXBX",
"BXBXBXBXBXBXBXBXBXBXBXBXBXBXBXBXBXBXBXBXBXBXBXBXBXBX-   *XjXyXyXyXyXyXyXyXyXrXpX1XL   &     BXBXBXBXBXBXBXBXBXBXBXBXBXBXBXBXBXBX",
"BXBXBXBXBXBXBXBXBXBXBXBXBXBXBXBXBXBXBXBXBXBXBXBXBXBXBXBX$.| k.gXrXyXyXyXyXyXtXaX1XP   1 BXBXBXBXBXBXBXBXBXBXBXBXBXBXBXBXBXBXBXBX",
"BXBXBXBXBXBXBXBXBXBXBXBXBXBXBXBXBXBXBXBXBXBXBXBXBXBXBXBX    7.fX0XtXyXyXyXyXeXyX,XL   BXBXBXBXBXBXBXBXBXBXBXBXBXBXBXBXBXBXBXBXBX",
"BXBXBXBXBXBXBXBXBXBXBXBXBXBXBXBXBXBXBXBXBXBXBXBXBXBXBXBXV   u.MXkXaXtXyXyXrXfXnXrXT   5 BXBXBXBXBXBXBXBXBXBXBXBXBXBXBXBXBXBXBXBX",
"BXBXBXBXBXBXBXBXBXBXBXBXBXBXBXBXBXBXBXBXBXBXBXBXBXBXBXBXBX  3.I.A.:XsXtXrXdX}.D.S.K   BXBXBXBXBXBXBXBXBXBXBXBXBXBXBXBXBXBXBXBXBX",
"BXBXBXBXBXBXBXBXBXBXBXBXBXBXBXBXBXBXBXBXBXBXBXBXBXBXBXBXBXBXBX    '.jXwXqXkXf.    BXBXBXBXBXBXBXBXBXBXBXBXBXBXBXBXBXBXBXBXBXBXBX",
"BXBXBXBXBXBXBXBXBXBXBXBXBXBXBXBXBXBXBXBXBXBXBXBXBXBXBXBXBXBXBXD   XXcXpXpXbXc.  H BXBXBXBXBXBXBXBXBXBXBXBXBXBXBXBXBXBXBXBXBXBXBX",
"BXBXBXBXBXBXBXBXBXBXBXBXBXBXBXBXBXBXBXBXBXBXBXBXBXBXBXBXBXBXBXr   !.3X;X-X5Xh.  k BXBXBXBXBXBXBXBXBXBXBXBXBXBXBXBXBXBXBXBXBXBXBX",
"BXBXBXBXBXBXBXBXBXBXBXBXBXBXBXBXBXBXBXBXBXBXBXBXBXBXBXBXBXBXBXBXBX: > ; ; > BXBXBXBXBXBXBXBXBXBXBXBXBXBXBXBXBXBXBXBXBXBXBXBXBXBX",
"BXBXBXBXBXBXBXBXBXBXBXBXBXBXBXBXBXBXBXBXBXBXBXBXBXBXBXBXBXBXBXBXBX          BXBXBXBXBXBXBXBXBXBXBXBXBXBXBXBXBXBXBXBXBXBXBXBXBXBX",
"BXBXBXBXBXBXBXBXBXBXBXBXBXBXBXBXBXBXBXBXBXBXBXBXBXBXBXBXBXBXBXBXBX$ $ $ $ $ BXBXBXBXBXBXBXBXBXBXBXBXBXBXBXBXBXBXBXBXBXBXBXBXBXBX",
};
