/* XPM */
static char *result[] = {
/* columns rows colors chars-per-pixel */
"64 64 241 2 ",
"   c #000001",
".  c #000001",
"X  c #000102",
"o  c #000103",
"O  c #000204",
"+  c #000205",
"@  c #000206",
"#  c #000307",
"$  c #000308",
"%  c #000409",
"&  c #00040A",
"*  c #00040B",
"=  c #00050B",
"-  c #00050C",
";  c #00050D",
":  c #00060D",
">  c #00060E",
",  c #00070F",
"<  c #000710",
"1  c #000711",
"2  c #000712",
"3  c #000811",
"4  c #000812",
"5  c #000912",
"6  c #000913",
"7  c #000914",
"8  c #000A15",
"9  c #000B16",
"0  c #000B17",
"q  c #000C17",
"w  c #000C18",
"e  c #000D19",
"r  c #000D1A",
"t  c #000E1B",
"y  c #000F1C",
"u  c #000F1D",
"i  c #00101E",
"p  c #00111E",
"a  c #00101F",
"s  c #00111F",
"d  c #001120",
"f  c #001320",
"g  c #001221",
"h  c #001321",
"j  c #001222",
"k  c #001322",
"l  c #001323",
"z  c #001421",
"x  c #001423",
"c  c #001424",
"v  c #001524",
"b  c #001525",
"n  c #001526",
"m  c #001626",
"M  c #001727",
"N  c #001828",
"B  c #001829",
"V  c #00192A",
"C  c #001A2B",
"Z  c #001A2C",
"A  c #001B2D",
"S  c #001C2F",
"D  c #001C30",
"F  c #001D30",
"G  c #001D31",
"H  c #001E31",
"J  c #001F34",
"K  c #002034",
"L  c #002035",
"P  c #002135",
"I  c #002136",
"U  c #002137",
"Y  c #002237",
"T  c #002238",
"R  c #00243A",
"E  c #00253C",
"W  c #00273F",
"Q  c #002841",
"!  c #002C46",
"~  c #00314D",
"^  c #00324F",
"/  c #003350",
"(  c #003351",
")  c #003553",
"_  c #013654",
"`  c #013857",
"'  c #013858",
"]  c #003859",
"[  c #013959",
"{  c #013D5E",
"}  c #013E5F",
"|  c #013F62",
" . c #014164",
".. c #014469",
"X. c #01456A",
"o. c #01466B",
"O. c #01466C",
"+. c #01476D",
"@. c #01486D",
"#. c #01486F",
"$. c #014970",
"%. c #014971",
"&. c #014A72",
"*. c #014B72",
"=. c #014B73",
"-. c #014B74",
";. c #014C75",
":. c #014D75",
">. c #014D76",
",. c #014E77",
"<. c #014F78",
"1. c #014F79",
"2. c #01507A",
"3. c #02517C",
"4. c #01527C",
"5. c #01527D",
"6. c #015480",
"7. c #015682",
"8. c #015683",
"9. c #015784",
"0. c #015885",
"q. c #015886",
"w. c #015987",
"e. c #015988",
"r. c #015A88",
"t. c #025E8E",
"y. c #025F90",
"u. c #026193",
"i. c #016295",
"p. c #026294",
"a. c #026295",
"s. c #026396",
"d. c #026497",
"f. c #026498",
"g. c #026699",
"h. c #02689D",
"j. c #026AA0",
"k. c #026CA2",
"l. c #026CA3",
"z. c #026DA3",
"x. c #026EA5",
"c. c #026EA6",
"v. c #026FA7",
"b. c #0270A7",
"n. c #0270A8",
"m. c #0270A9",
"M. c #0271AA",
"N. c #0272AB",
"B. c #0273AC",
"V. c #0273AD",
"C. c #0275AF",
"Z. c #0275B0",
"A. c #0276B1",
"S. c #0277B4",
"D. c #0378B4",
"F. c #0378B5",
"G. c #0379B5",
"H. c #037AB6",
"J. c #037AB7",
"K. c #037CB9",
"L. c #037DBB",
"P. c #037EBC",
"I. c #037FBE",
"U. c #0383C3",
"Y. c #0383C4",
"T. c #0384C5",
"R. c #0384C6",
"E. c #0385C6",
"W. c #0385C7",
"Q. c #0386C7",
"!. c #0385C8",
"~. c #0386C8",
"^. c #0387C8",
"/. c #0386C9",
"(. c #0387CA",
"). c #0389CC",
"_. c #0389CD",
"`. c #038ACD",
"'. c #038ACE",
"]. c #038ACF",
"[. c #038BD0",
"{. c #048BD0",
"}. c #048CD1",
"|. c #048DD2",
" X c #048DD3",
".X c #048ED4",
"XX c #048FD5",
"oX c #0490D6",
"OX c #0491D7",
"+X c #0491D8",
"@X c #0493DB",
"#X c #0494DC",
"$X c #0494DD",
"%X c #0495DD",
"&X c #0495DE",
"*X c #0496E0",
"=X c #0497E1",
"-X c #0498E2",
";X c #0499E2",
":X c #0499E3",
">X c #049AE5",
",X c #049BE6",
"<X c #059BE7",
"1X c #059CE8",
"2X c #059DE9",
"3X c #059DEA",
"4X c #059EEA",
"5X c #059EEB",
"6X c #059FEC",
"7X c #059FED",
"8X c #05A0ED",
"9X c #05A0EE",
"0X c #05A1EE",
"qX c #05A1EF",
"wX c #05A1F0",
"eX c #05A2F0",
"rX c #05A2F1",
"tX c #05A3F1",
"yX c #05A3F2",
"uX c #05A3F3",
"iX c #05A4F3",
"pX c #05A4F4",
"aX c #05A5F4",
"sX c #05A5F5",
"dX c #05A5F6",
"fX c #05A6F6",
"gX c #05A6F7",
"hX c #05A7F7",
"jX c #05A7F8",
"kX c #05A8F9",
"lX c #05A8FA",
"zX c #05A9FA",
"xX c #05A9FB",
"cX c #05AAFC",
"vX c #06ABFD",
"bX c #06ABFE",
"nX c #06ACFE",
"mX c #06ACFF",
"MX c #06ADFF",
"NX c #06AEFF",
"BX c None",
/* pixels */
"BXBXBXBXBXBXBXBXBXBXBXBXBXBXBXBXBXBXBXBXBXBXBXBXBXBXBXBXBXBXBXBXBXBXBXBXBXBXBXBXBXBXBXBXBXBXBXBXBXBXBXBXBXBXBXBXBXBXBXBXBXBXBXBX",
"BXBXBXBXBXBXBXBXBXBXBXBXBXBXBXBXBXBXBXBXBXBXBXBXBXBXBXBXBXBXBXBXBXBXBXBXBXBXBXBXBXBXBXBXBXBXBXBXBXBXBXBXBXBXBXBXBXBXBXBXBXBXBXBX",
"BXBXBXBXBXBXBXBXBXBXBXBXBXBXBXBXBXBXBXBXBXBXBXBXBXBXBXBXBXBXBXBXBXBXBXBXBXBXBXBXBXBXBXBXBXBXBXBXBXBXBXBXBXBXBXBXBXBXBXBXBXBXBXBX",
"BXBXBXBXBXBXBXBXBXBXBXBXBXBXBXBXBXBXBXBXBXBXBXBXBXBXBXBXBXBXBXBXBXBXBXBXBXBXBXBXBXBXBXBXBXBXBXBXBXBXBXBXBXBXBXBXBXBXBXBXBXBXBXBX",
"BXBXBXBXBXBXBXBXBXBXBXBXBXBXBXBXBXBXBXBXBXBXBXBXBXBXBXBXBXBXBXBXBXBXBXBXBXBXBXBXBXBXBXBXBXBXBXBXBXBXBXBXBXBXBXBXBXBXBXBXBXBXBXBX",
"BXBXBXBXBXBXBXBXBXBXBXBXBXBXBXBXBXBXBXBXBXBXBXBXBXBXBXBXBXBXBXBXBXBXBXBXBXBXBXBXBXBXBXBXBXBXBXBXBXBXBXBXBXBXBXBXBXBXBXBXBXBXBXBX",
"BXBXBXBXBXBXBXBXBXBXBXBXBXBXBXBXBXBXBXBXBXBXBXBXBXBXBXBXBXBXBXBXBXBXBXBXBXBXBXBXBXBXBXBXBXBXBXBXBXBXBXBXBXBXBXBXBXBXBXBXBXBXBXBX",
"BXBXBXBXBXBXBXBXBXBXBXBXBXBXBXBXBXBXBXBXBXBXBXBXBXBXBXBXBXBXBXBXBXBXBXBXBXBXBXBXBXBXBXBXBXBXBXBXBXBXBXBXBXBXBXBXBXBXBXBXBXBXBXBX",
"BXBXBXBXBXBXBXBXBXBXBXBXBXBXBXBXBXBXBXBXBXBXBXBXBXBXBXBXBXBXBXBXBXBXBXBXBXBXBXBXBXBXBXBXBXBXBXBXBXBXBXBXBXBXBXBXBXBXBXBXBXBXBXBX",
"BXBXBXBXBXBXBXBXBXBXBXBXBXBXBXBXBXBXBXBXBXBXBXBXBXBXBXBXBXBXBXBXBXBXBXBXBXBXBXBXBXBXBXBXBXBXBXBXBXBXBXBXBXBXBXBXBXBXBXBXBXBXBXBX",
"BXBXBXBXBXBXBXBXBXBXBXBXBXBXBXBXBXBXBXBXBXBXBXBXBXBXBXBXBXBXBXBXBXBXBXBXBXBXBXBXBXBXBXBXBXBXBXBXBXBXBXBXBXBXBXBXBXBXBXBXBXBXBXBX",
"BXBXBXBXBXBXBXBXBXBXBXBXBXBXBXBXBXBXBXBXBXBXBXBXBXBXBXBXBXBXBXBXBXBXBXBXBXBXBXBXBXBXBXBXBXBXBXBXBXBXBXBXBXBXBXBXBXBXBXBXBXBXBXBX",
"BXBXBXBXBXBXBXBXBXBXBXBXBXBXBXBXBXBXBXBXBXBXBXBXBXBXBXBXBXBXBXBXBXBXBXBXBXBXBXBXBXBXBXBXBXBXBXBXBXBXBXBXBXBXBXBXBXBXBXBXBXBXBXBX",
"BXBXBXBXBXBXBXBXBXBXBXBXBXBXBXBXBXBXBXBXBXBXBXBXBXBXBXBXBXBXBXBXBXBXBXBXBXBXBXBXBXBXBXBXBXBXBXBXBXBXBXBXBXBXBXBXBXBXBXBXBXBXBXBX",
"BXBXBXBXBXBXBXBXBXBXBXBXBXBXBXBXBXBXBXBXBXBXBXBXBXBXBXBXBXBXBXBXBXBXBXBXBXBXBXBXBXBXBXBXBXBXBXBXBXBXBXBXBXBXBXBXBXBXBXBXBXBXBXBX",
"BXBXBXBXBXBXBXBXBXBXBXBXBXBXBXBXBXBXBXBXBXBXBXBXBXBXBXBXBXBXBXBXBXBXBXBXBXBXBXBXBXBXBXBXBXBXBXBXBXBXBXBXBXBXBXBXBXBXBXBXBXBXBXBX",
"BXBXBXBXBXBXBXBXBXBXBXBXBXBXBXBXBXBXBXBXBXBXBXBXBXBXBXBXBXBXBXBXBXBXBXBXBXBXBXBXBXBXBXBXBXBXBXBXBXBXBXBXBXBXBXBXBXBXBXBXBXBXBXBX",
"BXBXBXBXBXBXBXBXBXBXBXBXBXBXBXBXBXBXBXBXBXBXBXBXBXBXBXBXBXBXBXBXBXBXBXBXBXBXBXBXBXBXBXBXBXBXBXBXBXBXBXBXBXBXBXBXBXBXBXBXBXBXBXBX",
"BXBXBXBXBXBXBXBXBXBXBXBXBXBXBXBXBXBXBXBXBXBXBXBXBXBXBXBXBXBXBXBXBXBXBXBXBXBXBXBXBXBXBXBXBXBXBXBXBXBXBXBXBXBXBXBXBXBXBXBXBXBXBXBX",
"BXBXBXBXBXBXBXBXBXBXBXBXBXBXBXBXBXBXBXBXBXBXBXBXBXBXBXBXBXBXBXBXBXBXBXBXBXBXBXBXBXBXBXBXBXBXBXBXBXBXBXBXBXBXBXBXBXBXBXBXBXBXBXBX",
"BXBXBXBXBXBXBXBXBXBXBXBXBXBXBXBXBXBXBXBXBXBXBXBXBXBXBXBXBXBXBXBXBXBXBXBXBXBXBXBXBXBXBXBXBXBXBXBXBXBXBXBXBXBXBXBXBXBXBXBXBXBXBXBX",
"BXBXBXBXBXBXBXBXBXBXBXBXBXBXBXBXBXBXBXBXBXBXBXBXBXBXBXBXBXBXBXBXBXBXBXBXBXBXBXBXBXBXBXBXBXBXBXBXBXBXBXBXBXBXBXBXBXBXBXBXBXBXBXBX",
"BXBXBXBXBXBXBXBXBXBXBXBXBXBXBXBXBXBXBXBXBXBXBXBXBXBXBXBXBXBXBXBXBXBXBXBXBXBXBXBXBXBXBXBXBXBXBXBXBXBXBXBXBXBXBXBXBXBXBXBXBXBXBXBX"
"BXBXBXBXBXBXBXBXBXBXBXBXBXBXBXBXBXBXBXBXBXBXBXBXk s d d s k BXBXBXBXBXBXBXBXBXBXBXBXBXBXBXBXBXBXBXBXBXBXBXBXBXBXBXBXBXBXBXBXBXBX",
"BXBXBXBXBXBXBXBXBXBXBXBXBXBXBXBXBXBXBXBXBXBXBXBX            BXBXBXBXBXBXBXBXBXBXBXBXBXBXBXBXBXBXBXBXBXBXBXBXBXBXBXBXBXBXBXBXBXBX",
"BXBXBXBXBXBXBXBXBXBXBXBXBXBXBXBXBXBXBXBX  f   i.[.R.E.E.E.'.w.  V BXBXBXBXBXBXBXBXBXBXBXBXBXBXBXBXBXBXBXBXBXBXBXBXBXBXBXBXBXBXBX",
"BXBXBXBXBXBXBXBXBXBXBXBXBXBXBXBXBXBXBXBX  b   V.NXhXkXkXjXMXa.      BXBXBXBXBXBXBXBXBXBXBXBXBXBXBXBXBXBXBXBXBXBXBXBXBXBXBXBXBXBX",
"BXBXBXBXBXBXBXBXBXBXBXBXBXBXBXBXBXBXBXBX  k   z.jX0XeXeXqXfXj.Q  .] BXBXBXBXBXBXBXBXBXBXBXBXBXBXBXBXBXBXBXBXBXBXBXBXBXBXBXBXBXBX",
"BXBXBXBXBXBXBXBXBXBXBXBXBXBXBXBXBX        k   l.jX9XeXyXyXyXrX9XgX_.  A c BXBXBXBXBXBXBXBXBXBXBXBXBXBXBXBXBXBXBXBXBXBXBXBXBXBXBX",
"BXBXBXBXBXBXBXBXBXBXBXBXBXBXBXBXBX        c   M.NXjXkXyXyXyXyXrXzX(.      BXBXBXBXBXBXBXBXBXBXBXBXBXBXBXBXBXBXBXBXBXBXBXBXBXBXBX",
"BXBXBXBXBXBXBXBXBXBXBXBXBXBX5 BX1 & & * X 8   :.G.N.H.eXyXtXyXrXsX=XZ.J.F.( BXt BXBXBXBXBXBXBXBXBXBXBXBXBXBXBXBXBXBXBXBXBXBXBXBX",
"BXBXBXBXBXBXBXBXBXBXBXBXBX                  <       C wXaXiXyXyXtXaXlXxXgX)     BXBXBXBXBXBXBXBXBXBXBXBXBXBXBXBXBXBXBXBXBXBXBXBX",
"BXBXBXBXBXBXBXBXBXBXBXBXBXK T L P L K I 8     4 B   ` 4XqX8XrXyXyXtXwXrX7X} s E BXBXBXBXBXBXBXBXBXBXBXBXBXBXBXBXBXBXBXBXBXBXBXBX",
"BXBXBXBXBXBXBXBXBXBXk H   S.rX,X1X1X1X6X<.  Z 9     8 ^ _ S ].fX0XrXyXyXyX2X,XrXz.  G j BXBXBXBXBXBXBXBXBXBXBXBXBXBXBXBXBXBXBXBX",
"BXBXBXBXBXBXBXBXBXBX      D.nXyXaXpXpXjXO.      ,           |.MXjXhXtXyXyXpXyXbXj.      BXBXBXBXBXBXBXBXBXBXBXBXBXBXBXBXBXBXBXBX",
"BXBXBXBXBXBXBXBXBXBXh.c.f.}.fXeXtXrXrXpXH.g.v.5.  7 + 3 y   l.Q.P.|.aXrXyXtXeXfX^.f.n.g.BXBXBXBXBXBXBXBXBXBXBXBXBXBXBXBXBXBXBXBX",
"BXBXBXBXBXBXBX$   > 5XbXkXdXrXyXyXyXyXyXjXjXNXY.  v #     :       0.kXeXyXyXyXrXfXkXMX-X  8 - BXBXBXBXBXBXBXBXBXBXBXBXBXBXBXBXBX",
"BXBXBXBXBXBXBX$   ; -XpXqXrXyXyXyXyXyXyXrX9XjXL.        .   e F   p.zXyXpXyXyXyXrXqXdXOX      BXBXBXBXBXBXBXBXBXBXBXBXBXBXBXBXBX",
"BXBXBXBXBXBXBX$   ; ;XpXwXtXyXyXyXyXyXyXyXyXiX3X@X=X.XJ ; h - @   W =.o.>.1XuXeXtXyXiX9X$X&X*X$.  V BXBXBXBXBXBXBXBXBXBXBXBXBXBX",
"BXBXBXBXBXBXBX$   > 3XcXjXsXtXyXyXyXyXyXyXyXyXpXfXkX5X        & +         7XxXjXsXtXyXiXfXfXjX|       BXBXBXBXBXBXBXBXBXBXBXBXBX",
"BXBXBXBXBXBXBX$   : !.XX'.:XaXtXyXyXyXyXyXyXyXyXeXiX2Xt.w.t./   - % y @ S ~..X`.>XpXtXyXrXrXyXk.7.u.3.BXBXBXBXBXBXBXBXBXBXBXBXBX",
"BXBXBXBXBXBXBXBXBXBX      A.kX0XrXyXyXyXyXyXyXyXyXyXyXhXfXbXs.  A 7   X         K.kXqXrXyXyXyXgXfXMXI.  D r BXBXBXBXBXBXBXBXBXBX",
"BXBXBXBXBXBXBXBXBXBXr D   I.MXfXgXyXyXyXyXyXyXyXyXyXyXrXqXjXr.      &   . r A   U.mXfXfXyXyXyXrX0XkXA.      BXBXBXBXBXBXBXBXBXBX",
"BXBXBXBXBXBXBXBXBXBXBXBXBX3.u.7.k.yXrXrXyXyXyXyXyXyXyXyXtXpX#X_.OXA.  x w O >   X.y.6.b.pXeXrXyXtXaX:X'.XX!.z 0 d BXBXBXBXBXBXBX",
"BXBXBXBXBXBXBXBXBXBXBXBXBX      | jXfXfXiXyXyXyXyXyXyXyXyXyXfXgXmX{.          ;       $.zXdXfXuXyXtXsXjXcX2X      BXBXBXBXBXBXBX",
"BXBXBXBXBXBXBXBXBXBXBXBXBXBXV   $.*X&X$X9XiXyXyXyXyXyXyXyXyXrXqXfX X{ *.+.g     6 N   *.=X%X%XqXuXyXtXwXiX>X%.#.-.BXBXBXBXBXBXBX",
"BXBXBXBXBXBXBXBXBXBXBXBXBXBXBXBXBX      OXdXqXrXyXyXyXyXyXyXyXyXyXuXiXsXeX[   N 3   o         #XsXqXrXyXyXyXpXuXkXe.  a   BXBXBX",
"BXBXBXBXBXBXBXBXBXBXBXBXBXBXBXBXBX- 8   -XMXkXfXrXyXyXyXyXyXyXyXyXyXtXiX9XA       ,   . ; %   >XbXkXfXtXyXyXtXrXgX0.  i   BXBXBX",
"BXBXBXBXBXBXBXBXBXBXBXBXBXBXBXBXBXBXBXBXg.n.f.^.fXeXtXyXyXyXyXyXyXyXyXyXeXE.I.~.8.  g : @ O   u.x.d.).fXeXtXrXeXgXq.  i   BXBXBX",
"BXBXBXBXBXBXBXBXBXBXBXBXBXBXBXBXBXBXBXBX      j.bXyXpXyXyXyXyXyXyXyXyXyXyXkXjXNXv.      X   O       m.vXyXaXpXiXlXr.  s   BXBXBX",
"BXBXBXBXBXBXBXBXBXBXBXBXBXBXBXBXBXBXBXBXj G   z.rX,X2XyXyXyXyXyXyXyXyXyXyXeX0XhXB.x ' !   .   u F   n.eX,X1X1X<X9X9.  y   BXBXBX",
"BXBXBXBXBXBXBXBXBXBXBXBXBXBXBXBXBXBXBXBXBXBXBXBXE s } 7XrXqXtXyXyXyXyXyXyXyXyXyXqX6XiXXX  M c $     x Y K L P P U BXBXBXBXBXBXBX",
"BXBXBXBXBXBXBXBXBXBXBXBXBXBXBXBXBXBXBXBXBXBXBXBX    ) gXxXlXaXtXyXyXyXyXyXyXyXyXuXyXkX+X        % .               BXBXBXBXBXBXBX",
"BXBXBXBXBXBXBXBXBXBXBXBXBXBXBXBXBXBXBXBXBXBXBXBXt BX( F.J.Z.=XsXrXyXyXyXyXyXyXyXyXrXaX>XN.C.Z.~   ; O = & * 3 4 2 BXBXBXBXBXBXBX",
"BXBXBXBXBXBXBXBXBXBXBXBXBXBXBXBXBXBXBXBXBXBXBXBXBXBXBX      (.zXrXyXyXyXyXyXyXyXyXyXtXpXlXlXcX&.  e         BXBXBXBXBXBXBXBXBXBX",
"BXBXBXBXBXBXBXBXBXBXBXBXBXBXBXBXBXBXBXBXBXBXBXBXBXBXBXc A   _.gX9XrXyXyXyXyXyXyXyXyXyXyXwXeXyX+.  q         BXBXBXBXBXBXBXBXBXBX",
"BXBXBXBXBXBXBXBXBXBXBXBXBXBXBXBXBXBXBXBXBXBXBXBXBXBXBXBXBXBX]  .Q j.fXqXeXyXyXyXyXyXyXyXeXeXyX@.  w   BXBXBXBXBXBXBXBXBXBXBXBXBX",
"BXBXBXBXBXBXBXBXBXBXBXBXBXBXBXBXBXBXBXBXBXBXBXBXBXBXBXBXBXBX      a.MXjXkXuXyXyXyXyXtXiXkXkXxX;.  r   BXBXBXBXBXBXBXBXBXBXBXBXBX",
"BXBXBXBXBXBXBXBXBXBXBXBXBXBXBXBXBXBXBXBXBXBXBXBXBXBXBXBXBXBXBXV   w.'.T.~.9XiXyXyXtXpX2XY.W./...  q BXBXBXBXBXBXBXBXBXBXBXBXBXBX",
"BXBXBXBXBXBXBXBXBXBXBXBXBXBXBXBXBXBXBXBXBXBXBXBXBXBXBXBXBXBXBXBXBXBX      ,XpXrXtXeXgXoX      BXBXBXBXBXBXBXBXBXBXBXBXBXBXBXBXBX",
"BXBXBXBXBXBXBXBXBXBXBXBXBXBXBXBXBXBXBXBXBXBXBXBXBXBXBXBXBXBXBXBXBXBXn ; R 5XjXsXsXpXzX$X  m l BXBXBXBXBXBXBXBXBXBXBXBXBXBXBXBXBX",
"BXBXBXBXBXBXBXBXBXBXBXBXBXBXBXBXBXBXBXBXBXBXBXBXBXBXBXBXBXBXBXBXBXBXBXBXBX,.2.<.<.1.4.>.BXBXBXBXBXBXBXBXBXBXBXBXBXBXBXBXBXBXBXBX",
"BXBXBXBXBXBXBXBXBXBXBXBXBXBXBXBXBXBXBXBXBXBXBXBXBXBXBXBXBXBXBXBXBXBXBXBXBX              BXBXBXBXBXBXBXBXBXBXBXBXBXBXBXBXBXBXBXBX",
"BXBXBXBXBXBXBXBXBXBXBXBXBXBXBXBXBXBXBXBXBXBXBXBXBXBXBXBXBXBXBXBXBXBXBXBXBXa p a a i i s BXBXBXBXBXBXBXBXBXBXBXBXBXBXBXBXBXBXBXBX",
};
