/* XPM */
static char *result[] = {
/* columns rows colors chars-per-pixel */
"64 64 256 2 ",
"   c None",
".  c #0A0200",
"X  c #0B0B03",
"o  c None",
"O  c None",
"+  c None",
"@  c #170100",
"#  c None",
"$  c #17180A",
"%  c #010113",
"&  c None",
"*  c #090E11",
"=  c #03051A",
"-  c None",
";  c #0A1315",
":  c #0D1915",
">  c None",
",  c #0A161A",
"<  c None",
"1  c #0A191D",
"2  c #131816",
"3  c #111C1D",
"4  c #0E2914",
"5  c #2C310B",
"6  c #000525",
"7  c #00022C",
"8  c None",
"9  c #041825",
"0  c #0A1D22",
"q  c #031C2A",
"w  c #111E23",
"e  c #121B2C",
"r  c #000237",
"t  c #021737",
"y  c #141D34",
"u  c #0C2125",
"i  c #0D2A26",
"p  c #05232C",
"a  c #0B242B",
"s  c #0D292E",
"d  c #122629",
"f  c #15272A",
"g  c #18352A",
"h  c #092534",
"j  c #032B35",
"k  c #0C2B33",
"l  c #022C3A",
"z  c #0B2E3A",
"x  c #122D33",
"c  c #192C33",
"v  c #0E3136",
"b  c #03333B",
"n  c #0D333B",
"m  c #123135",
"M  c #1C3235",
"N  c #12343C",
"B  c #1A383C",
"V  c #273227",
"C  c #22363A",
"Z  c #0C413C",
"A  c #27473B",
"S  c #324B31",
"D  c #011246",
"F  c #012A47",
"G  c #112A40",
"H  c #0C3542",
"J  c #0C3A45",
"K  c #023649",
"L  c #0C3D49",
"P  c #133B44",
"I  c #173A45",
"U  c #002B59",
"Y  c #033954",
"T  c #153B55",
"R  c #263D46",
"E  c #023061",
"W  c #024747",
"Q  c #0D424D",
"!  c #13434C",
"~  c #1B4649",
"^  c #035A4D",
"/  c #084758",
"(  c #024B5D",
")  c #124552",
"_  c #134A55",
"`  c #1B4A55",
"'  c #134C5B",
"]  c #005558",
"[  c #195957",
"{  c #14535D",
"}  c #1C535D",
"|  c #264748",
" . c #354B4E",
".. c #29524B",
"X. c #345748",
"o. c #264D56",
"O. c #265757",
"+. c #375759",
"@. c #0C6755",
"#. c #3E664F",
"$. c #28655B",
"%. c #396659",
"&. c #044964",
"*. c #0F4D6B",
"=. c #065669",
"-. c #165867",
";. c #045877",
":. c #175A75",
">. c #275C66",
",. c #375A65",
"<. c #235472",
"1. c #1A6569",
"2. c #03736D",
"3. c #066477",
"4. c #166877",
"5. c #197679",
"6. c #276668",
"7. c #366869",
"8. c #3B756A",
"9. c #246777",
"0. c #336C70",
"q. c #28757B",
"w. c #357875",
"e. c #445950",
"r. c #47785B",
"t. c #527454",
"y. c #4F6D6E",
"u. c #546965",
"i. c #437865",
"p. c #537967",
"a. c #467976",
"s. c #008972",
"d. c #348D79",
"f. c #4E805C",
"g. c #4A8567",
"h. c #568A69",
"j. c #488679",
"k. c #558F71",
"l. c #4B9879",
"z. c #6D8C73",
"x. c #59A47B",
"c. c #6FAB7A",
"v. c #899174",
"b. c #86AA7B",
"n. c #045A82",
"m. c #0F5A88",
"M. c #026887",
"N. c #176C86",
"B. c #017787",
"V. c #197687",
"C. c #056D96",
"Z. c #177996",
"A. c #277986",
"S. c #2A758F",
"D. c #0877A3",
"F. c #257EA6",
"G. c #577B8A",
"H. c #138B8C",
"J. c #028895",
"K. c #278388",
"L. c #3A8D89",
"P. c #37968A",
"I. c #238696",
"U. c #2D9997",
"Y. c #359191",
"T. c #1CA097",
"R. c #33A594",
"E. c #0082A5",
"W. c #0D94AC",
"Q. c #2797A7",
"!. c #3291AE",
"~. c #0BA9AF",
"^. c #2CAAB0",
"/. c #4B898B",
"(. c #48978A",
"). c #579688",
"_. c #499797",
"`. c #579A99",
"'. c #6E928F",
"]. c #679B88",
"[. c #59A68C",
"{. c #50AA96",
"}. c #75A789",
"|. c #6CAE93",
" X c #4F99A3",
".X c #7099A8",
"XX c #55A9A5",
"oX c #53B0AE",
"OX c #65B8AA",
"+X c #72B1AF",
"@X c #35C8BB",
"#X c #63CBA9",
"$X c #78C4A6",
"%X c #6DCCB4",
"&X c #76CBB8",
"*X c #269FCB",
"=X c #07BCC7",
"-X c #30B7CB",
";X c #00BFE1",
":X c #52B8C7",
">X c #69B4C8",
",X c #09D2D5",
"<X c #2DCED4",
"1X c #25D8F5",
"2X c #34EAED",
"3X c #52CECF",
"4X c #6BC4CD",
"5X c #74D6CC",
"6X c #78EAD5",
"7X c #4DE5EA",
"8X c #68E1E1",
"9X c #76EAE9",
"0X c #99AC8A",
"qX c #82A496",
"wX c #91B695",
"eX c #8DB4AD",
"rX c #A2B8AD",
"tX c #91C796",
"yX c #B8D99F",
"uX c #88C8AA",
"iX c #97C5AC",
"pX c #8DCEB4",
"aX c #94D6B6",
"sX c #ABD0B5",
"dX c #A5D6B9",
"fX c #B5E5B5",
"gX c #C8DCB1",
"hX c #98BDC5",
"jX c #8ECECA",
"kX c #9CD3C8",
"lX c #88D9D3",
"zX c #A6D8C8",
"xX c #B0D2D2",
"cX c #8EE6CD",
"vX c #A6E6C8",
"bX c #B0EDD1",
"nX c #9FDBE3",
"mX c #93EFED",
"MX c #B8E9E7",
"NX c #AEF4ED",
"BX c #B9FBF8",
"VX c #DDEECF",
"CX c #C6E9D7",
"ZX c #D3F5D6",
"AX c #D0F2EA",
"SX c #C6FBF9",
"DX c #D8F8F4",
"FX c #D4FFFC",
"GX c #DDFFFE",
"HX c #EBF4EA",
"JX c #E4FCF5",
"KX c #E3FEFE",
"LX c #EBFEFE",
"PX c #F4FFF7",
"IX c #F5FEFE",
"UX c #FDFFFF",
/* pixels */
"o o o   o O O O # O o O o O O - - - - > > > & & & & O O O   o o o + o * &   o o o o o + ; + + O & - & & - & & & o o o O o o o o ",
"o o   o o O O O O o o O O # - - - > > > & & + o O & & ; O a 0 u , & ;   O > , ; & o o +     o o o o O - - & & = & O O o o o     ",
"o   o o o O & O o o O & O - - - > > - & & O O > > w d a p v 8 a a a = +.B 9 q , q 8 1    .c   & o o o o O & & & - - O O o o o o ",
"  o o o o & O o O O O # ; - - q > - & & O & 8 - s b z z a h p 0 0 0 9 B f < q 8 < > p 8 M w > > ; & & O O O & > - - & O - O o o ",
"o o o O - - o O O O - %   8 - > > O ; ; 8 8 s n *.< s < < 1 * - ; ; X   O , ; > * - > > - > > > > > & & o o O & O - & & O O O O ",
"o o O & O   O O O O   M  .  1 & O *     ! ! n k k 1 - 0 > 1 , 8 1 % U - h > < < 8 , ; ; > , O > > > 8 8 & O O + & & & - - O # O ",
"O O O & O # O O - - & 0 c & > O &   | 0.8 u a > - > <   a 6 # s   I.-X6 Q ) n a k 8 p ; O + * & > > > 8 8 - -   o & - & - - O & ",
"  O # O O - o O & - > > & , O + ; s I o.< 8 a 1 8 a % k.#.X.4.L =.N.^.4.v ) ! -.J P J j z , & - O & & , > > 9 q o O O O O - O O ",
"o & + o & o & & > > - 0 1 o ; - s n k 8 f ; 1 l 0 #.%.k.X.I ' ! P s   J j N N ! ' Q -.Q H H b > + ; ; + & > 9 9 & o O O O & - O ",
"o & O & + o & - - 8 a d , O ; 1 J ) k c   l B X...X.( Y K n M N Q s n O ~ x < s : 0 L n x *._ Q n + h q o - - > u & * o & O O - ",
"- & O & o & - & a m s 1 O ; 1 n ' H V   '.u.A O.;.K ..A L N c k x f P c c B 2 2 w w # ; d , a / J   ;.  . & ; O   8     O O & - ",
"& o O O + & & 8 k n < O + 1 n { ` @ U +XjXoXU.Y P ! B A Q C N | S 6 ] ] o   F W g s c u 2 c f > Q *.<XQ.  a   c  .  C 0   O O - ",
"O & o + o   , 8 k k o + 1 4 *.4.@ j .X+X:XL.=.B n b L P B j ( O.t.e.a.}.p.p.p.z.e.$.Z 7 q   o @ n m.2X1X7     2 M   +.B   O o & ",
"& - o o 3 c 8 s s s , - : *.-.' @ 2.4X+X,.j j n N ) ` M F X.A G.HXfXCXxXzXkXuXbX%XgXpXd.u.eXoXY N.!.1X2X-XH.E H   ;   & > & o O ",
"- - O   c  .p B a < ; ; H ) _ s F 5 4X X  B Q B i ~ $.7 @.$X+XiXaXP.rX7.^ (.w.=.G.eX8.|.eXfXrX+.<.:.*X!.^.4.t a + & - < > - & o ",
"O O O O   8 ( v o + - # *.! ) ~ B [.P.r ~ [ ..O._ B ..#XfX5X#Xj.z.j   J T +.O.B j   B O./ $Xd.).i.h <.e   e x 0 > & & - > > - o ",
"- o & O O I o.o , + , N m n ~ 7 l.|.6.k q N J } O.6.U.5X).j.4.j.).3.9.Y M -.Q N z P P k V $.f.L.>.k.E.9 1 s a m : & O & > 9 - & ",
"- O o - O | y.  : ; 1 / ( ~ % v.rX3.{ ) P ~ / q.2.8XlXH.w.U K 9.|.B.L.S.B.J.;.5.A.O.' v , = t g.i.h.$XO.  d & Q n & + O > q > - ",
"O O o a 0 p % , ; a   O._./ ;.f.t.7 I N Q K.Y.R.pXrX.Xn...;.N.jXbX{.8X&XuX`._.T._.3XK -._ z s 6 e.W aX].  3 . _ Q 0 ; * O & > - ",
"O O O u 8 a ! ; , < p V.O.! &.wX|.7 O.P [ N.U.~.4XG./ S.S.S.xXxXZXcXoXxX%X+XsXdXiXaX+XH.~ K P k 9 F $.a.#.i , . L b o * & - - > ",
"o o - u 1 Q k + * 0 k :.Y h.#.&XXX% ..5.1.(.P.eXpXE w.s.:X4XCXnXNX-XF.C.M.E.E..XiXqXdX_.8.0.] z u m 3 -.j.V % : k _ a & + O & > ",
"& O - p j ! s ; 0 0 k 4.4.V d.{.h b -.1.h.&X{.kXe.Y E XXcX3X:X8XMXC.n.!.I.Z.Z.M.M.3.].kX#XK.&.x Q s s O.9.f.~   - J q 9 o * - > ",
"- - & k { s - 1 0 a L ' ..7 qX+X<.( -.=.+X5XOXXXB.V.3.>XMXMX~.mXNX&X3XE.Z.^.S.:.9.A.Y eXiXOX(.J 4.n ! t #.x.j , O B R 9 ; O O > ",
"- - > < z *.# , # Q -.u l y.eX).Y } [ N.!.).xX`.3.W.nXIXMXlX7XmXMXMX9XoX-X@XU C.N.5.4.R k.vX#XP.-.P d J M g.O.>   | a.  1 o & - ",
"- O - a n ' - : a J { I t |.vX{.&.' ..;.U.$X>X+XM.~.MXDXmX,XBXSXLXFXDXMXcX4X+XR.E.:.4.B.0.}.OX+X8.4.! k j F 9.-.. o & z - O O - ",
"O - < 1 J ! a - k 0 i ( $.).+X=.*./ K ].eXoX.X+XD.>XSXMX7X9XIXLXPXKXUXUXmX3X4XjXR.T.m.I./ s.zXeXw.( } P N = r.6.  ; x n 0 & o & ",
"o > > a _ L 0 ; s v N.K $.}.bXB.T } / }.rXlX+XxX,X>XKXmX8XKXFXBXGXFXKXKXDX2X-XjXoXJ.:.3.>.7 zXpXT.i.l -.n 9 X.A t X 0 P 0 * + o ",
"& > 1 a ! ` - : : ! V.N.t f.%XS.=.` W .X%XBX6XjX3X7XKXDXSXKXBXFXUXJXSXFXPXmX<X!.lX#X&.C.-.} 2.bXaX].K } H s t f.A   0 n k * o * ",
"& 1 o 9 >.r.% 3 1 k ' ( 6.{.aXt =.Y ( q.@XhXkXBX9X2XSXKXSXLXIXUXUXUXBXSXUXIXlX<XoXvXJ.I.;.t 2.+XzX$.>.n ! l ..z.9 2 3 k k > + & ",
"O   M H 6.h.% : , s *.-.g.b.bXaXp.d.).[.zXxXHXJXMXFXLXFXGXUXIXUXUXUXUXJXPXJXNXNXxXAXcXOXj.j.d.xXNXR.q.H ' l A X.9 0 3 1 p 9 o O ",
";   +.I M X.i : > , -.q./ wXaX&X$.A.0.%.z.MXDXFXFXBXMXLXUXUXUXUXUXUXGXFXUXBXmXmXeXjXkXB.7.X.W zXHX`.-.{ { H B | H & 2 , 0 > + & ",
"> ; O q ` e.j u ; 0 ) *.( q.'.&X|.Y D H &.,XbXmXMXMXNXNXBXFXIXUXUXUXKXUXGX8X@X^.C.XXeXJ.-.Y Y.:XsX}.0.( ! Q x B ) o 1 , 8 8 + O ",
"- - 0 0 N ..j s u > Q J 1.F }.ZXeX] A.I ` ^.>XxXMXlXMX9XSXSXBXKXUXUXUXUXnX<X*XE .X|.+X3.-.F w.~.aXXX=.' ) H b n H , 2 + 0 8 , O ",
"O O p 6 O.x.d k 0 X ' V.Q.-.1.uXxX@./.F ' :.~.#X5XMXFXBXUXDXKXKXUXUXUXBX^.-X^.J.2.uXwXr 6.y U.lXsXw.Y.J I L z s N a , . a p     ",
"; > 8 > m ..B k u s o 1.-X Xi F pX&XD N._ :.W.%X%XMXlXmXMXNXDXLXKXLXMX=X<XC.S.Y.J.aXOXD O.t R.bXaX[ -.= H / H k a p s + 0 o +.M ",
"O 8 < : 9 $.#.% m . Z.W.7XmXE.:.k.cX).=.{ 4.F !.W.hXeXjX4XSXjXnXFXlX,X7XT.W.G.'.eXpXB.I L | B.aXdXu.d.5.y F N.e s k ; ; 9 9 M w ",
"& > 8 , % A |.[ J ; _ q.<X,X:.>.t qXsX(.&.O.L &.;. X:XZ.!.5XW.:XNX3X3X^.Y n.^.|.cXx.  { { >.(.xX|./.! { { H.1XS.n e 2 ; , ,   o ",
"o ; > 0 = g k.8.l 1 0   8.:XU $ B b OXCX5.[ ;.:.G D U N.-XF.M. XkX-XD.n.7 j.].[.%X(.Y -.Q &.(.}.(.5.>.J H.~.1X-X-.h X * 9 ; > & ",
"& & > 8 s   8.k.t N , s m 4.S.I ` %.^ G.&X$XW.Y ` :.T y 1.N.C.u.dX;.N.,.2.fXVX|.|.>.( N 0.-.).XXb.S.-.B X   -.0 & < , O 0 q & O ",
"o & > < p 4 p r.i.' 3 u P N -.V.~ L z.[.].CXcXI.b ( =.&.E *.U t.tXK 3.`.uXvXc.P.n.=.} O.=.{.&Xx.}.z.F c I _ *.L 8 8 * + > 0 & & ",
"O * 8 > 0 8 % | ).t & j k J 2 5.K.~ e.i.@.v.vX5XcX5XOX2._.B.<./.vX5XpX{.$X^.d.0.3.Q Q j O.G.yXwXR...B k a z J H < a ; o , , - & ",
"& & > 0 , h 0   %.k...A 2 z N q -.K.2.o.]./ qX$XuXbXHX6XvXbXZXDXUXCXsXR.uX5.Y } N k P [ 8.rXwX`./.5 b c 9 z m J u < ; * > 8 & & ",
"& o + > : < C +.- %.8.S 6 k w k m 4.N.V.0.} g.XX+XH.|.|.OXp.|.tXyX^.{.{.y.3.4.4.P z } &.p.}.8.-.4.  ! f 0 n Q a 8 : & + 9 > & O ",
"O & O * ; > d R :   [ g.g.f X ' N.@ Q A.=.} q.K 2.$XT {.c.x.[.l.(..Xa.H.C.-.=.L Q 1.N.s.|.|.pXa.: ! N a h H z 0 < < & & ; > & - ",
"o & O + - , > % u 8 S t.0Xo.9 B } m d :.4.' -.=.6.j.I.w.(.#X`.L.|.3.=.;.' J Q -.T M.H.rXfXpX7.  N x 0 9 j P u 8 > ; * - 8 > - - ",
"O o - & & ; 1 a 8 8 0 i v.].' ;.N.@ J I n P ) Z.4.H.U.Q.U =.&.A.j.l N.j ' ' T 4.Q.OX'.ZXiXoX7 | s 0 u k l ) 0 1 1 ; ; < 9 > O O ",
"O O * & & * - , 0 8 w % 4 h.c.eX<X( @ + m N k 4.1.A.M.{ -.-.4.0.t./ d.[ ;.&.1.H.S.mXzX'.=X=XT 0 a w 0 H ) _   a > ; @ . > > & & ",
"& O o o - O O : 1 , h n C 7 kXSXBX9XW.5.` ' z a P ;.! -.4.4.Z.6.oX/ -.=.H.A.K.R.j.aXk.o Y.1.. k a a a ~ N O : u 0 T m.&.- > - O ",
"> O & o O - * ; q ; k / I C.>XmXNXSX8X~.C.4.  ~ ! m -.4.4.' Y K.(.Y I.` K 1.c.uX(.j.( C   . s 0 w ; s P > 8 < u > a *.Y X > - O ",
"- & & O + o & ; ; 1 : # - $ U 1X;X`.S '.[.5.6.6 j f l     l K -.{ H F O.a.pX&X/.F F f ! x h d 3 1 N.Z.  < u 1 - . O     > & O & ",
"- - - O O O o , 1 & 1 0 0 j @ Q.!.V ( z.eX$X8.i.X.~ 5  .A ..S h ) 7.d.yX}.6.6.! [ P k 1 0 0 , , k ` L C d 8 > + O + 8 > > & O O ",
"O - - - - O & O ; , + , 1 0 : D n.  k   % | Z uXtX'.OX'.`.`.qX{.(.l.OXqX1.( ( ) N n c 3 3 * L k 0 d   +.C % * O o - - > > & & O ",
"- O O 8 < - O & & 1 , ; ; < , k L , h c k 9 u O.p.p.>.(.].O.`.i.6...[ & Y -.w x a ; u u ; b J d 0 0 0 o - > O * & O > < & & & O ",
"O - O < & - - O O * * 1 d 1 . 1 x , w x z N d   % Y M =   s 6 &.k ! O.c L ; a a u 0 : 1 k z k a > > 0 0 - & + & O - > - & O O O ",
"o O - O & - - - - & + ; d X ` k . , ; 0 a f 9 ,.R 9 h k x h v H p a 6 u ; 9 0 1 * 8 j =.s s p : 0 p > - & * & O > > - - & & O O ",
"o o o - & - & - - - ;     o k d w 0 , , 0 , > C f , 1 3 2 a 0 ; u , 3 , 2 ; , a k N | l a 0 > 0   & ; - & O O & - & & > & O O o ",
"  O   o - - - - > ,   +.M   o ; , 3 0 d 0 0 ; O & : 0 8 1 , 0 3 : a u , a n z k q ~ ,.  1 : 0   +.M   & O & - - - - > & & o O o ",
"O o O o     O O q > & M w & , & & , w 0 x s v u v 8 , 1 ; a 0 d x > = J Q { H k u &   0 0 8 > > C x O o & - - - O > 8 & O O o o ",
"  O O O & o o O o O ; O & > 8 > - o   ; O a a 1 s m x c n ) P H b o.y.j J - a u d C > 8 8 > > ,   & & & - - - - - - O & O o o   ",
"o X   o O O O O o o o o & & & > o M +.  k a 1 a k P L k ! n a P z m ~   , u - O C ,.  1 > - ; O & O O - - - - - O - - O o o O   ",
"    O   o o o o o & o o o o * & O w c & 0 8 , a > 8 a a u 1 1 ; + &   , - - - ,     , > > > O O O & & - & - O O O - - X o o     ",
"o o   O o o   o o o O O o o o o o     +   O * o o X o o o + o * - O ; O ; > > > > , - & > q o & & > - & - O & & - O O O o o   o ",
"  O   O o O o O & o o O o O o o O & * o o o o + + o O + - & , > - > < > , - > - - - & & o o & O > & & & - & & & - o O         o ",
"O   O   o o o o o O O O O O O + O O + * o o O o O & & - - - - - > > > - - & & & - & - O o - & - - - & & O & O # O o O   O O     "
};
