/* XPM */
static char *result[] = {
/* columns rows colors chars-per-pixel */
"64 64 256 2 ",
"   c None",
".  c #0A0200",
"X  c #0B0B03",
"o  c None",
"O  c None",
"+  c None",
"@  c #170100",
"#  c None",
"$  c #17180A",
"%  c #010113",
"&  c None",
"*  c #090E11",
"=  c #03051A",
"-  c None",
";  c #0A1315",
":  c #0D1915",
">  c None",
",  c #0A161A",
"<  c None",
"1  c #0A191D",
"2  c #131816",
"3  c #111C1D",
"4  c #0E2914",
"5  c #2C310B",
"6  c #000525",
"7  c #00022C",
"8  c None",
"9  c #041825",
"0  c #0A1D22",
"q  c #031C2A",
"w  c #111E23",
"e  c #121B2C",
"r  c #000237",
"t  c #021737",
"y  c #141D34",
"u  c #0C2125",
"i  c #0D2A26",
"p  c #05232C",
"a  c #0B242B",
"s  c #0D292E",
"d  c #122629",
"f  c #15272A",
"g  c #18362A",
"h  c #092534",
"j  c #032B35",
"k  c #0C2B33",
"l  c #022C3A",
"z  c #0B2E3A",
"x  c #122D33",
"c  c #192C33",
"v  c #0E3136",
"b  c #03333B",
"n  c #0D333B",
"m  c #123135",
"M  c #1C3235",
"N  c #12343C",
"B  c #1A383C",
"V  c #273227",
"C  c #22363A",
"Z  c #0C413C",
"A  c #27473B",
"S  c #324B31",
"D  c #011246",
"F  c #012A47",
"G  c #112A40",
"H  c #0C3542",
"J  c #0C3A45",
"K  c #023749",
"L  c #0C3D49",
"P  c #133B44",
"I  c #173A45",
"U  c #002B59",
"Y  c #033854",
"T  c #153B55",
"R  c #263D46",
"E  c #023061",
"W  c #024747",
"Q  c #0D424D",
"!  c #13434C",
"~  c #1B4649",
"^  c #035A4D",
"/  c #084758",
"(  c #024B5D",
")  c #124552",
"_  c #134A55",
"`  c #1B4A55",
"'  c #134C5B",
"]  c #005558",
"[  c #195957",
"{  c #13535C",
"}  c #1C535D",
"|  c #264748",
" . c #354B4E",
".. c #29524B",
"X. c #345748",
"o. c #264D56",
"O. c #265757",
"+. c #375759",
"@. c #0C6755",
"#. c #3E664F",
"$. c #28655B",
"%. c #396659",
"&. c #044964",
"*. c #0F4D6B",
"=. c #065669",
"-. c #165867",
";. c #045877",
":. c #175A75",
">. c #275C66",
",. c #375A65",
"<. c #235472",
"1. c #1A6569",
"2. c #03736D",
"3. c #066477",
"4. c #166877",
"5. c #197679",
"6. c #276668",
"7. c #366869",
"8. c #3B756A",
"9. c #246777",
"0. c #336C70",
"q. c #28757B",
"w. c #357875",
"e. c #445950",
"r. c #47785B",
"t. c #527454",
"y. c #4F6D6E",
"u. c #546965",
"i. c #437865",
"p. c #537967",
"a. c #467976",
"s. c #008972",
"d. c #348D79",
"f. c #4E805C",
"g. c #4A8567",
"h. c #568A69",
"j. c #488679",
"k. c #558F71",
"l. c #4B9879",
"z. c #6D8C73",
"x. c #59A47B",
"c. c #6FAB7A",
"v. c #899174",
"b. c #86AA7B",
"n. c #045A82",
"m. c #0F5A88",
"M. c #026887",
"N. c #176C86",
"B. c #017787",
"V. c #197687",
"C. c #056D97",
"Z. c #177996",
"A. c #277986",
"S. c #2A758F",
"D. c #0877A3",
"F. c #257EA6",
"G. c #577B8A",
"H. c #138B8C",
"J. c #028895",
"K. c #278388",
"L. c #3A8D89",
"P. c #36948E",
"I. c #238696",
"U. c #2D9997",
"Y. c #1CA097",
"T. c #33A594",
"R. c #0082A5",
"E. c #0D94AC",
"W. c #2797A7",
"Q. c #3291AE",
"!. c #0BA9AF",
"~. c #2CAAB0",
"^. c #4B898B",
"/. c #48978A",
"(. c #579688",
"). c #499797",
"_. c #579A99",
"`. c #6E928F",
"'. c #679B88",
"]. c #59A68C",
"[. c #50AA96",
"{. c #76A789",
"}. c #6CAE93",
"|. c #4F99A3",
" X c #7099A8",
".X c #55A8A3",
"XX c #59B6A6",
"oX c #50ACB3",
"OX c #65B8AA",
"+X c #72B1AF",
"@X c #35C8BB",
"#X c #63CBA9",
"$X c #78C4A6",
"%X c #6DCDB4",
"&X c #76CBB9",
"*X c #269FCB",
"=X c #07BCC7",
"-X c #30B7CB",
";X c #00BFE1",
":X c #52B8C7",
">X c #69B4C8",
",X c #09D2D5",
"<X c #2DCED4",
"1X c #25D8F5",
"2X c #34EAED",
"3X c #52CECF",
"4X c #6BC4CD",
"5X c #74D6CC",
"6X c #78EAD5",
"7X c #4DE5EA",
"8X c #68E1E1",
"9X c #76EAE9",
"0X c #99AC8A",
"qX c #82A496",
"wX c #91B695",
"eX c #8DB4AD",
"rX c #A2B8AD",
"tX c #91C796",
"yX c #B8D99F",
"uX c #88C8AA",
"iX c #97C5AC",
"pX c #8DCEB4",
"aX c #94D6B6",
"sX c #ABD0B5",
"dX c #A5D6B9",
"fX c #B5E5B5",
"gX c #C8DCB1",
"hX c #98BDC5",
"jX c #8ECECA",
"kX c #9CD3C8",
"lX c #88D9D3",
"zX c #A6D9C8",
"xX c #B0D2D2",
"cX c #8FE6CD",
"vX c #A6E6C8",
"bX c #B0EDD1",
"nX c #9FDBE3",
"mX c #93EFED",
"MX c #B8E9E7",
"NX c #AEF4ED",
"BX c #B9FBF8",
"VX c #DDEECF",
"CX c #C6E9D7",
"ZX c #D3F5D6",
"AX c #D0F2EA",
"SX c #C6FBF9",
"DX c #D8F8F4",
"FX c #D4FFFC",
"GX c #DDFFFE",
"HX c #EBF4EA",
"JX c #E4FCF5",
"KX c #E3FEFE",
"LX c #EBFEFE",
"PX c #F4FFF7",
"IX c #F5FEFE",
"UX c #FDFFFF",
/* pixels */
"o o   o O & O O & - - - & O   O + - - > - > < & - O o & & O & O *   c w o & O * & & O > & & & O o O O & O O O o o         o     ",
"o     O O O & O - O O O O O - & - > > > - - O & O + O + + o + O >   ,.M   , & & * & & & & O & & > O O O & O O O O o o O o     o ",
"o o o - O O - - & & O O O - - - 9 q & - O & O o + - * + > 8 < 0 0 p o > 8 * 0 q < 8 < > > > > < > - & & O & & O o o o o o o o   ",
"o o o O O - - O O O O     - > < > > & + o O ; 1 - 9 0 h k a 9 < 8 0 0 8 < 0 < 8 > > 0 - 9 0 > & o > > - - & & - - O O O # o o o ",
"o o O O & - O O O O   w M - > - & O * + & 9 9   m n L z k 3 , , + . O ; * * + + o + + * & 9 . / K   > > < & - - - - O O   o o o ",
"O O O & - - - O O O   C +.  > & & O - o a q R a.& x 0 0 3 3 2 0 : 3 a , ; X < * ; ; + & * ; X N.:.. 8 - > > - - - 8 - - & O # o ",
"o O & - - O - O o & 8     , & + & + 0 n _ J B | o ; X o 1 0 & . < a p k e p < 0 0 8 , < * > ; T e O O & & & > & - > - O & O o o ",
"o & - - O O O o & 0 o  .M   O < < n Q L z ; O   .   q A 9 9 H ) J m i s B *.; 0 9 0 0 1 > 1 < 1 >   O + & O > & - O - # & & & O ",
"& & & > - O   q 9 < o c 2 G p p v / ) . 2   < > -.6.A f.h.e.| B n a k 0 F.-X3 T N H a 0 < 8 a 8 8 ; O + * & O - > - - O O - O O ",
"& & - O O O - 9 9 & >     Y t m a & . , o ~ p O.9.r.X.t X.A B k n z H N.1X1X-.*.J v / z u u . < < < > ; O + & O - - - - - O - O ",
"& & & O o O > > > ; + u   J.4.d i s 4 i V 8.x.g.t = 9 s l F l Q H L / K H.!.  _ z H m H H ! _ & u 8 8 % ; & & O O - - - - O - O ",
"& & O O o - > > & o .   6 -X~.. 3     e.j.6.r.M j P n J ~ _ -.L Q ) G e { H.. N e 0 8 h z l ) N < > d M > ; - + O - - - & - - O ",
"& & o & & 9 > > O q o W.2X2XF.e 9 [ '.a.-.O.t H v Q } } N H { &.' K = d.*.L N m j M f u 0 k n ! !   M +.o 0 - - O O & - - - O - ",
"& & o & - 9 > - - y ;.<X2X1X*X<.R.$XdX$.2 k Q d ! } l K O.q.1.0.=.L.-.d.~ -.*.F B l ) m 1 a u a s S.L   1 0 < -   & & O - - O - ",
"& o   & < > < & - # . *.m.Q.m.x k.h.W F M s N P 4.{ 8.'.$.T.`.}..Xw.@.y.^.5.A.z.X.5   ! x 0 3 e - N.' d < 1 u = M x & O - - - - ",
"& o o > > > - & + z L ) H m.,.7.6.p.X.9 u Q 4.-.r.A.Y.pXzXNXHXdXaXdXaXdX'./.b.0XT.L.9.; H s p d 0 0 k a 8 , 0   +.M   - o - - - ",
"& o O < < > & * > Q / ; @ E #.(.d.r.7 v v m L P.OXeXiXbXOXCXkX:X!.lXbXaXxX{.XXx.wX.X-.h.  | 0 k u 3 , k a u 1 u   - > + O & O - ",
"O o   > - O & & n ' u x   oXiXd.g.t s J *.( ].:X#XdXzX3.2.d.W P.w.U.T.B.)./.(.&XsX0Xi.aX7.7 ' . a d : J H z u < 0 > > - O o - & ",
"*   M w > < + ; H &.2 c   eXxXuX$.= x H 8.K.XXfXc.2.7 O.r k.X.U n y t | } &.-.[.G.rX{.}.uXoX!.:.. h 0 2 z z s 0 < u < - > 9 o - ",
"*    .M & > + z H x d 2 q u.wX/ V > ' ) 8.#XiXh.w.&.<.:.=.j.7.:.-.>.} J { Q 0.=.O.7.p.].sXdX=XP.. x 0 3 < h s d 1 1 < > ; > O o ",
"O &   9 < - ; k ) m ; u 6 d.{.[ k m :.H.P.kXeXR B.I.3.Z.I.XXB.R.3.r D I { 1.n O.j } &.s.rXZX`.  M Q 0 1 a 1 &.b   1 8 0 > - O O ",
"o o 0 q > & p J =.J # M b jXw.B P ' K }.zXc.Y 4.5.;.:.&.J.kXsXeX+X0XOXB.  Y ( } ! P } V.Y. XxXk.( f i v u ; j | 7.  ;   < - & - ",
"o + 8 < - , u J Q u w p $.gXrX  I O.3XaXqXn.S.4.:.J.J.#XvXSXkXXX+X$XkXdXx.d.>.=.L z k 1.M.+XmXaXj.F B v , u < N R & C ,.  1 - & ",
"  O 8 < * 8 k J ' 2 d i %.%Xa.l z A.[.iXiXM.4.N.D.|.XX6XoXbX+XC.`.2.J.eXcX%X}.n.:.H J ! L I.K.j./.F -.N a u ; k q 8 f M   > - - ",
"o , < 9 > < 0 -.! a 2 W z.bX;.B N 4.!.fX XM.:.C.U.rXjXQ.<XNXmXY.E J.L.`.}.x.].T.w._ 5.P =.4.B.T.pXk.! ) x a 1 a z k 8 O < > & & ",
"o , 0 8 ; < H ! N 8 2 F p.uXw.O.! ;./.sXR.Z.Z.U +X5X=X-XlXNXmX3X*X~.V.G.~.'.VXc.d./ 4.=.L ` 1.K.c.&X6.] w a 1 1 z H s ; & > > & ",
"o > 9 > , < L ) N d B   z.eX/.%.{ J._.+XJ.S.~.@X4X7X2XmXIXKXBX8X<X<XC.!.;.^.fXvXY.K.3.:.L / &.A.1.pX6.( :.; 0 ; n { > u ; > - - ",
"+ O B k O p ) k j ~ M o y.kX^ L M B.pX%XB.Z.R.:XcXnXFXUXUXLXUXGXnX~.<XY.Y 7 2.iX+XuXy.B.' ' 3.I.U a.{.1.K H , : u Q H , & > > - ",
"*   +.I . ; 6 4.J & c ] {.zX,.J ( A.jXrXC.Q.E.oXAXUXJXFXSXJXGXUXUXBX=X7X~.m.,._.XXT.[.H.:.z [ { ` [ fXqX% M 0 3 1 P j   ; O < - ",
"o ; = 9 X U <X~.. n L W ^.CXrX  4.L.8XoXF.n.3X6XAXUXLXSXBXUXGXGXUXUXxX,X3XD.N.;.aXiX_.a.=.M.d.-.I.F d.XXO.[ = 1 d = 0.|   ; < - ",
"O * 0 0 : % I.N.a s f 7 e.fX[.p :.B.XXcX*XC.4XbXFXKXFXGXUXUXUXUXUXUXLXnX3X-Xn.F &XCX~. X=.F / ( Y N 7.k...Q u < 0 > o.m & + > > ",
"  1 h 8 - <   -.J J z S t.HXaXz.l.OXvXVXNXNXNXMXKXIXGXUXUXUXUXUXUXUXGXSXbXvXdXtXbXPXyX[.}.j.t.oX/.{ ! /.0.j p e 2 z b k + - - > ",
"o a a 0 - < a Q Q N k | ` `.iXd.(.9.jXxXnX9X9XmXSXLXBXFXUXUXUXUXKXKXLXMXoX|.y.e.^.AXtXx.L.q.0.6.K.-.l [.i.&.H > 1 a H P , * > - ",
"O 0 8 q ; 0 O 4._ m x B ( A OX#X4.F N.xXCX<XE.7XNXIXFXBXIXIXUXPXBXLXFXjXE.M.C.E <.ZX{.[._.&.3.Z.Y W S qX(.6 m 0 0 0 P a 1 O < - ",
". p n p < : -  .I N B C p e.}.cXj.U n.S.>X8XxXnX,X9XKXLXKXUXUXFXSXDXNXBX8XF.m.*.B.bXp.x.OX=.1.1.' l  ._.+.a k h 1 a ) m 1 + & & ",
"+ O a u 8 , u %.X.b K L I F ^ fX'.w...S.:XaXMXMXmX7X8XSXSXKXPXSXSXUXMX4XQ.~.1.&.).vXXXc.[.U *.4.4.  A _.'.  x 2 1 * m ) a o - * ",
"& > a k 8 0   k.k.K B | ! M 6 #X5XH.n.N.s..X+XIXGXMXmXFXKXFXUXNX9XSXmX4XS.N.y *.3.6X$X[.w.U.` :.4.   .{.^.= k 3 1 u x k 0 o + & ",
"O O x z p ; < % %.=...B Q ~ $.[ U.5X X( w.E B.nXMXAXKXLXSXJXMXmXAXAXlXhX:XU T =.XXHX].T I.U.M.) -.l 5 XX>.c p w 8 ; x L a o & - ",
"& O 0 n q < > a X.X.Y ! H ) ~ B $.8XhXG.E Y V.E.!.4X>X7X7XFXBXMXlXNXNXhX|.D :.( &XbXH.$Xj.H.A.3.x s _ `.p.K q ; : 8 m P 0 o + O ",
"& O > a { k ; 8 a X.;.Z H m f ! O.2.uXjXpXe.B.M.n.C.,X8X9XNXFXMXxX5X%XE.;.z ` F cX&XeX2.6.4.1.H ! j X.iXp.% C c & m s x , o o O ",
"& O < ; n z < < l X.+.( B H I O.} q.T.!.eXkX.X.X+XeXnXjXBXKXGXmXxX#X&XQ.&.4.Y I.cX$X_.W =.Z.1.a I 6 8.iXO.. ,.C & a > a u O o O ",
"& O O 8 s z a 0 9 M S U.=.h L ..L Y P.I.T.[..XxX:X X+X6XkXHXAXvX4X!.E.F L ;.E.kXcXqXg.9.:.) k v . $.d.Z a f 6 9 ; k s u < - o + ",
"- & O & u ! u 0 ; l u.oXL.l B [ N ~ K.V.L.uX5X].$XXXlXBXhXxXBX,X~.:.:.4.O.[ $XZXv.^ -.} ' I H } :.q.}.X.9 m f , 0 s 0 a < X o o ",
"> - O + < ! 8 < c . `.5X:X,.  ! p J ~ [ 6.p.+XQ.U.eXrX&X~.zX`.( ` &._ ' ( 4.&X(.@.'.0.=.:.N x ' B.].+X% x v a 1 0 s + k 0 o o o ",
"> > & & >   0.o.< f    X+X+X).r h ) m I q.1.3.N.;.(.{.}.q.].%.K ! F N.=.).CX^.}.i.o.V.A.-.! = 9.!.'.`.  f x 0 < s u ,   & +   & ",
"& < & & -   | I k k V Y  X%X4X/.6.-.I ....=.} [ ..K Y ( / (.w.D q.^.D '.sXOX[ p.e.2.N.T i H . !.8XS ( x h w 1 , < w   +.M   * O ",
"- < > & O - . a N / J @ z M.5 ].}.3.7 7 % l ( [ ' L } ..Y j.A.K ] 2.&X&XqXb %.W I K.4.@ v @ ( 9XBX Xg . < ; 1 w 2 1 o M 0 . & O ",
"& & > < > * & - s J ' _ @ @ F N l.rXp.}..Xz 1.E &.*.T =.;.f.6.}.eXxXaXk.6 C ` ` I.1.m N.' V.<XSXmX;XQ.;.I z . 1 1 & > o o o O O ",
"> - - q < & O + * 0 n ' N._ s I 7 v.t.tX%XXX+X(.[.=.M.I.t dX%X%XZXuXF m.>.4 ~ V.V.q k _ B &.eXSXmX1XW.D x 0 k a , & > > & o o & ",
"O - & - & < > O & ; < m =.-._ _ ~ % ;.=...w.qXeXvX+XbX&X$XbXdX`.{.1.i D.<.F S.-.2 m 0 X q ' c.zX>XE @ : ; . ` x o < < & &   o O ",
"O + - - 0   & > O O ; 0 : -._ ) b | / ~ h.V 7 y.{./.{.f.[.b.wXq.F *..XmX,X:X4.H P v v c  ._.h.6 C.$ b 0 < 1 X . . - > O O o o + ",
"o & + -    .c & 1 , + + > : n *.N ( ^.>.W 3.O.b l +.$.t 6.g.( &.4.W.-X7X<X7.M N m 3 6 h.0Xv.# I B > < 1 ; f u   c w > & o o o & ",
"o + + - o M 0 > 1 a > * + ; # # n / o.V.1.4.{ f I / K N.( -.N.} N V.1.!.V.  s u s A ..g.t.i % n / + 0 , , 1 ;   +.M o O   o O O ",
"O o O + &   - > > u x < o , > > , 3   p h k L -.{ s N.Z.' =.-.) Q '   V._ 1 : 3 = ..8...S 0 0 p z ; 1 + , ; O ,   & - o + O o O ",
"O o o O o - - > > 0 v n z h < + + ; 0 , 8 0 a P n p s ! z x : 0 , X a . ; 3 H ' t k.#.  9 0 0 , ; < * , 1 & & - < > O o & o o O ",
"O & o o O + & O < & u k s d a + 1 , , 1 ; 0 0 * a s s : : , ; ; u < u m Q l r i.x.%.- < 0 8 0 1 0 - 1 ; + O - - < 9   O o o O O ",
"O & O o O O O O & - & 8 0 k N v o   > > + ; < < , ; ; , 1 4 : 0 x s m = } %.h.f.|   +.C o p , ; > ; , O - O - - & & o O o o O o ",
"O O O O o o O o & & - & < 9 p / o.y.& P z s - # > a 1 - o % p v z e Z #.}.k.f.p % u C x < 0 ; O & & O - O - - - & O o O o   o o ",
"o O O & O O - # o o & -   c  .q I | p p L ! z ' _ ! L ` r.h.X.e.~ x.X.O.A g   i 0 h > , , ; * & * o O O - - - - -   O O O o O o ",
"o O O O O O & O + O o + o 3 c   & o 0 0 < k ' z H H ' ) O.6.M ` B O.v p % = i p 8 , < ; * & & & O + O O > - O O & o O O o o o o ",
"o o O # O O & O o - + o +     O O * p 0 s 8 s < a < s a 9 F R p 0 6 - 1 0 < 8 < < < < & + O - O O O & & p - O -   O # o   o o o ",
"        O O O & + O O O O O O O & O + O > & & > & < , < o C +.o u u 8 < < < < < 9 > + O O - O o O & - - O O - O o o   o o o   o ",
"o o   o o o o O & O & O & - + O o & O o o & & * & & > - ,     - - & < 9 ; > - O - + o & & O O O & & - & - - O o o O o o o o o o ",
"o o o o o o o o o O & & O & - & & & & O O O > & > O O & & O ; > - O & O & o + O o & & O o O O & - - - + O # o o o o o o   o o o "
};
