/* XPM */
static char *result[] = {
/* columns rows colors chars-per-pixel */
"64 64 256 2 ",
"   c None",
".  c #0A0200",
"X  c #0B0B03",
"o  c None",
"O  c None",
"+  c None",
"@  c #170100",
"#  c None",
"$  c #17180A",
"%  c #010113",
"&  c None",
"*  c #090E11",
"=  c #03051A",
"-  c None",
";  c #0A1315",
":  c #0D1915",
">  c None",
",  c #0A161A",
"<  c None",
"1  c #0A191D",
"2  c #131816",
"3  c #111C1D",
"4  c #0E2914",
"5  c #2C310B",
"6  c #000525",
"7  c #00022C",
"8  c None",
"9  c #041825",
"0  c #0A1D22",
"q  c #031C2A",
"w  c #111E23",
"e  c #121B2C",
"r  c #000237",
"t  c #021737",
"y  c #141D34",
"u  c #0C2125",
"i  c #0D2A26",
"p  c #05232C",
"a  c #0B242B",
"s  c #0D292E",
"d  c #122629",
"f  c #15272A",
"g  c #18352A",
"h  c #092534",
"j  c #032B35",
"k  c #0C2B33",
"l  c #022C3A",
"z  c #0B2E3A",
"x  c #122D33",
"c  c #192C33",
"v  c #0E3136",
"b  c #03333B",
"n  c #0D333B",
"m  c #123135",
"M  c #1C3235",
"N  c #12343C",
"B  c #1A383C",
"V  c #273227",
"C  c #22363A",
"Z  c #0C413C",
"A  c #27473B",
"S  c #324B31",
"D  c #011246",
"F  c #012A47",
"G  c #112A40",
"H  c #0C3542",
"J  c #0C3A45",
"K  c #023649",
"L  c #0C3D49",
"P  c #133B44",
"I  c #173A45",
"U  c #002B59",
"Y  c #033954",
"T  c #153B55",
"R  c #263D46",
"E  c #023061",
"W  c #024747",
"Q  c #0D424D",
"!  c #13434C",
"~  c #1B4649",
"^  c #035A4D",
"/  c #084758",
"(  c #024B5D",
")  c #124552",
"_  c #134A55",
"`  c #1B4A55",
"'  c #134C5B",
"]  c #005558",
"[  c #195957",
"{  c #14535D",
"}  c #1C535D",
"|  c #264748",
" . c #354B4E",
".. c #29524B",
"X. c #345748",
"o. c #264D56",
"O. c #265757",
"+. c #375759",
"@. c #0C6755",
"#. c #3E664F",
"$. c #28655B",
"%. c #396659",
"&. c #044964",
"*. c #0F4D6B",
"=. c #065669",
"-. c #165867",
";. c #045877",
":. c #175A75",
">. c #275C66",
",. c #375A65",
"<. c #235472",
"1. c #1A6569",
"2. c #03736D",
"3. c #066477",
"4. c #166877",
"5. c #197679",
"6. c #276668",
"7. c #366869",
"8. c #3B756A",
"9. c #246777",
"0. c #336C70",
"q. c #28757B",
"w. c #357875",
"e. c #445950",
"r. c #47785B",
"t. c #527454",
"y. c #4F6D6E",
"u. c #546965",
"i. c #437865",
"p. c #537967",
"a. c #467976",
"s. c #008972",
"d. c #348D79",
"f. c #4E805C",
"g. c #4A8567",
"h. c #568A69",
"j. c #488679",
"k. c #558F71",
"l. c #4B9879",
"z. c #6D8C73",
"x. c #59A47B",
"c. c #6FAB7A",
"v. c #899174",
"b. c #86AA7B",
"n. c #045A82",
"m. c #0F5A88",
"M. c #026887",
"N. c #176C86",
"B. c #017787",
"V. c #197687",
"C. c #056D96",
"Z. c #177996",
"A. c #277986",
"S. c #2A758F",
"D. c #0877A3",
"F. c #257EA6",
"G. c #577B8A",
"H. c #138B8C",
"J. c #028895",
"K. c #278388",
"L. c #3A8D89",
"P. c #37968A",
"I. c #238696",
"U. c #2D9997",
"Y. c #359191",
"T. c #1CA097",
"R. c #33A594",
"E. c #0082A5",
"W. c #0D94AC",
"Q. c #2797A7",
"!. c #3291AE",
"~. c #0BA9AF",
"^. c #2CAAB0",
"/. c #4B898B",
"(. c #48978A",
"). c #579688",
"_. c #499797",
"`. c #579A99",
"'. c #6E928F",
"]. c #679B88",
"[. c #59A68C",
"{. c #50AA96",
"}. c #75A789",
"|. c #6CAE93",
" X c #4F99A3",
".X c #7099A8",
"XX c #55A9A5",
"oX c #53B0AE",
"OX c #65B8AA",
"+X c #72B1AF",
"@X c #35C8BB",
"#X c #63CBA9",
"$X c #78C4A6",
"%X c #6DCCB4",
"&X c #76CBB8",
"*X c #269FCB",
"=X c #07BCC7",
"-X c #30B7CB",
";X c #00BFE1",
":X c #52B8C7",
">X c #69B4C8",
",X c #09D2D5",
"<X c #2DCED4",
"1X c #25D8F5",
"2X c #34EAED",
"3X c #52CECF",
"4X c #6BC4CD",
"5X c #74D6CC",
"6X c #78EAD5",
"7X c #4DE5EA",
"8X c #68E1E1",
"9X c #76EAE9",
"0X c #99AC8A",
"qX c #82A496",
"wX c #91B695",
"eX c #8DB4AD",
"rX c #A2B8AD",
"tX c #91C796",
"yX c #B8D99F",
"uX c #88C8AA",
"iX c #97C5AC",
"pX c #8DCEB4",
"aX c #94D6B6",
"sX c #ABD0B5",
"dX c #A5D6B9",
"fX c #B5E5B5",
"gX c #C8DCB1",
"hX c #98BDC5",
"jX c #8ECECA",
"kX c #9CD3C8",
"lX c #88D9D3",
"zX c #A6D8C8",
"xX c #B0D2D2",
"cX c #8EE6CD",
"vX c #A6E6C8",
"bX c #B0EDD1",
"nX c #9FDBE3",
"mX c #93EFED",
"MX c #B8E9E7",
"NX c #AEF4ED",
"BX c #B9FBF8",
"VX c #DDEECF",
"CX c #C6E9D7",
"ZX c #D3F5D6",
"AX c #D0F2EA",
"SX c #C6FBF9",
"DX c #D8F8F4",
"FX c #D4FFFC",
"GX c #DDFFFE",
"HX c #EBF4EA",
"JX c #E4FCF5",
"KX c #E3FEFE",
"LX c #EBFEFE",
"PX c #F4FFF7",
"IX c #F5FEFE",
"UX c #FDFFFF",
/* pixels */
"o o o     o o o o o O - O & - - & & O o + & & o o & O & O & O - > ; O & & & O - & - & O & O & & & - & O & & O o o O o o   o o o ",
"o o o   o o O O o O - & - - & & O O o & & o & * * * > & 8 > & - -     < - - * & - & & o o O O o O + - & O & O & O o o O o     o ",
"o   o o   O o o o - & # - - O O + O & O O & > < < < > 9 < u u u o +.C o < > 8 & > & & ; & O O & O O O O + O O O O O O O O   o   ",
"o o o   o O O   # & > < - - O O o & & & * < < < < 1 8 1 , - 6 1 p I G q a a 8 u < k 0 a 0 a * O +     O o & & O O & O O o O o o ",
"o o o o # O o & & & & < O O O O & * & * ; 1 , 8 8 s & % q v $.B o.g 0.O.~ ' H H z { j 8 q 8 o O   c 1 o + o + + O O O - O O o o ",
"o o o o O o   - & - & & O O O - & * ; , > < h 0 u   Z A $...x.~ #.X.h.r.` L ! ' ' k Q L a q | I 8  .M   - + o o + - o O # # O o ",
"O o o o O o O - & > & & + O - + O ; 1 < d B 1 % p 8.k.c.#.B y l j a % % ; 8 u > # ; s z ! & y.o./ p 8 > & - - & O O o o O O o O ",
"o O o o o O # - - & O & O , ; > * > a O C ,.  | r.h.%.$.= k s s u , : 3 , ; & , , , ; + , ,     z N k 8 8 & - & O O O O O O # O ",
"o & o O O   9 < - > O + , 1 ; 0 1 1 8 u < - 7.x.i.r l L m u 0 u ; ; , 1 < s s u * 0 1 ; , ; : 1 O a d k z u & < O - O O O o & + ",
"O o o O o O < , - & & , , & 1 ; , 0 u 9 o #.h.t -.N 3 * . d X < 0 1 s k ! v u H L a 8 u < u ; + + 1 h k N n 8 - - - & O o o o O ",
"O o O O o - %   > + * < + 1 ; z h u u S ~ d...= 1 : 8 _ A.  ' Q ) -.*.' V.N.i ' :.L k h p   1 1 ; , <   < s a - > -   & O O O o ",
"O O O   O o C +.  ; 1 ; , 0 + / n % i t.h.S A p u s   5.~.1.V.I -.q.-.( N.K ( ~ u ' 4.1.V.O./ n # + > # + > d 0 > u M o + O O O ",
"O o o o & & w M   u d ; 1 8 - I B 4 z.0Xg.6 3 x P m 7.<X7X-XW.9.( / h.$.t $.%.t b ..4./ O._.&.N *.H : > + + > , & c  .  ; + & o ",
"O O O o & - -   . X 1 1 0 k $ C.7 k.]. .f k z I N 4.:X,XmXXX*.D q.wXb.{.f.c.(.|.y.7 V h.T W ~ n ! _ -.: 1 ; + O - &   8 - - + O ",
"O O o O - < , o m ` . , : . Y >XkXc.' 9 X w m 2 -.A.U <.E.i $.].'.kXbX&X&XbX+XvXeXqXd.X.=.=.% ~ _ ' *.-.N > ; & & > < & - - - O ",
"O o o & > > - , d h 1 k D Q.1XmXSXeX&.C _ z a 5.V.I 4 >.3.K uXZX%X%XdX7 I.B.&.XX).+X{.%XwXf.v.7 ~ i / N.{ n 0 ; O + & < q - - - ",
"O O o O o > & , w . z P n.!.;XNXBX<XV.} N.m -.I.~ ` I 9 k.pXxXrX|.$.f.;.=.T -.&.Y :.h XX|.p.rXl.m l @ @ _ ' L s ; * * > < < - & ",
"O +   w M o 1 2 0 , ; ,   V `.SX7X&.@ v @ 4.K.~ K %.H qX5X&X2.] Y A.j.K o.} L { -.( n % 6 7 ;.|.[.5 2.j @ L L H s   & O & - > > ",
"O &   c  .  w 0 > 2 0 h x ( S 8X*X@ J d Y N.2.e.z.^ |.sX).D /.q.D w.).( W Y K ..O.} 1.~ ..I -.6._.4X4X.XY V n k ~ R   ; & & < & ",
"& o O &   < 0 d 8 0 x f   z.].~.5.+ I :.A.A.o.i.[./.AX_.&.N.F I K %.].q.+X'.).;.V.;.1.9.P N ) k r  X+X+X.X  f > o.0.  ; & & > > ",
"o o o 0 x & k 0 1 a n x O qX[.C._ m m 4.=.0.].@.[.pX4.&.' _ { ` ( z.zX^.%XrXeXU.Q.+Xp.6.{ ! J a ~   ,.:X5X'.  d > 8 I 8 O & & > ",
"o o O 1 a 0 d 0 3 f m 9 | #Xq.:.' N P ` } } ^ v.bX$X{ $.5.:.:.Q.,XMXxXjXSXjXoX$X[.5X$XP.V.K.Z N [ M p L.oXu.l , u a ! u - O & - ",
"+ o & < 0 s v ; < 6 d 0 Z d.>.. N x ) ;.q.j.qXvXcXQ.=.J F W.~.5XbXDXHXkX6X>X.X>XxXXX|.R.U.Y./ J ..P z =.!.S N < u p n a 8 O O & ",
"+ o O u a < u O C ,.  O.iXr.6 ! u 4.V.=.K `.$X5XI.E :.&.!.%X+XxXmXGXKXBXlXxX+X+X`.oXkXeX~.R.q.[ [ I H B Y +.X.b < < z n - > O & ",
"+ o o , k s m & f R % p.wX#.j ! H 6.4.>.s.+XuXaXJ ` N ;.W.%X4XnXMXFXMX9X8X,XC.;.M.B.e.pX>XpX2.O.! d m H L =...u 8 - k { k > O & ",
"O O o 0 P m 0 , : q K p.'._ s m 3.A.H.j.uXH.vX5X] :.D `.hXMXBXlXNXBXDX2X7X4X4X~.W.A.Y E G.hX8X$.I ~ _ n P Y X.#.u > < 8 b 0 O & ",
"& * o a L x ; 8 0 e m >.OX5 l -.! M.U.I.T [.HXoX=.T U :XjX5XSXAXmXMXPXSXKXGXAXMXnX2.U d.{ .XlXU.O.$.~ W B X.( %.= < - a z s + O ",
"& + o 0 k c 0 8 w x = P.'. .  4.-.[ Q.w.(.#XlX3.*.h S.m.pXmXSX9XNXIXGXKXDXmXMXDXIX+XXXs.S.n.B.5X#X6 M P ~ ~ Y k.k.  u < z a - & ",
"- - o u ! m ; 1 2 x   ].`.A   4.4.*.U {.c.OXvX X&.1.*X!.4XMXUXSXSXUXGXSXSX8X7XnXNXMXlX:XS. .w.`.fX@.F Z Q J H ..%.u > 1 u u & & ",
"& * + 8 n ) a 1 h k h +._.| l { 4.1.=.#Xx.p.bXB.:.m.F.8XMXNXDXSXFXUXUXKXLXDX9X,XnXnX3X4XS.;.U j.cX|.e.k C I n B X.= 1 1 p n a   ",
"- < o 1 u P 0 0 8 m 6 ).qXS Y L V.4.E `.[.|.ZX-.U C.M.W.jXFXLXBXIXIXIXIXBXFXUXBX7XW.3XCXxXN.K 9.oX$XA / N x M ' 4.+ 8 ; 0 0 8 o ",
"- < * ; P P a 1 * H =.i.[.l -.K.6.q.A.L.l.tXDX/.e.y. XoXMXLXGXKXUXUXIXIXFXBXLXSXmXnX8XkXxXlX9.l.j.iXG.' | k n ! Q a 8 - 0 a u o ",
"< * & * z b N , u p l 6.(.) { (.XXt.j.|.{.yXPXbXtXdXzXmXFXKXUXUXUXIXUXUXUXGXLXKXMXNXbXmXVXxX|.).z.aXZXt.S k J L -.  < ; 8 p 1 o ",
"- > & & c o.- 0 1 a ! ..l.0.n Y ( &.F =.'.^.CX5XK ;.-X3XnXLXUXUXUXUXUXUXKXFXKXFXMX5XJ.-XcX{.J.;.p _.fXu.7 f a a N.I.% : 0 u & O ",
"- 8 *   | 0.& a 1 = O.O.OXd.K I.-.d.4.=.j.`.sXpX3.N.Z.3X,XxXUXUXKXGXUXBXSXLXUXDX9X3Xn.F.oX8XL.9.  rXCXj.^ J N   ^.-XE X 9 = ; o ",
"& < O :   l P > 1 u c % qXyX[ ` *.{ j 3.H.{.R.XX`.>.;.^.7X;XSXUXUXGXJXSXGXJXUXMXoXE.!.C.xXpXN./ J 7.xX}.] c O P 3.= ,   B +.  * ",
"& 8 - ; , J ) a 2 , J Y 1.}.a.Y H.3.' { C.y.uX&XiX2.r T T.<X^.nXKXUXLXUXPXFXmXcX:XD.Z.M.%XpXB.M L ^ zXy.% C ~ j m ! a O x B o O ",
"& - < - u - ' n ; 0 ; -.&.>.pX1.A.&./ L 1.;.5.T.zXfXd.n.~.C.-X,X8XBXKXIXmX2X3X4X@X^.I.J.+X`.J.{ +.(.iXp.  B s N ) Q < , < 9 > o ",
"& < - * ; a L x 1 1 a 0 ] 6.%Xc.K.-.) Q =.1./ l.c.VX'.^.G.Z.^.*X<XmXMX6X,X-X5X+XU Z.Z.J.sX_.3.) O.w.uXp.F 2 < N ) H < * 0 0 > o ",
"& - - < O 9 k k a 1 a x ) N ).uXP.H.N.-.Q 4.' 8.P.[.[.|.'./.J.E Q.mXBX<X!.jXrXR.C.:.M..XdX~.1.N B =.bXz./ 2 a ! -.0 < < q , > o ",
"& - ,   B d 0 q k - 0 u N -.K (.j.I.I.T / J H :.n.|.%X6XeXs.B.'.C.eXvX^.5XOX XE.4.4.C.eXiX{.q.z l a.%X#.g w : { H k < ; < q &   ",
"& & ,   ,.C & | N < u , n B F j.aXcX%X3.6.z j L =.>.(.x.aXkX$X|.XXzXAXbX#XJ.J.4.5.A.3.qXaX3XO.I   eXgX$.a w 0 ) P q , - < < + o ",
"- & & <   >   ,.| j , u k d f ( k.xX.XH.V.} ! Q ` ( Y   B.+XwX+XeXdXaXJ.&.:.m.4.4.U c.dX|.Y &.I B w.jXb c * J =.J a - > 0 8 o o ",
"& & & < 1 8 0   b *.1 u 1 0 ! M % '.ZXrXs.&.} j O.N -.{ I D 7 3.D.B.OXQ.Z.;.I.B.R eXkX_.H.:.x s [ }.d.6 u 2 v ) k - - 1 9   * O ",
"O o - > > < 1 0 a s h < w 0 x   Y.=XpXyX{.p.a.+.=.8.Q *.L -.>.>.-.7.j.=.:.<.' w.k.sXOX8.! _ > V / wXp.a 2 d x H z + > & M  .  * ",
"& O q - - < 8 , 1 k k n 2 0 a . 1.~.oXpX|.}.wXG.`.:.( O.| t y F Y X.k.D O.7 2.c.fXOXH.8.H v = $.$XxXeX  M 1 &.H - & > < w M   & ",
"& & O O - > 1 0 1 u z J J , d a   *.7 7.pX8.wXsX&X).(.R.2.R.U.w.Y.W d.2.2.zXzXOX:X).( *.J a t h.d.iXoX  s a ) n & * o - >   o O ",
"- + & O O > -   0 1 u a k , 3 0 x w R   a.-.|.0Xl.#X}.xXaXCXlX~.oXlXxXOXbXpXeXOXP.W v v k t r.d.).+.E @ - ) / > ; & > < < + o O ",
"- - - O &   M +.  0 , 0 e k 1 u u a s H : 6.L.R.qXb./.}.aXaXdXaXfXVXNXzXaXT.w.8.$.4.Q u > #.i.6.%.7.m.N Q J z * & - < > - o o & ",
"- - - & & & x M - 0 > < a ' N.# a w 0 x )   5 +.z.d.4./.y.$.q.{.qX`.U.$.].i.( 4.J n s m F W h.l.h :.!.M.*.. * & & < - < & o O & ",
"- O - - O & &   - 8 8 0   L Z.x a 0 u 0 x ! l N F *.>.) d.>.Y.=.7.<.q.>.Y l } ! d ) h 3 $.dX$XD.N.*X1X2X<X;.s > & > 8 & & o O & ",
"- & - - - + O & - - 0 o +.C   I ! N k u u x c k m N L { 5.= K ' ( -.H n } } L z K t ..} j.].o.q e F.2X2XQ.  q * - 9 8 & O o & & ",
"O & - & - & & O O ; - - C d < < N ! l j j q 0 u N . H.-.y n ! Q Q -.` ! J n N b M r.>.j.#.    1 . ^.-X7     o & < < & o O O & - ",
"& & O - - - - O O & & , o 9 0 8 O ' ! P H n G z )   ~.B.K / L H Q b l l s 9 > t g.x.i.V f 3 i a e 4.H.. u & ; - < - O o O & - & ",
"O & & & - - - - O & + O - > 1 < 1   0 u z ) v J =.-.1X1XN.H z z h A | ..t X.i.9.} j | O , . & a m t T   o - - 9 9 & O O & - & & ",
"O & & O - - - - & O & & + + - 8 8 a 8 8 8 u H H I 8 :XF.0 k s N B A e.h.t.A >.-.- ,   : . / ) v q a F 2 c O > 9 9 o % & > & & & ",
"O - & - O - O - - - & O + O   , w ; < , < 8 u < 8 ; -.N s a N J _ n 6 q A q   .   O ; z L Q z , > +   M  .o u O O O & O & > & o ",
"o O O O - - < - - > - O - O + a T 2 ; ; < , 8 u 0 < p e k h 0 < o - 0 3 o . > o | N H ' n 0 * & * & >     8 & O O + & - - & O O ",
"o o O & - O 8 > - - - < & 8   :.m.@ > * - + : ; - , X , : a , 2 1 2 3 0 0 0 x & a.R q a o ; O + & ;   +.B   O O O & - & & O O o ",
"o o o O O O O - - - - < > >   F &.  > & * O + o + + * * ; + . * : : 1 s n P z m   9 8 * & & O & & < & M w   O O O & & & O O o O ",
"  o o O o O O & & - & - & < < o & - 0 9 * 8 > - < < 0 < 8 0 0 0 8 0 a x k 0 0 - 1 ; O o & O > > > 8 -     O O O O - - & O O o o ",
"o   o o   o O O O & O O - * & > 9 - > > - 8 0 8 8 p & < > o q 0 8 < 9 > O & & & o O & O - & q 9 - - & O O O & - - & & O O O o   ",
"  o o o O o o O O & O & O O O - & & & & - & & * & & <   M ,.  , O O O o O O O O & O & - - - - > & & O O O O O - O O O O O     o ",
"    o     o   o o O O O & O O O O & & - & & & * & O &   w M   & O + & & * o & * & < < > > - - & O   O & - - - & O O # o o o o o "
};
