/* XPM */
static char *result[] = {
/* columns rows colors chars-per-pixel */
"64 64 256 2 ",
"   c None",
".  c #0A0200",
"X  c #0B0B03",
"o  c None",
"O  c None",
"+  c None",
"@  c #170100",
"#  c None",
"$  c #17180A",
"%  c #010113",
"&  c None",
"*  c #090E11",
"=  c #03051A",
"-  c None",
";  c #0A1315",
":  c #0D1915",
">  c None",
",  c #0A161A",
"<  c None",
"1  c #0A191D",
"2  c #131816",
"3  c #111C1D",
"4  c #0E2914",
"5  c #2C310B",
"6  c #000525",
"7  c #00022C",
"8  c None",
"9  c #041825",
"0  c #0A1D22",
"q  c #031C2A",
"w  c #111E23",
"e  c #121B2C",
"r  c #000237",
"t  c #021737",
"y  c #141D34",
"u  c #0C2125",
"i  c #0D2A26",
"p  c #05232C",
"a  c #0B242B",
"s  c #0D292E",
"d  c #122629",
"f  c #15272A",
"g  c #18352A",
"h  c #092534",
"j  c #032B35",
"k  c #0C2B33",
"l  c #022C3A",
"z  c #0B2E3A",
"x  c #122D33",
"c  c #192C33",
"v  c #0E3136",
"b  c #03333B",
"n  c #0D333B",
"m  c #123135",
"M  c #1C3235",
"N  c #12343C",
"B  c #1A383C",
"V  c #273227",
"C  c #22363A",
"Z  c #0C413C",
"A  c #27473B",
"S  c #324B31",
"D  c #011246",
"F  c #012A47",
"G  c #112A40",
"H  c #0C3542",
"J  c #0C3A45",
"K  c #023649",
"L  c #0C3D49",
"P  c #133B44",
"I  c #173A45",
"U  c #002B59",
"Y  c #033954",
"T  c #153B55",
"R  c #263D46",
"E  c #023061",
"W  c #024747",
"Q  c #0D424D",
"!  c #13434C",
"~  c #1B4649",
"^  c #035A4D",
"/  c #084758",
"(  c #024B5D",
")  c #124552",
"_  c #134A55",
"`  c #1B4A55",
"'  c #134C5B",
"]  c #005558",
"[  c #195957",
"{  c #14535D",
"}  c #1C535D",
"|  c #264748",
" . c #354B4E",
".. c #29524B",
"X. c #345748",
"o. c #264D56",
"O. c #265757",
"+. c #375759",
"@. c #0C6755",
"#. c #3E664F",
"$. c #28655B",
"%. c #396659",
"&. c #044964",
"*. c #0F4D6B",
"=. c #065669",
"-. c #165867",
";. c #045877",
":. c #175A75",
">. c #275C66",
",. c #375A65",
"<. c #235472",
"1. c #1A6569",
"2. c #03736D",
"3. c #066477",
"4. c #166877",
"5. c #197679",
"6. c #276668",
"7. c #366869",
"8. c #3B756A",
"9. c #246777",
"0. c #336C70",
"q. c #28757B",
"w. c #357875",
"e. c #445950",
"r. c #47785B",
"t. c #527454",
"y. c #4F6D6E",
"u. c #546965",
"i. c #437865",
"p. c #537967",
"a. c #467976",
"s. c #008972",
"d. c #348D79",
"f. c #4E805C",
"g. c #4A8567",
"h. c #568A69",
"j. c #488679",
"k. c #558F71",
"l. c #4B9879",
"z. c #6D8C73",
"x. c #59A47B",
"c. c #6FAB7A",
"v. c #899174",
"b. c #86AA7B",
"n. c #045A82",
"m. c #0F5A88",
"M. c #026887",
"N. c #176C86",
"B. c #017787",
"V. c #197687",
"C. c #056D96",
"Z. c #177996",
"A. c #277986",
"S. c #2A758F",
"D. c #0877A3",
"F. c #257EA6",
"G. c #577B8A",
"H. c #138B8C",
"J. c #028895",
"K. c #278388",
"L. c #3A8D89",
"P. c #37968A",
"I. c #238696",
"U. c #2D9997",
"Y. c #359191",
"T. c #1CA097",
"R. c #33A594",
"E. c #0082A5",
"W. c #0D94AC",
"Q. c #2797A7",
"!. c #3291AE",
"~. c #0BA9AF",
"^. c #2CAAB0",
"/. c #4B898B",
"(. c #48978A",
"). c #579688",
"_. c #499797",
"`. c #579A99",
"'. c #6E928F",
"]. c #679B88",
"[. c #59A68C",
"{. c #50AA96",
"}. c #75A789",
"|. c #6CAE93",
" X c #4F99A3",
".X c #7099A8",
"XX c #55A9A5",
"oX c #53B0AE",
"OX c #65B8AA",
"+X c #72B1AF",
"@X c #35C8BB",
"#X c #63CBA9",
"$X c #78C4A6",
"%X c #6DCCB4",
"&X c #76CBB8",
"*X c #269FCB",
"=X c #07BCC7",
"-X c #30B7CB",
";X c #00BFE1",
":X c #52B8C7",
">X c #69B4C8",
",X c #09D2D5",
"<X c #2DCED4",
"1X c #25D8F5",
"2X c #34EAED",
"3X c #52CECF",
"4X c #6BC4CD",
"5X c #74D6CC",
"6X c #78EAD5",
"7X c #4DE5EA",
"8X c #68E1E1",
"9X c #76EAE9",
"0X c #99AC8A",
"qX c #82A496",
"wX c #91B695",
"eX c #8DB4AD",
"rX c #A2B8AD",
"tX c #91C796",
"yX c #B8D99F",
"uX c #88C8AA",
"iX c #97C5AC",
"pX c #8DCEB4",
"aX c #94D6B6",
"sX c #ABD0B5",
"dX c #A5D6B9",
"fX c #B5E5B5",
"gX c #C8DCB1",
"hX c #98BDC5",
"jX c #8ECECA",
"kX c #9CD3C8",
"lX c #88D9D3",
"zX c #A6D8C8",
"xX c #B0D2D2",
"cX c #8EE6CD",
"vX c #A6E6C8",
"bX c #B0EDD1",
"nX c #9FDBE3",
"mX c #93EFED",
"MX c #B8E9E7",
"NX c #AEF4ED",
"BX c #B9FBF8",
"VX c #DDEECF",
"CX c #C6E9D7",
"ZX c #D3F5D6",
"AX c #D0F2EA",
"SX c #C6FBF9",
"DX c #D8F8F4",
"FX c #D4FFFC",
"GX c #DDFFFE",
"HX c #EBF4EA",
"JX c #E4FCF5",
"KX c #E3FEFE",
"LX c #EBFEFE",
"PX c #F4FFF7",
"IX c #F5FEFE",
"UX c #FDFFFF",
/* pixels */
"  o   o O   O O O # & O - & & - & & & + & & & - & & & - - - > < - - & & & - & + + + o o & + O O O + O & o & O O o o   o   o   O ",
"o     o   O O & & - & & & & & - & & o o & & & - - > - > < < > & - < & ; + & + o o o o o o & & + o o o o O o o O o o O o O   O   ",
"    o o o O O - & & O - & - > & & o 9 < & - , > ; , > > + & + - & o + o o o   o + + o o +     o o o o o o & o o o o o o o o   O ",
"  o o o o & & & O & & & - - - O & o < - > <     < & - ; ,   & - , 1 0 u 0 a 0 , a < < 0 & c w o + & o o o o + + o o O o o O     ",
"o O   O O & & O - - - - - O O & + - & - 0   ,.C o ; u ,   | M k P u n ! x L P k u u a k   +.M o > - & & o o o o O O O O o   o o ",
"  O O O O O - - - - & & & & -   > > < 8 9 - C d q s - J j 0.o.l P P _ v x x m s < s u O ;   % ; > < > - o & &   O o o O O o o o ",
"    O O & u > O - - & & o & k C & < 8 0 0   & 0 k H { Q P = - v a 0 a ; 0 , 0 m a v a x 0 u 1 * - < & w M o < 9 O O o o O o X O ",
"O O O & - > - - > & & + +   M +.  0 , 3   7.~ q k z n u ; d a , , 0 1 1 8 8 , & O ; 1 0 s 1 2 , ; X   M ,.  < > - - - O o o o o ",
"o O O & - & & - & O & + - - &   1 < 0 a b | B k a 1 ; , 3 1 1 u ; 0 s ; 3 1 2 f C < 3 1 9 , 0 0 a x X     > - & - # & & & O     ",
"o O & - - - > & O & & - - < 0 0 1 u s s &.j < ; 1 1 0 ; 0 = a p H c z x k h 9 R ,.6 f a 0 , 2 . k ` X u ; + & - - > - & & - O O ",
"& O O - > > & & & + & - 0 0 < < a z z k 1 , u u a a ; L c O.W k &.6 a   = c K %   d m n x 0 ; z 0 . < f < * & + O - & - > & - & ",
"O O O - < > & & & + - - o 1 < 0 a H n , u u , a x w -.Y % $...6.8.).+.].(.1.p.p.O.q 9 x c e 0 J s , 1 ; , , , * & O - > < O & & ",
"O O - - > & & O + ; o C +.  a a h L 2 3 1 k v N ) ( ( 1.qXXXl.).{.qX_.`.}.OX'.wXiXW  .o   x . n.D # 1 1 ; * , ; o - O - & - & & ",
"& O - > > 9 & + O - q d C L ' h 1 , , u 1 k B { P 6.6.}.gXd.7.) k S | A  .V [ X.i.8.#XqXz.( g !.Q.@ k 0 0 1 * 1 1 o O O & - - & ",
"O O & >   . + . - 8 0 <   S.N.w 3 d s k Q f F K ).&XpXa.} F H { -.L l   . l h l 6 6.5.`.].S XX;X1XU $ > # ; < ; ; - X O O & & - ",
"O - > O K :.0 < 0 < 8 8 P k # 0 u a . . C ( k.P.uXc.1.U ' H.Y (.K.Y { 4.4.' M ! ~ . :.B.~.8XSXNXmX>XC.I / z ; 0 > + - O O O & - ",
"O - > > / m.T 3 0 < + N ! a a u x . :.Y.o k.aX/.P.K.K.Z.-.1.( XX6.H.1.4.-.! :.P a n ' ` 5.~.9XSXBXkXr I n p 1 1 ; + + - o o + & ",
"O & > >   X , , p . / ! H u 3 h 0 ' ~.=X'.xXcXS.H.1.( 3.{ d./ t.9.4.:.' { M.K.4.4.x n m = . &.<XeXc.h.4 % 0 8 < , ; * & & & o & ",
"O O > < < ; ; < < u ) b k u 1 s | 7 oXpXZX.X>XU.4.) ( ' l 3.F j.A.E 3.U Q.U.H.4.V.) P B I I @ N.&._ ].v.i 8 0 8 p 0 ; & & & + O ",
"- - > q & + ; , < u P h 0 0 m N   7.pXyXrXH.M.Y -.Q Q / :.=.;.|./.[.#X(.w.I.j.6.*.;.' -.:.d x } B p  .0Xt.S 8 u o < , * + O & o ",
"- & - ; & * < < 0 z n h a m ! : a.iX$X|.s.V.1.! L =.-.C.H.a..X{.(.[.l.c.[.T uX2.W q.-.=.A.Y @ N.' X c g.g.|   < R x < * & O & O ",
"+ & < 8 + * , 0 a / n q f !   <.-.8.c.p.( } z H 4.4.3.y.R.[.^.yXtX|.p.#X#X[.s.eX Xg.} 7.V.N.4.N k u k 6 S 8.%.> +.M > , < + o & ",
"& & 0 > + ; 8 u H m H 0 c l 5 L.[.rXrX6.} Q k N _ / 5.tX{.iXZXIXDXZXCXvX6XHXvX&X$X.XW ].o.2.K.1.q m m 3 ~ ..k.%.  0 s < 0 - & & ",
"& - < > o ; q < H H z a k B X.R.qXyXG.O.j P ! 3.w.d.^.%XXXpX&XvX/.-.B._.3.OX5XaXcXvXv.@.p.e.Z I.5.3 P k s = t x.| % 8 8 < 8 & o ",
"& & q < + ; 0 0 T *./ N m F z.qXx.&X[.=.O.` =.n.U.c.vXiX`.M.F tXt.U -.&.*.=.( K I.cXCX[.[.z.Y ~ V.-.N N u 1 { i.r.p u u > < & o ",
"+ & q < + < , - < -.  . B &.L.b.XX].=.0.N ( >.|.[.VXfX3.,.N.;.dXy.C.m.-.h T :.` Y W.uX&XG.^ %.` P S.5.m x , P r k.r.  k < < - & ",
"& < ; 0 + X h -.-X1X~.I.L >.5.(.|._.&.! 1.K l.%X[.]./.7 n.D.-XkXG.C.F.-XN.U D G 4.=.{ 4.CX|.b B 4 F :X0.  1 3 l %.k.Z = < > ; o ",
"    < < * : q N F.1XH.[ { ! /.}.xXP.O.{ {   x.6X}.^.n.Y ^.3X3XNX:XW.4X!.N.:X_.;.&.L O.&.`.sXqXq >.<.,X<XA._ + L [ |.S o 1 8 - - ",
"w M > 9 ; ; k s 1 N.K e V.w.y.dXaX2.| L I B.kXeX'./.~.T.7X,XlXGXnXjXBX%XhXhXjXW.!.F 4.' &.).cXk.:.E.mX7X~.V.. m = %.O.8 1 < < o ",
"c ,.o 0 + s a a k n / H = -.@.aXZXR.t O.D OXaXH./.S.B.<X=XxXLXKXIXFXNXMXmX5XNX4X%XW.:./ N.D %XaXF i  X-X1.. a u z Z X.v > 8 < - ",
"  . q u . 2 a N s n L ! J Y.w.zXlXY.y >.r wX$XB.J.^.-X-XBXUXUXUXKXLXDXUXSXDXMX5X$X~.:.&.F /.2.zXuX1.*.W.V.&.X 0 s d x.O.6 u + O ",
"* , q 1 + , < H v n H Q ' =.{.aX~.A.K -.;.+X|.'.E *X<XnXUXUXUXUXKXBXSXSX9XSXlXxXxX4X^.` I q.] rXVX|.D 9.P ! ; u s z ..N 0 8 > - ",
"+ + 0 < , 0   _ B k L L &.0.qXfXoXY.Y :.D.eXOXC.Q.<X8XGXUXGXUXUXUXIXFXBXNXmXMXMXnXbX,X&.K D Y |.$X'.q.&.{ Q q ; 0 z #.O.q o ; > ",
"& o < q ; 2 * P | B H -.' 6.`.VXkXW  .0.B.aXkX+XNXmXBXUXGXKXUXIXUXUXUXUXPXMXBXGXGXDXNXz.%.w.q.$.5XaXwX( A.-.3 * < p X.g I +.  ; ",
"O o 8 a 1 3 0 6 e.A l ' H q.U.NXxXd.j.k.OXaXAXvXBXNXKXLXJXUXUXUXIXIXUXGXGXJXFXNXKXHXxXzX[.).j.p.dXbXb.g.-.-.d , 2 % h.0.F M   + ",
"- o ; k k w , 9 h...l ! N >.$.zXOX2.t ;.I.J.vXoX<XcXIXUXSXBXUXUXUXIXLXSXKXSX7X9XNXkXhX@Xq.( W ;.7 &X{.6.( _ z , 3 % r.O.9 o < & ",
"- + + s n 0 o A f.t x n } Y ].pXbX2.>.:.Z.&.OX6XU.-XmXPXFXSXKXUXFXBXLXBXFXKX7X8XjX5XBX4X.XW O.*.I.&Xp.t 4.Z.! , 1 - ` ! s < ; & ",
"o + & q P u X q A X.9 n } j 8.T.pXzX7 -.4.m.J.oXjX=X2XFXJXLXFXGXBXGXKX9XmXJX>X,XnX+XlXrX}./ } T B.bXc.$.K N.v s ; < L ' a - - & ",
"& + - 0 v s ;   >.i.= J Q } / A.eXdX2.&.I.n.T. XeX5X7XnXUXUXKXIXKXIX9X7XNXAX4XC.eX.XoXeX].K Y -.=.+X(.$.( i 0 s ; u I J < 8 * & ",
"& o & & z - o @ -.9.l j m ~ 4.r.+XOXc.w.B.4.;.D.U.$X4XcXMXDXFXKXSXNX,XnXDXMX~.n.&XoX$XU.;...' &.XXvX}.t ~ { H u , > _ H a & & - ",
"& & o 0   a.R   - } g.M n a J -.P.#XfXk. .4.3.N.C.E @X:XoX9XNXCXmX7X9XnXIXnXW.3.`.xX`.!.V.[ -.Y ).rXy.b d -.P * , # ' z 1 > - & ",
"< + * * 9 | I o : j x.r.t ! N 4.K {.OXiXeXK A.9.:.V.^.D.E.3X%XNXmX~.xXMX>X2.V.B.oXXX6X|.;.} ( -.+X}.7 ..' L s < < - x ( k & & - ",
"> & & o 8 p H ;   ..8.>.O.s s Q n ( H.OXkXc.n.C.M.Z.I.I.!.;.C.MXlX<X8XjXXXE Y e.kX{.+Xh.1.-.F y {.d.V 4.4.k 0 0 ; s ! k q & & & ",
"- - & o & u _ z : % V j.-.3 M 0 z { 7.8._.dXwXeX.XE.E.M.C.!.*XmXnXCX4X>Xs.w.E iXeXP.(.6.5.| % XX%XX.k.Y -.k u ; + z Q 1 a - o O ",
"- < & + & o n L . , i #.g.$.F 8 z P K ) H.OXaXiXdXsX$X%XiXoXkXVXzXxXS.S.S./ G.jX~.U.V.{ P ..= |.tX=.! >.V.p 1 1 , I a 9 0 * o * ",
"- - & & & * 0 Q / . 3 . ].dXW e.6 s x _ *.Y 3X{.~._.`.iXjX8XoXbX4XS.;...n..XjXuXR.P.K.! m ~ 7 p.t.;.W _.o.  a ; , & p q a o O O ",
"- > q > + + & n Q ; a   } $Xh.i.r.t % 8 s *...q.1.3.J.M.V.Y.J.|.0.U U w.B.lX6X2.A./ Z P ) -.;.rXv.% ~ &./ , ; ;   y.| o - + O - ",
"& - q - & + & , v a a u 9 D.k.6.d.h.$.V k I I z P Q { M ' :.3.k.j.9.j.'.5XU.1.[ } L B q h 6.|.l.r | l m m < + <   o.~ O O O o - ",
"O & - > - & + < p z h   e <.h 7.`.g.$X( O.Z   l B O.%.K P   j z.d.#X6XfX#XO.I ! O.O.[ T D P.[.B I _ ! -.# ; * o v / q . + O O O ",
"o & - > < ; & + q 9 4.^.F.*X:.,.O.iXxXwX}.a.eXG.=.w.(.^ 7.rX_.pXiX$X}.^ 6 $.~ f B L M o `.%X5 F x _ ) n ; ; < a N p  .c   O & - ",
"O O - > =   ,   G Y I.-X2X1X*Xm.E oXeXu.d.5XgXOXbXiXrXcXxXCXfXHXG. .e.F g ~ _ m H h l ,.+X>X2.. / -.*.: ; > s s k 8 M , o o - & ",
"& o O   M +.  M 2     6 2X2XM.c @   . p 6 Z $.#.z.p.p.y.}.j.e.t._ / j P P Q b n B =./.:X+X.Xj @ N.-.: > + o k s 8 >   o o O - o ",
"& O O   0 C    .c o u   Q.<X*.T , s c 2 u c p g / F     ] ^ 6 S | N C Q ~ B B ! ( U.oX5X.XY @ _ ' n < # & < m z 8 - - * O O O - ",
"& & O O     < o o - & . o ;.  H Q p , s 2 # u w 2 3 B M c P f z k m B L ~ X.K ;.O.S u.'.  V L ' n < ; O , k z p - - O o + + O - ",
"- & O & o & & 9 < & ; o q k + z Q ' =.m c J 0 2 d 9 s ~ % n s L m M n K Y &.X.X.X.M h   f v Q L u - # ; d a 0 & - - o + & O O O ",
"& & & O & o + & 9 9 - ; * - - + ; n H N / *.Q { ! B n j J . a J Q _ P X.k.%.X.e l 9 ; c 9 k N s - * o 1 0 - - < & O o O O O & o ",
"O - & - O O O O q 8 < > > & & & & * ; z h L J H -.! _ m 3.-XN.-.Q 4.X.%.k.% a 9 < u < > o.! s & + + > & > > > O O o + O O & o o ",
"O O O - - - O o   - - < 9 - < - & & & + - a p s q H Q ! % -XI.  a + = u   < < ; 1 p a 8 0.|   & O > & c u - - - + o - O - O O o ",
"O & - O - - O & + O O & 8 9 < - - + > , ; ; ; < 0 < < p : U % < < < , < u ; < k k n ! !     * + & <    .c   - O O o o O O O o o ",
"O & O O O & - O & + o o & - > < 8 ; > & < > ; - > ; ; o   X : ; ; ; 1 1 < a < =.n d q 8 ; ; o < < - 8   o + O O O o - & O O O   ",
"  O O O O & - - > & & o O & & & < - 0 c 9 q < < q q > s R 9 < 8 0 q p p k n n s - 8 - + & - - 9 q & - ; & X O o o O # O O O o   ",
"o   O O & O - - = - & O o o o o &   c +.  0 < q ; u 9 B +.= u p s 0 z p a s 0 > < O o + & - - > - & - & # O o o O & O O O     o ",
"o     O o O O & - & & - - & o o o o     + O + & > > ; o   - + , u 0 a + - + + o o O & - - > > - - & * + O o o & O O O X o   o o ",
"O O     o O o o & O & & & & * & O O + * O o o . o o o & ; o + o o o   & & O & - & & > > > - - & - & O o o O O O O O o o o o o o "
};
