/* XPM */
static char *result[] = {
/* columns rows colors chars-per-pixel */
"64 64 8 1 ",
"  c #EAE178",
". c #5C4E92",
"X c #766DAA",
"o c #E8B5AC",
"O c #DDD5DE",
"+ c #F3D8C5",
"@ c #F3F2C0",
"# c None",
/* pixels */
"################################################################",
"################################################################",
"################################################################",
"################################################################",
"################################################################",
"################################################################",
"################################################################",
"################################################################",
"################################################################",
"################################################################",
"################################################################",
"################################################################",
"################################################################",
"################################################################",
"################################################################",
"################################################################",
"################################################################",
"################################################################",
"################################################################",
"######################.....#######.....#########################",
"###################...@@@@@.####..@@@@@.########################",
"###################...oo@@@.......@oooo.########################",
"###################...oo@@@.......@oooo.########################",
"###################...oo@@@.......@oooo.########################",
"###################...oo@@@OOOOOOO@oooo.########################",
"###################...@@@@@OOOOOOO@@@@@.########################",
"###################...@@@@@OOOOOOO@@@@@.########################",
"###################...@@@@@OOOOOOO@@@@@.########################",
"###################...@@@@@OOOOOOO@@@@@.########################",
"##################....@@@@@@@@@@@@@@@@@....#####################",
"##################....@@@@@@@@@@@@@@@@@....#####################",
"###################...@.@@@@@@@@@@@...@.########################",
"##################....@@@@@@@@@@@@@@@@@....#####################",
"##################....@@@@@@@@@@@@@@@@@....#####################",
"##################....@@@@@@@@@@@@@@@@@....#####################",
"###################...++@@@@@@@@@@@++++.########################",
"######################..XXXXXXXXXXX.....########################",
"######################..XXXX  @@XXX@@@O.########################",
"######################..XXXX  @@XXX@@@O.########################",
"######################..XXXX  @@XXX@@@O.########################",
"###################...O@@@@@    @@@@@@.#########################",
"###################...O@...@@@@@@@@...##########################",
"###################...O@...@@@@@@@@...##########################",
"###################.............OOO...##########################",
"###################.............OOO...##########################",
"################################...#############################",
"################################...#############################",
"################################################################",
"################################################################",
"################################################################",
"################################################################",
"################################################################",
"################################################################",
"################################################################",
"################################################################",
"################################################################",
"################################################################",
"################################################################",
"################################################################",
"################################################################",
"################################################################",
"################################################################",
"################################################################",
"################################################################"
};
