/* XPM */
static char *ea8cbe99d33f49e19dfc86ecdb63f8c1XjXhedIeCyGNS1fJ[] = {
/* columns rows colors chars-per-pixel */
"32 32 238 2 ",
"   c None",
".  c #201E2F",
"X  c #372E26",
"o  c #3A2C28",
"O  c #2D2C3E",
"+  c #2F2F3F",
"@  c #3A3331",
"#  c #3D393A",
"$  c #42332B",
"%  c #443A2E",
"&  c #4C452E",
"*  c #4C452F",
"=  c #5C4326",
"-  c #594429",
";  c #554D2E",
":  c #4E4734",
">  c #644D27",
",  c #664F27",
"<  c #6C4D24",
"1  c #6E5226",
"2  c #7D5721",
"3  c #7F5821",
"4  c #7B5D25",
"5  c #7B5D26",
"6  c #7E5F25",
"7  c #635930",
"8  c #6F602F",
"9  c #7B652C",
"0  c #77692F",
"q  c #7D682F",
"w  c #706232",
"e  c #343346",
"r  c #373749",
"t  c #3C3C4F",
"y  c #514C40",
"u  c #514D43",
"i  c #534F47",
"p  c #535047",
"a  c #54504A",
"s  c #54504B",
"d  c #54504E",
"f  c #414050",
"g  c #404150",
"h  c #434354",
"j  c #444355",
"k  c #4C4C5B",
"l  c #575155",
"z  c #545256",
"x  c #595254",
"c  c #55535E",
"v  c #54525F",
"b  c #65604F",
"n  c #58596C",
"m  c #5A5B6E",
"M  c #787677",
"N  c #767478",
"B  c #996A1E",
"V  c #AB781E",
"C  c #825A21",
"Z  c #845F23",
"A  c #836224",
"S  c #846324",
"D  c #846325",
"F  c #856424",
"G  c #9F7D26",
"H  c #807436",
"J  c #877930",
"K  c #8B7E36",
"L  c #A47C20",
"P  c #857A42",
"I  c #867C44",
"U  c #867D46",
"Y  c #827E70",
"T  c #8F823A",
"R  c #8F833C",
"E  c #948033",
"W  c #90833C",
"Q  c #A3842C",
"!  c #B68A22",
"~  c #AB8C34",
"^  c #B99835",
"/  c #B2A239",
"(  c #CA971F",
")  c #CB9820",
"_  c #C49F2E",
"`  c #C49F2F",
"'  c #C6A12A",
"]  c #C6A12F",
"[  c #D9AB22",
"{  c #D9AB23",
"}  c #DAAC23",
"|  c #DBAD23",
" . c #D6A32C",
".. c #D6A32D",
"X. c #D1A52E",
"o. c #D8A42D",
"O. c #D2B12B",
"+. c #DDB829",
"@. c #C6A130",
"#. c #C6A231",
"$. c #C7A335",
"%. c #C8A331",
"&. c #C9A431",
"*. c #CBA73B",
"=. c #DAA93F",
"-. c #D5B133",
";. c #D4B937",
":. c #D9C239",
">. c #E1C630",
",. c #E2C634",
"<. c #E2C739",
"1. c #E3C839",
"2. c #E4C838",
"3. c #E4C939",
"4. c #E4C83A",
"5. c #948543",
"6. c #948945",
"7. c #9C8A46",
"8. c #8D8555",
"9. c #978F58",
"0. c #978F59",
"q. c #989059",
"w. c #AD9E42",
"e. c #AEA14D",
"r. c #AEA24E",
"t. c #BFA252",
"y. c #B9AC52",
"u. c #B9AC53",
"i. c #BAAD53",
"p. c #BBAE55",
"a. c #BAAD56",
"s. c #BBAE56",
"d. c #BAAD58",
"f. c #BEB154",
"g. c #BFB25C",
"h. c #9B9361",
"j. c #98926B",
"k. c #84817D",
"l. c #999470",
"z. c #9B9679",
"x. c #9E9879",
"c. c #A19A68",
"v. c #A69D7C",
"b. c #BFB361",
"n. c #BCB275",
"m. c #CCAE48",
"M. c #DEAD4B",
"N. c #C7B749",
"B. c #CDB04D",
"V. c #D4BC45",
"C. c #C8BA52",
"Z. c #C9BB56",
"A. c #DCB35D",
"S. c #CCBF62",
"D. c #C0B56D",
"F. c #E8D54D",
"G. c #E8D64D",
"H. c #E5C951",
"J. c #E7CC58",
"K. c #E7CC59",
"L. c #E7CD5D",
"P. c #E7CD5F",
"I. c #EBD956",
"U. c #E7D05D",
"Y. c #E8D35C",
"T. c #EBD959",
"R. c #EBDB5B",
"E. c #ECDC5B",
"W. c #EDDC5E",
"Q. c #EDDD5E",
"!. c #ECDC5F",
"~. c #DECA60",
"^. c #DCCD67",
"/. c #E7CD60",
"(. c #EDDD60",
"). c #EFDE62",
"_. c #EFE06A",
"`. c #F3E36C",
"'. c #F0E270",
"]. c #F3E470",
"[. c #F1E374",
"{. c #F2E474",
"}. c #F2E477",
"|. c #F3E679",
" X c #F3E77B",
".X c #F4E77C",
"XX c #F4E77E",
"oX c #F5E87A",
"OX c #F4E87F",
"+X c #737783",
"@X c #848286",
"#X c #968E89",
"$X c #958E8B",
"%X c #968E8A",
"&X c #9B9881",
"*X c #9C9880",
"=X c #8C8B93",
"-X c #8C8C95",
";X c #8E919C",
":X c #90949F",
">X c #A09D90",
",X c #9094A0",
"<X c #9195A0",
"1X c #9296A1",
"2X c #ACB6BD",
"3X c #D5CF9D",
"4X c #D5CF9F",
"5X c #F5E981",
"6X c #F7EB81",
"7X c #F7EB83",
"8X c #F7EB85",
"9X c #F7EB86",
"0X c #F6EB87",
"qX c #F8EC83",
"wX c #F6EB88",
"eX c #F7EC88",
"rX c #F7EC89",
"tX c #F7EC8A",
"yX c #F7EC8B",
"uX c #F7ED8F",
"iX c #F8ED8A",
"pX c #F8ED8C",
"aX c #F8EE8C",
"sX c #F7ED91",
"dX c #F8ED90",
"fX c #F8EE97",
"gX c #F9F0A2",
"hX c #FBF5BB",
"jX c #BAC3C9",
"kX c #BAC4CA",
"lX c #D3DADE",
"zX c #D2DADF",
"xX c #D8DCDF",
"cX c #FBF6C1",
"vX c #FCF9D7",
"bX c #FCF9D8",
"nX c #FDFAD8",
"mX c #FEFBDA",
/* pixels */
"                                                                ",
"                                                                ",
"                                                                ",
"                                                                ",
"                                                                ",
"                                                                ",
"                                                                ",
"                                                                ",
"                                                                ",
"                                                                ",
"                , 5.q.9.9.9.9.9.9.9.9.l.&X*X>XM                 ",
"          k.h.q - E ^ o......... . . .=.M.t.c.b P x.@X          ",
"          3Xf.9 = ! ;.H.J.J.K.K.J.K./.P.P.~.N.7 H g.4X          ",
"        z D.;   C | R. XeXaXaXaXaXaXhXcXbXmXqXW   ; b.d         ",
"        s d.    C [ R.5XeXyXyXyXwXaXsXfXbXbX9XW     n.c         ",
"        i i.    C [ (.yXyXeXeXyXyXwXiXwXyXgX9XR     d.s         ",
"        i y.    C { (.wXeXyXeXyXyXyXyXyXeXdX9XW     i.i         ",
"        u S.U @ 3 } F.}.'.[.wXeXyXyXyXyX.XwX`.K # U S.u         ",
"          e.C.Q 2 ) >.F.R.).{..X5X5X5X5X.X(.:.J w.Z.e.          ",
"            :   $ B ) +.<.4.3.<.<.3.<.2.4.O.L %   *             ",
"                    < Z D A 5 V V 4 D D F 1                     ",
"                            : m.B.:                             ",
"                          , 7.A.A.*XM                           ",
"                          4 V.U.(.^.8.                          ",
"                            8 X.-.w                             ",
"                            / ].5Xp.                            ",
"                    0 6.9.f.R.(.oXQ.p.j.z.Y                     ",
"                  o L ' &.&._ _ @.@.@.$.*.~ X                   ",
"                r k %X%Xx x %X%Xx x %X%Xx x =X-X                ",
"              . e m lXlXn n zXzXn n zXzXn n zXxXc               ",
"              O +X:X:X:X:X:X:X:X,X,X,X:X,X,X,X;Xf               ",
"              g 2XjXj j kXkXj j kXjXh h jXjXj t O               "
};
