/* XPM */
static char *_c0eaaa25c914298ab1827cfd714fd43ZTE9bKxzbsyx1b8W[] = {
/* columns rows colors chars-per-pixel */
"32 32 185 2 ",
"   c None",
".  c #232234",
"X  c #292431",
"o  c #3B2C33",
"O  c #3B2D3A",
"+  c #342733",
"@  c #3F3134",
"#  c #3D333B",
"$  c #3B353D",
"%  c #442C36",
"&  c #472838",
"*  c #443233",
"=  c #4A3633",
"-  c #463A3D",
";  c #493C3E",
":  c #46343B",
">  c #523535",
",  c #593D37",
"<  c #543A3C",
"1  c #5B3E38",
"2  c #563638",
"3  c #7A393E",
"4  c #73363D",
"5  c #68353A",
"6  c #5C463E",
"7  c #604336",
"8  c #63493E",
"9  c #694438",
"0  c #1F344C",
"q  c #25384C",
"w  c #393845",
"e  c #2E3E50",
"r  c #3D2B41",
"t  c #412F42",
"y  c #463549",
"u  c #4A344A",
"i  c #4A3242",
"p  c #533D44",
"a  c #543547",
"s  c #533553",
"d  c #793541",
"f  c #2F4153",
"g  c #28465D",
"h  c #3E4657",
"j  c #3F4E6F",
"k  c #31566C",
"l  c #3A5E71",
"z  c #544141",
"x  c #54434E",
"c  c #5A4544",
"v  c #44435D",
"b  c #464654",
"n  c #574654",
"m  c #604D46",
"M  c #63524A",
"N  c #765845",
"B  c #624E54",
"V  c #64485C",
"C  c #734455",
"Z  c #63555C",
"A  c #6E5C5A",
"S  c #4A4964",
"D  c #554B6A",
"F  c #49586F",
"G  c #674260",
"H  c #6A4960",
"J  c #7A5766",
"K  c #82383F",
"L  c #8F5C39",
"P  c #99623A",
"I  c #AB6C3C",
"U  c #B1703E",
"Y  c #853C41",
"T  c #943F48",
"R  c #8B4240",
"E  c #814F44",
"W  c #844348",
"Q  c #94424A",
"!  c #9A4B4E",
"~  c #855347",
"^  c #875945",
"/  c #93534A",
"(  c #975B4C",
")  c #814B56",
"_  c #9F5150",
"`  c #92555A",
"'  c #8A565F",
"]  c #93624F",
"[  c #8B6751",
"{  c #967057",
"}  c #97785C",
"|  c #9C6654",
" . c #A36749",
".. c #AD7344",
"X. c #B57643",
"o. c #B57D4D",
"O. c #B77946",
"+. c #A76751",
"@. c #B06452",
"#. c #B66A54",
"$. c #A4755D",
"%. c #A5785E",
"&. c #AB795B",
"*. c #BD7255",
"=. c #BF7658",
"-. c #8A5662",
";. c #895761",
":. c #9C5A64",
">. c #A05A62",
",. c #AD6E6B",
"<. c #AB7F62",
"1. c #CA7F40",
"2. c #C27959",
"3. c #BA804E",
"4. c #BB8C5F",
"5. c #B58765",
"6. c #BA936A",
"7. c #AF9677",
"8. c #C68147",
"9. c #C98247",
"0. c #C68248",
"q. c #CB864B",
"w. c #CE9C6C",
"e. c #C09468",
"r. c #D39D67",
"t. c #CF9A70",
"y. c #D7A26C",
"u. c #CEA171",
"i. c #CFA679",
"p. c #C4A77D",
"a. c #D2A573",
"s. c #DCAA74",
"d. c #D6A977",
"f. c #ECAE6E",
"g. c #EAA765",
"h. c #F2B26F",
"j. c #EEB87A",
"k. c #F2B675",
"l. c #F6B876",
"z. c #F4BD7E",
"x. c #F8BB78",
"c. c #F0AB66",
"v. c #2E7C9C",
"b. c #9D5385",
"n. c #B65D95",
"m. c #A05889",
"M. c #A96D8B",
"N. c #B96197",
"B. c #BA639C",
"V. c #BD7A99",
"C. c #BE7897",
"Z. c #C17C9A",
"A. c #CF69A6",
"S. c #318BAE",
"D. c #358FB2",
"F. c #3791B4",
"G. c #4F94AA",
"H. c #54A6BB",
"J. c #57AABF",
"K. c #58A6BC",
"L. c #359EC4",
"P. c #5FBED4",
"I. c #58AAC0",
"U. c #5BCCE9",
"Y. c #61CEEA",
"T. c #65DAF6",
"R. c #8E8590",
"E. c #918790",
"W. c #A69DA6",
"Q. c #B5B6BD",
"!. c #AFA3A9",
"~. c #F3BF82",
"^. c #D98AAA",
"/. c #F28FBE",
"(. c #F292BD",
"). c #F5C184",
"_. c #F6C68A",
"`. c #F6CC96",
"'. c #FCD9A5",
"]. c #F9D6A4",
"[. c #FF9BC6",
"{. c #C7BCC2",
"}. c #C8BEC4",
"|. c #DBC3C9",
" X c #E0C7CB",
/* pixels */
"                                                                ",
"                                                                ",
"                                                                ",
"                      e       y       e       y                 ",
"                    k G.l   G M.H   k G.l   G M.V               ",
"                  q D.Y.H.j n.[.Z.v D.U.J.S N.(.Z.u             ",
"              u t q L.T.P.S A.[.^.S L.T.P.S A.[.^.u q f         ",
"            y V.C.D D.U.K.v m.[.C.h S.U.H.v n./.V.F H.K.f       ",
"            y Z.[.n.j v.g . s b.s . g S.g . s m.D F.U.I.f       ",
"              V n.n.a q w + r r + + + w $ X r p b D.D.k         ",
"                a a d Y 7.~.} : 4 Y ( +.{ z } p.7.f 0           ",
"              8 ( 2 Y ! 5.t.5.< K T @.2.&.c 5.t.5.$             ",
"            - 4.8., / Q :.,.$.< K Q @.*.+.z <.,.-.O             ",
"            M y.9., / :.|.|.-.& Y Q @.2.&.: ;.|.}.b             ",
"          ; 6.k.9., / :.|.|.C o K T @.*.+.% C |.|.h             ",
"          ; a.l.8.7 / Q :.;.n $ K T @.*.( # x ;.' o             ",
"          ; u.l.8., / ! | B R.s K T @.#.( n E.B ] :             ",
"          ; w.l.8.7 / _ <.x d i 5 d Y L d 2 ) c { -             ",
"          * o.h.0., / _ } a ) -.n i s V B -.` p { 6             ",
"            8 r.9.> K ! $.A !.{.W.J W.Q.Q.{.!.A { $             ",
"            * X.9.9 4 T @.<.A Z B p B Z Z Z A <.] O             ",
"              7 I I 5 3 Y ( ~ N E E E E E E ~ ( <               ",
"                6 N I 9 = , 7 7 1 1 1 1 1 , % o                 ",
"              M 6.s.f.q.8.8.3.9.9.1.0.0.0...# +                 ",
"            ; 6.j.j.s.j.k.k.k.k.k.z.k.z.x.w.6 L =               ",
"            ; r.h.3.[ s.z.z.z.z.).`._.].'.i.8 I =               ",
"            * ..X.L 6.j.z.z.z.z.).)._.'.'.i.8 L =               ",
"              * , o.k.j.d.u.u.u.u.u.u.d.).a.; o                 ",
"                * 9.l.y.c - w 6 ; i 6 M s.y.-                   ",
"                * 9.c.o.*           o ..g.o.*                   ",
"                * U O.7             = U X.7                     ",
"                  * *                 @ *                       "
};
