/* XPM */
static char *_abab80df1d847a48b7380903a92cfabB5hIK2kfXVUL1Jq1[] = {
/* columns rows colors chars-per-pixel */
"32 32 130 2 ",
"   c None",
".  c #1B1A2D",
"X  c #1C1A2D",
"o  c #1C1B2D",
"O  c #1C1B2E",
"+  c #1C1C2E",
"@  c #1D1C2F",
"#  c #1D1D2F",
"$  c #1D1E2F",
"%  c #1E1E2F",
"&  c #322234",
"*  c #3E2536",
"=  c #3C2D36",
"-  c #472A35",
";  c #442836",
":  c #472A36",
">  c #482A36",
",  c #482B36",
"<  c #4A2F37",
"1  c #41363B",
"2  c #4C3139",
"3  c #4C3439",
"4  c #4F363A",
"5  c #4F373B",
"6  c #4E383C",
"7  c #513C3D",
"8  c #713241",
"9  c #494248",
"0  c #524240",
"q  c #544141",
"w  c #564643",
"e  c #564743",
"r  c #554644",
"t  c #564744",
"y  c #574946",
"u  c #5B4F4C",
"i  c #5B514D",
"p  c #5C5350",
"a  c #5D5350",
"s  c #5D5451",
"d  c #605653",
"f  c #605755",
"g  c #8B3F43",
"h  c #924543",
"j  c #934643",
"k  c #9C5349",
"l  c #9C5549",
"z  c #955C4C",
"x  c #AD564C",
"c  c #B3614E",
"v  c #B3614F",
"b  c #B4614E",
"n  c #B4614F",
"m  c #A56450",
"M  c #A76851",
"N  c #A76852",
"B  c #B86852",
"V  c #B86D53",
"C  c #B96D54",
"Z  c #B96E54",
"A  c #B96F54",
"S  c #BA6F54",
"D  c #BA7055",
"F  c #BB7156",
"G  c #BB7256",
"H  c #BB7357",
"J  c #BB7457",
"K  c #BC7557",
"L  c #BC7558",
"P  c #BD7658",
"I  c #B1795C",
"U  c #B27B5C",
"Y  c #BE795A",
"T  c #BF7B5B",
"R  c #BF7C5B",
"E  c #A67F61",
"W  c #C07458",
"Q  c #C07759",
"!  c #C17F5D",
"~  c #B58863",
"^  c #B68863",
"/  c #B68963",
"(  c #B68964",
")  c #B98E69",
"_  c #C2815E",
"`  c #C2825F",
"'  c #C5825F",
"]  c #C5835F",
"[  c #C68561",
"{  c #C48761",
"}  c #C58862",
"|  c #C58963",
" . c #C88A63",
".. c #C88E65",
"X. c #CA8E65",
"o. c #CB8E65",
"O. c #C88F66",
"+. c #CB8F66",
"@. c #CB8F6B",
"#. c #C99066",
"$. c #CA9368",
"%. c #CA9468",
"&. c #CB9569",
"*. c #CC986B",
"=. c #CC996B",
"-. c #CD996B",
";. c #CD9A6C",
":. c #CE9B6C",
">. c #CE9C6D",
",. c #CF9D6D",
"<. c #CF9E6D",
"1. c #CF9D6E",
"2. c #CF9E6E",
"3. c #CF9F6E",
"4. c #CF9F6F",
"5. c #D09F6E",
"6. c #C2A27B",
"7. c #C5A37A",
"8. c #D7A375",
"9. c #D4A277",
"0. c #DBB07F",
"q. c #DBB17F",
"w. c #DBB27F",
"e. c #C7AD85",
"r. c #C8AE85",
"t. c #C8AE86",
"y. c #C8AF86",
"u. c #C4AE8E",
"i. c #D3B990",
"p. c #E8C28F",
/* pixels */
"                                                                ",
"                                                                ",
"                                                                ",
"                                                                ",
"            O O + O X O O O O + O O O O X X O O O O             ",
"          1 r u s i i s i s i i a i s i s i s i d f 9           ",
"        + 0 E 7.y.y.y.y.y.y.r.r.y.y.y.y.y.y.r.y.i.u.f O         ",
"        + 7 I 8.q.q.q.q.q.q.w.w.q.q.q.q.q.q.q.q.p.i.d O         ",
"        % 4 m +.2.2.2.2.2.2.2.2.2.2.2.2.2.2.2.2.q.y.a O         ",
"        % 4 N +.2.2.2.2.2.2.2.2.2.2.2.2.2.2.2.2.0.y.i O         ",
"        % 4 N +.2.2.2.2.2.2.2.2.2.2.2.2.2.2.2.2.q.r.i O         ",
"        + 4 N +.2.2.2.2.2.2.2.2.2.2.2.2.2.2.2.2.q.r.a O         ",
"        % 4 N  .;.2.2.2.2.2.2.2.2.4.:.=.=.5.2.2.q.y.i O         ",
"        % 5 m Q } ;.4.2.2.2.2.2.2.2.%.` ..2.2.2.q.y.a O         ",
"        % 2 l B P } =.4.2.2.2.2.5.#.` D R ..=.5.q.y.s O         ",
"        % : h n Z J } ;.2.2.4.2.&.` D D D Q +.5.q.y.i O         ",
"        + - h v Z Z L { ;.2.2.$.` D V Z Z Z Q #.r.r.a O         ",
"        + > h v Z Z Z P } *.$.` D V Z Z Z Z D R 8.r.s O         ",
"        % < h v Z Z Z Z L } [ Z Z Z Z Z Z Z Z Z @.6.i O         ",
"        + > h v Z Z Z Z Z J D Z Z Z Z Z Z Z Z Z [ O.y O         ",
"        % > j b Z Z Z Z Z Z C Z Z Z Z Z Z Z Z Z ' / e +         ",
"        + > j b Z Z Z Z Z Z Z Z Z Z Z Z Z Z Z Z ' / r +         ",
"        + < h b Z Z Z Z Z Z Z Z Z Z Z Z Z Z Z Z ' ( r +         ",
"        + : h v D Z Z Z Z Z Z Z Z Z Z Z Z Z Z Z ' / e +         ",
"        % ; g x b b b b v v b b v v b b v v v v Q I q %         ",
"        % ; 8 g h j h h h h j j h h h h h h h h k z 6 +         ",
"          & * ; > > > < > < > > > > < > > > > : < 4 =           ",
"            % + % % + % + + + % + + % % + + % % + +             ",
"                                                                ",
"                                                                ",
"                                                                ",
"                                                                "
};
